<svg width="214" height="22" viewBox="0 0 214 22" fill="none" xmlns="http://www.w3.org/2000/svg">
<path d="M13.9375 3.71875L12.5625 4.59375C12.2292 4.11458 11.7292 3.6875 11.0625 3.3125C10.3958 2.9375 9.6875 2.75 8.9375 2.75C8.0625 2.75 7.25 2.96875 6.5 3.40625C5.77083 3.82292 5.125 4.42708 4.5625 5.21875C4.02083 6.01042 3.59375 6.95833 3.28125 8.0625C2.96875 9.16667 2.8125 10.3854 2.8125 11.7188C2.83333 12.8854 3.04167 13.9375 3.4375 14.875C3.85417 15.8125 4.38542 16.6146 5.03125 17.2812C5.67708 17.9271 6.39583 18.4271 7.1875 18.7812C7.97917 19.1354 8.77083 19.3125 9.5625 19.3125C10.6042 19.3125 11.5417 19.0833 12.375 18.625C13.2083 18.1458 13.9583 17.3854 14.625 16.3438L15.875 18.1562C14.9375 19.2812 13.9271 20.1042 12.8438 20.625C11.7604 21.1458 10.6146 21.4062 9.40625 21.4062C8.30208 21.4062 7.22917 21.1562 6.1875 20.6562C5.14583 20.1562 4.21875 19.4583 3.40625 18.5625C2.59375 17.6458 1.9375 16.5521 1.4375 15.2812C0.958333 13.9896 0.71875 12.5625 0.71875 11C0.71875 9.8125 0.875 8.61458 1.1875 7.40625C1.5 6.19792 1.97917 5.10417 2.625 4.125C3.29167 3.14583 4.13542 2.35417 5.15625 1.75C6.19792 1.125 7.4375 0.8125 8.875 0.8125C9.95833 0.8125 10.9688 1.03125 11.9062 1.46875C12.8438 1.90625 13.5208 2.65625 13.9375 3.71875ZM17.625 14.5938C17.625 13.4479 17.7917 12.4896 18.125 11.7188C18.4583 10.9271 18.875 10.3021 19.375 9.84375C19.8958 9.36458 20.4688 9.03125 21.0938 8.84375C21.7188 8.63542 22.3229 8.53125 22.9062 8.53125C23.7396 8.53125 24.4896 8.65625 25.1562 8.90625C25.8229 9.13542 26.3854 9.53125 26.8438 10.0938C27.3229 10.6354 27.6875 11.3646 27.9375 12.2812C28.1875 13.1979 28.3125 14.3229 28.3125 15.6562L19.625 16.5C19.6875 17.0833 19.8438 17.5833 20.0938 18C20.3646 18.3958 20.6979 18.7188 21.0938 18.9688C21.4896 19.2188 21.9167 19.3958 22.375 19.5C22.8333 19.6042 23.3021 19.6562 23.7812 19.6562C24.5729 19.6562 25.3333 19.5417 26.0625 19.3125C26.7917 19.0833 27.3333 18.8021 27.6875 18.4688L28.25 19.9688C28.1042 20.1771 27.8854 20.3854 27.5938 20.5938C27.3021 20.8021 26.9583 20.9792 26.5625 21.125C26.1667 21.2917 25.7188 21.4167 25.2188 21.5C24.7396 21.6042 24.2396 21.6562 23.7188 21.6562C22.9896 21.6562 22.2604 21.5417 21.5312 21.3125C20.8021 21.0833 20.1458 20.6979 19.5625 20.1562C18.9792 19.6146 18.5104 18.8958 18.1562 18C17.8021 17.0833 17.625 15.9479 17.625 14.5938ZM19.4375 14.6562L26.3125 13.9062C26.3125 12.8854 26.0417 12.0729 25.5 11.4688C24.9583 10.8438 24.0833 10.5312 22.875 10.5312C22.2917 10.5521 21.7812 10.6771 21.3438 10.9062C20.9271 11.1354 20.5729 11.4271 20.2812 11.7812C19.9896 12.1146 19.7708 12.5 19.625 12.9375C19.4792 13.375 19.4062 13.8229 19.4062 14.2812C19.4062 14.4479 19.4167 14.5729 19.4375 14.6562ZM38.8125 10.8438H32.75V20.8438L31.1875 21.0312V7.59375L32.6875 7.28125V8.84375L39.9375 8.40625L40.875 10.2812L41.8125 20.4688L39.8125 21.0312L38.8125 10.8438ZM48.75 10.0312C47.6042 10.0312 46.6979 10.3854 46.0312 11.0938C45.3854 11.8021 45.0625 12.9375 45.0625 14.5C45.0625 15.1042 45.1458 15.7083 45.3125 16.3125C45.4792 16.8958 45.7188 17.4271 46.0312 17.9062C46.3438 18.3854 46.7188 18.7812 47.1562 19.0938C47.5938 19.3854 48.0833 19.5312 48.625 19.5312C49.1875 19.5312 49.6979 19.3958 50.1562 19.125C50.6146 18.8542 51 18.5104 51.3125 18.0938C51.625 17.6562 51.8646 17.1771 52.0312 16.6562C52.2188 16.1146 52.3125 15.5938 52.3125 15.0938C52.3125 13.2604 51.9792 11.9583 51.3125 11.1875C50.6667 10.4167 49.8125 10.0312 48.75 10.0312ZM48.5625 7.90625C49.6042 7.90625 50.4896 8.09375 51.2188 8.46875C51.9479 8.84375 52.5417 9.36458 53 10.0312C53.4583 10.6771 53.7917 11.4375 54 12.3125C54.2083 13.1667 54.3125 14.0938 54.3125 15.0938C54.2708 16.2188 54.0833 17.1979 53.75 18.0312C53.4375 18.8438 53.0208 19.5208 52.5 20.0625C51.9792 20.6042 51.3854 21 50.7188 21.25C50.0729 21.5208 49.3958 21.6562 48.6875 21.6562C47.75 21.6562 46.9271 21.4688 46.2188 21.0938C45.5312 20.7188 44.9479 20.2188 44.4688 19.5938C44.0104 18.9479 43.6562 18.2188 43.4062 17.4062C43.1771 16.5729 43.0625 15.6979 43.0625 14.7812C43.0625 13.8021 43.1875 12.8958 43.4375 12.0625C43.7083 11.2083 44.0729 10.4792 44.5312 9.875C45.0104 9.25 45.5833 8.77083 46.25 8.4375C46.9375 8.08333 47.7083 7.90625 48.5625 7.90625ZM64.4375 10.8438H58.375V20.8438L56.8125 21.0312V7.59375L58.3125 7.28125V8.84375L65.5625 8.40625L66.5 10.2812L67.4375 20.4688L65.4375 21.0312L64.4375 10.8438ZM85.375 12.4688H69.25L69.375 10.7812H85.5L85.375 12.4688ZM96.3125 9.09375L95.875 10.9688C95.7083 10.8854 95.4792 10.8021 95.1875 10.7188C94.9167 10.6146 94.6042 10.5208 94.25 10.4375C93.9167 10.3542 93.5521 10.2917 93.1562 10.25C92.7812 10.1875 92.4271 10.1562 92.0938 10.1562C91.4688 10.1562 90.9271 10.25 90.4688 10.4375C90.0312 10.625 89.8125 10.9583 89.8125 11.4375C89.8125 11.7917 90 12.0938 90.375 12.3438C90.75 12.5938 91.1875 12.8125 91.6875 13C92.2083 13.1667 92.7188 13.3021 93.2188 13.4062C93.7396 13.5104 94.1458 13.5938 94.4375 13.6562C95.0625 13.8438 95.5625 14.0938 95.9375 14.4062C96.3333 14.6979 96.6354 15.0208 96.8438 15.375C97.0729 15.7083 97.2292 16.0625 97.3125 16.4375C97.3958 16.8125 97.4375 17.1771 97.4375 17.5312C97.4375 18.2812 97.2604 18.9167 96.9062 19.4375C96.5729 19.9375 96.1354 20.3542 95.5938 20.6875C95.0729 21 94.4792 21.2292 93.8125 21.375C93.1667 21.5208 92.5208 21.5938 91.875 21.5938C90.875 21.5938 89.9167 21.4583 89 21.1875C88.1042 20.9167 87.3958 20.5521 86.875 20.0938L87.625 17.9688C87.875 18.1771 88.1667 18.375 88.5 18.5625C88.8542 18.7292 89.2396 18.8854 89.6562 19.0312C90.0729 19.1562 90.5104 19.2604 90.9688 19.3438C91.4271 19.4062 91.875 19.4375 92.3125 19.4375C93.0625 19.4375 93.7292 19.2917 94.3125 19C94.8958 18.7083 95.25 18.1979 95.375 17.4688C95.375 17.3438 95.3542 17.1875 95.3125 17C95.2917 16.7917 95.2188 16.5938 95.0938 16.4062C94.9896 16.2188 94.8125 16.0417 94.5625 15.875C94.3333 15.7083 94 15.5938 93.5625 15.5312C92.7083 15.4062 91.9167 15.2396 91.1875 15.0312C90.4792 14.8229 89.8646 14.5625 89.3438 14.25C88.8229 13.9375 88.4062 13.5625 88.0938 13.125C87.8021 12.6667 87.6562 12.1354 87.6562 11.5312C87.6562 10.3646 88.0417 9.52083 88.8125 9C89.5833 8.47917 90.7188 8.21875 92.2188 8.21875C93.0104 8.21875 93.7708 8.30208 94.5 8.46875C95.25 8.63542 95.8542 8.84375 96.3125 9.09375ZM99.375 7.90625L101.125 8.34375C100.938 9.40625 100.781 10.4271 100.656 11.4062C100.552 12.3854 100.5 13.3021 100.5 14.1562C100.5 14.9479 100.542 15.6562 100.625 16.2812C100.729 16.9062 100.896 17.4479 101.125 17.9062C101.354 18.3646 101.656 18.7188 102.031 18.9688C102.427 19.1979 102.917 19.3125 103.5 19.3125C103.896 19.3125 104.271 19.2083 104.625 19C105 18.7708 105.333 18.4062 105.625 17.9062C105.938 17.4062 106.188 16.75 106.375 15.9375C106.562 15.1042 106.688 14.0729 106.75 12.8438L106.875 8.40625L108.625 8.53125V20.8438L107.062 21.0312L107 18.6562C106.729 19.6146 106.24 20.3438 105.531 20.8438C104.823 21.3229 104 21.5625 103.062 21.5625C102.292 21.5625 101.625 21.3854 101.062 21.0312C100.5 20.6979 100.031 20.2292 99.6562 19.625C99.3021 19.0208 99.0312 18.2917 98.8438 17.4375C98.6771 16.5833 98.5938 15.6458 98.5938 14.625C98.5938 13.6875 98.6562 12.6667 98.7812 11.5625C98.9271 10.4375 99.125 9.21875 99.375 7.90625ZM112.562 21.7188L111.5 7.96875L113.438 7.71875L113.875 13.7812L120.562 9.28125L121.438 11.0312L114.188 16.2812V21.5312L112.562 21.7188ZM139.062 12.4688H122.938L123.062 10.7812H139.188L139.062 12.4688ZM145.875 18.5312L154.5 0.34375L156.312 1.40625L146.625 21.5312L144.062 21.2188L140.938 0.78125H143.062L145.875 18.5312ZM158.812 21.0938V9.65625H161V21.2188L158.812 21.0938ZM161.688 7.09375L159.5 7.71875L157.5 2.96875L159.688 2.40625L161.688 7.09375ZM163.688 14.5938C163.688 13.4479 163.854 12.4896 164.188 11.7188C164.521 10.9271 164.938 10.3021 165.438 9.84375C165.958 9.36458 166.531 9.03125 167.156 8.84375C167.781 8.63542 168.385 8.53125 168.969 8.53125C169.802 8.53125 170.552 8.65625 171.219 8.90625C171.885 9.13542 172.448 9.53125 172.906 10.0938C173.385 10.6354 173.75 11.3646 174 12.2812C174.25 13.1979 174.375 14.3229 174.375 15.6562L165.688 16.5C165.75 17.0833 165.906 17.5833 166.156 18C166.427 18.3958 166.76 18.7188 167.156 18.9688C167.552 19.2188 167.979 19.3958 168.438 19.5C168.896 19.6042 169.365 19.6562 169.844 19.6562C170.635 19.6562 171.396 19.5417 172.125 19.3125C172.854 19.0833 173.396 18.8021 173.75 18.4688L174.312 19.9688C174.167 20.1771 173.948 20.3854 173.656 20.5938C173.365 20.8021 173.021 20.9792 172.625 21.125C172.229 21.2917 171.781 21.4167 171.281 21.5C170.802 21.6042 170.302 21.6562 169.781 21.6562C169.052 21.6562 168.323 21.5417 167.594 21.3125C166.865 21.0833 166.208 20.6979 165.625 20.1562C165.042 19.6146 164.573 18.8958 164.219 18C163.865 17.0833 163.688 15.9479 163.688 14.5938ZM165.5 14.6562L172.375 13.9062C172.375 12.8854 172.104 12.0729 171.562 11.4688C171.021 10.8438 170.146 10.5312 168.938 10.5312C168.354 10.5521 167.844 10.6771 167.406 10.9062C166.99 11.1354 166.635 11.4271 166.344 11.7812C166.052 12.1146 165.833 12.5 165.688 12.9375C165.542 13.375 165.469 13.8229 165.469 14.2812C165.469 14.4479 165.479 14.5729 165.5 14.6562ZM184.875 10.8438H178.812V20.8438L177.25 21.0312V7.59375L178.75 7.28125V8.84375L186 8.40625L186.938 10.2812L187.875 20.4688L185.875 21.0312L184.875 10.8438ZM198.125 10.8438H192.062V20.8438L190.5 21.0312V7.59375L192 7.28125V8.84375L199.25 8.40625L200.188 10.2812L201.125 20.4688L199.125 21.0312L198.125 10.8438ZM202.812 14.5938C202.812 13.4479 202.979 12.4896 203.312 11.7188C203.646 10.9271 204.062 10.3021 204.562 9.84375C205.083 9.36458 205.656 9.03125 206.281 8.84375C206.906 8.63542 207.51 8.53125 208.094 8.53125C208.927 8.53125 209.677 8.65625 210.344 8.90625C211.01 9.13542 211.573 9.53125 212.031 10.0938C212.51 10.6354 212.875 11.3646 213.125 12.2812C213.375 13.1979 213.5 14.3229 213.5 15.6562L204.812 16.5C204.875 17.0833 205.031 17.5833 205.281 18C205.552 18.3958 205.885 18.7188 206.281 18.9688C206.677 19.2188 207.104 19.3958 207.562 19.5C208.021 19.6042 208.49 19.6562 208.969 19.6562C209.76 19.6562 210.521 19.5417 211.25 19.3125C211.979 19.0833 212.521 18.8021 212.875 18.4688L213.438 19.9688C213.292 20.1771 213.073 20.3854 212.781 20.5938C212.49 20.8021 212.146 20.9792 211.75 21.125C211.354 21.2917 210.906 21.4167 210.406 21.5C209.927 21.6042 209.427 21.6562 208.906 21.6562C208.177 21.6562 207.448 21.5417 206.719 21.3125C205.99 21.0833 205.333 20.6979 204.75 20.1562C204.167 19.6146 203.698 18.8958 203.344 18C202.99 17.0833 202.812 15.9479 202.812 14.5938ZM204.625 14.6562L211.5 13.9062C211.5 12.8854 211.229 12.0729 210.688 11.4688C210.146 10.8438 209.271 10.5312 208.062 10.5312C207.479 10.5521 206.969 10.6771 206.531 10.9062C206.115 11.1354 205.76 11.4271 205.469 11.7812C205.177 12.1146 204.958 12.5 204.812 12.9375C204.667 13.375 204.594 13.8229 204.594 14.2812C204.594 14.4479 204.604 14.5729 204.625 14.6562Z" fill="#EE8159"/>
</svg>
