<svg width="84" height="22" viewBox="0 0 84 22" fill="none" xmlns="http://www.w3.org/2000/svg">
<path d="M13.9375 3.71875L12.5625 4.59375C12.2292 4.11458 11.7292 3.6875 11.0625 3.3125C10.3958 2.9375 9.6875 2.75 8.9375 2.75C8.0625 2.75 7.25 2.96875 6.5 3.40625C5.77083 3.82292 5.125 4.42708 4.5625 5.21875C4.02083 6.01042 3.59375 6.95833 3.28125 8.0625C2.96875 9.16667 2.8125 10.3854 2.8125 11.7188C2.83333 12.8854 3.04167 13.9375 3.4375 14.875C3.85417 15.8125 4.38542 16.6146 5.03125 17.2812C5.67708 17.9271 6.39583 18.4271 7.1875 18.7812C7.97917 19.1354 8.77083 19.3125 9.5625 19.3125C10.6042 19.3125 11.5417 19.0833 12.375 18.625C13.2083 18.1458 13.9583 17.3854 14.625 16.3438L15.875 18.1562C14.9375 19.2812 13.9271 20.1042 12.8438 20.625C11.7604 21.1458 10.6146 21.4062 9.40625 21.4062C8.30208 21.4062 7.22917 21.1562 6.1875 20.6562C5.14583 20.1562 4.21875 19.4583 3.40625 18.5625C2.59375 17.6458 1.9375 16.5521 1.4375 15.2812C0.958333 13.9896 0.71875 12.5625 0.71875 11C0.71875 9.8125 0.875 8.61458 1.1875 7.40625C1.5 6.19792 1.97917 5.10417 2.625 4.125C3.29167 3.14583 4.13542 2.35417 5.15625 1.75C6.19792 1.125 7.4375 0.8125 8.875 0.8125C9.95833 0.8125 10.9688 1.03125 11.9062 1.46875C12.8438 1.90625 13.5208 2.65625 13.9375 3.71875ZM18.25 21.4688V0.78125H20.375V8.96875L28.3125 0.84375L29.6875 2.46875L21.75 10.2188L30.625 19.7812L29.125 20.9688L20.4375 11.7812V21.4688H18.25ZM34.6875 4.84375V21.0312H32.25V1.34375L35.25 0.90625L40.0625 13.4062L45.6875 1.28125L48.0625 1.46875L49.5625 21.5312H47.4375L46.3125 5.09375L40.625 16.7188L39.25 16.5312L34.6875 4.84375ZM54.25 5.71875V21.0938H51.8125V1.71875L54 1.40625L63.5 18.2812V0.65625L66.3125 0.96875V20.5312L62.8125 21.0938L54.25 5.71875ZM81.25 3.71875L79.875 4.59375C79.5417 4.11458 79.0417 3.6875 78.375 3.3125C77.7083 2.9375 77 2.75 76.25 2.75C75.375 2.75 74.5625 2.96875 73.8125 3.40625C73.0833 3.82292 72.4375 4.42708 71.875 5.21875C71.3333 6.01042 70.9062 6.95833 70.5938 8.0625C70.2812 9.16667 70.125 10.3854 70.125 11.7188C70.1458 12.8854 70.3542 13.9375 70.75 14.875C71.1667 15.8125 71.6979 16.6146 72.3438 17.2812C72.9896 17.9271 73.7083 18.4271 74.5 18.7812C75.2917 19.1354 76.0833 19.3125 76.875 19.3125C77.9167 19.3125 78.8542 19.0833 79.6875 18.625C80.5208 18.1458 81.2708 17.3854 81.9375 16.3438L83.1875 18.1562C82.25 19.2812 81.2396 20.1042 80.1562 20.625C79.0729 21.1458 77.9271 21.4062 76.7188 21.4062C75.6146 21.4062 74.5417 21.1562 73.5 20.6562C72.4583 20.1562 71.5312 19.4583 70.7188 18.5625C69.9062 17.6458 69.25 16.5521 68.75 15.2812C68.2708 13.9896 68.0312 12.5625 68.0312 11C68.0312 9.8125 68.1875 8.61458 68.5 7.40625C68.8125 6.19792 69.2917 5.10417 69.9375 4.125C70.6042 3.14583 71.4479 2.35417 72.4688 1.75C73.5104 1.125 74.75 0.8125 76.1875 0.8125C77.2708 0.8125 78.2812 1.03125 79.2188 1.46875C80.1562 1.90625 80.8333 2.65625 81.25 3.71875Z" fill="#EE8159"/>
</svg>
