<svg width="181" height="23" viewBox="0 0 181 23" fill="none" xmlns="http://www.w3.org/2000/svg">
<path d="M13.9375 3.71875L12.5625 4.59375C12.2292 4.11458 11.7292 3.6875 11.0625 3.3125C10.3958 2.9375 9.6875 2.75 8.9375 2.75C8.0625 2.75 7.25 2.96875 6.5 3.40625C5.77083 3.82292 5.125 4.42708 4.5625 5.21875C4.02083 6.01042 3.59375 6.95833 3.28125 8.0625C2.96875 9.16667 2.8125 10.3854 2.8125 11.7188C2.83333 12.8854 3.04167 13.9375 3.4375 14.875C3.85417 15.8125 4.38542 16.6146 5.03125 17.2812C5.67708 17.9271 6.39583 18.4271 7.1875 18.7812C7.97917 19.1354 8.77083 19.3125 9.5625 19.3125C10.6042 19.3125 11.5417 19.0833 12.375 18.625C13.2083 18.1458 13.9583 17.3854 14.625 16.3438L15.875 18.1562C14.9375 19.2812 13.9271 20.1042 12.8438 20.625C11.7604 21.1458 10.6146 21.4062 9.40625 21.4062C8.30208 21.4062 7.22917 21.1562 6.1875 20.6562C5.14583 20.1562 4.21875 19.4583 3.40625 18.5625C2.59375 17.6458 1.9375 16.5521 1.4375 15.2812C0.958333 13.9896 0.71875 12.5625 0.71875 11C0.71875 9.8125 0.875 8.61458 1.1875 7.40625C1.5 6.19792 1.97917 5.10417 2.625 4.125C3.29167 3.14583 4.13542 2.35417 5.15625 1.75C6.19792 1.125 7.4375 0.8125 8.875 0.8125C9.95833 0.8125 10.9688 1.03125 11.9062 1.46875C12.8438 1.90625 13.5208 2.65625 13.9375 3.71875ZM18.625 19.4062V0.96875H20.8125V18.6562H32.0625V20.9062H19.875L18.625 19.4062ZM38.5 11.0938H43.3125L40.625 4.03125L38.5 11.0938ZM35.5625 21.3438L33.4375 20.8438L39.875 0.46875H41.25L48.8125 20.9688L46.8125 21.5312L43.875 13.0312H38L35.5625 21.3438ZM62.1875 2.15625L61.3125 4.03125C61.2083 3.90625 61.0104 3.77083 60.7188 3.625C60.4271 3.45833 60.0729 3.3125 59.6562 3.1875C59.2604 3.0625 58.8229 2.95833 58.3438 2.875C57.8646 2.77083 57.3958 2.71875 56.9375 2.71875C56.4792 2.71875 56.0417 2.77083 55.625 2.875C55.2292 2.95833 54.875 3.10417 54.5625 3.3125C54.25 3.52083 54 3.80208 53.8125 4.15625C53.6458 4.51042 53.5625 4.9375 53.5625 5.4375C53.5625 6.10417 53.8125 6.77083 54.3125 7.4375C54.8333 8.08333 55.625 8.59375 56.6875 8.96875C58.0625 9.51042 59.1354 10.0833 59.9062 10.6875C60.6979 11.2917 61.2812 11.8958 61.6562 12.5C62.0521 13.1042 62.3021 13.6979 62.4062 14.2812C62.5104 14.8646 62.5625 15.4062 62.5625 15.9062C62.5 17.6354 61.9479 18.9792 60.9062 19.9375C59.8646 20.8958 58.3229 21.375 56.2812 21.375C55.4479 21.375 54.5312 21.2812 53.5312 21.0938C52.5521 20.9271 51.4792 20.6562 50.3125 20.2812L51 18.0938C51.6458 18.3438 52.4479 18.5833 53.4062 18.8125C54.3854 19.0208 55.3542 19.125 56.3125 19.125C56.875 19.125 57.4062 19.0729 57.9062 18.9688C58.4062 18.8646 58.8438 18.6979 59.2188 18.4688C59.5938 18.2188 59.8854 17.8958 60.0938 17.5C60.3229 17.1042 60.4375 16.6146 60.4375 16.0312C60.4167 15.0312 60.1771 14.2292 59.7188 13.625C59.2812 13.0208 58.7292 12.5208 58.0625 12.125C57.3958 11.7292 56.6771 11.375 55.9062 11.0625C55.1354 10.75 54.4167 10.375 53.75 9.9375C53.1042 9.5 52.5625 8.94792 52.125 8.28125C51.6875 7.61458 51.4688 6.72917 51.4688 5.625C51.4688 4.72917 51.6042 3.96875 51.875 3.34375C52.1458 2.71875 52.5208 2.21875 53 1.84375C53.5 1.44792 54.0729 1.16667 54.7188 1C55.3854 0.8125 56.1042 0.71875 56.875 0.71875C57.875 0.71875 58.8438 0.854167 59.7812 1.125C60.7188 1.375 61.5208 1.71875 62.1875 2.15625ZM76 2.15625L75.125 4.03125C75.0208 3.90625 74.8229 3.77083 74.5312 3.625C74.2396 3.45833 73.8854 3.3125 73.4688 3.1875C73.0729 3.0625 72.6354 2.95833 72.1562 2.875C71.6771 2.77083 71.2083 2.71875 70.75 2.71875C70.2917 2.71875 69.8542 2.77083 69.4375 2.875C69.0417 2.95833 68.6875 3.10417 68.375 3.3125C68.0625 3.52083 67.8125 3.80208 67.625 4.15625C67.4583 4.51042 67.375 4.9375 67.375 5.4375C67.375 6.10417 67.625 6.77083 68.125 7.4375C68.6458 8.08333 69.4375 8.59375 70.5 8.96875C71.875 9.51042 72.9479 10.0833 73.7188 10.6875C74.5104 11.2917 75.0938 11.8958 75.4688 12.5C75.8646 13.1042 76.1146 13.6979 76.2188 14.2812C76.3229 14.8646 76.375 15.4062 76.375 15.9062C76.3125 17.6354 75.7604 18.9792 74.7188 19.9375C73.6771 20.8958 72.1354 21.375 70.0938 21.375C69.2604 21.375 68.3438 21.2812 67.3438 21.0938C66.3646 20.9271 65.2917 20.6562 64.125 20.2812L64.8125 18.0938C65.4583 18.3438 66.2604 18.5833 67.2188 18.8125C68.1979 19.0208 69.1667 19.125 70.125 19.125C70.6875 19.125 71.2188 19.0729 71.7188 18.9688C72.2188 18.8646 72.6562 18.6979 73.0312 18.4688C73.4062 18.2188 73.6979 17.8958 73.9062 17.5C74.1354 17.1042 74.25 16.6146 74.25 16.0312C74.2292 15.0312 73.9896 14.2292 73.5312 13.625C73.0938 13.0208 72.5417 12.5208 71.875 12.125C71.2083 11.7292 70.4896 11.375 69.7188 11.0625C68.9479 10.75 68.2292 10.375 67.5625 9.9375C66.9167 9.5 66.375 8.94792 65.9375 8.28125C65.5 7.61458 65.2812 6.72917 65.2812 5.625C65.2812 4.72917 65.4167 3.96875 65.6875 3.34375C65.9583 2.71875 66.3333 2.21875 66.8125 1.84375C67.3125 1.44792 67.8854 1.16667 68.5312 1C69.1979 0.8125 69.9167 0.71875 70.6875 0.71875C71.6875 0.71875 72.6562 0.854167 73.5938 1.125C74.5312 1.375 75.3333 1.71875 76 2.15625ZM91.9375 18.8438V21.0312H80.0625L78.9375 19.5312V3.03125L80.1875 1.21875H90.25V3.03125H81.125V10.0312H90.875V11.7188H81V18.8438H91.9375ZM103 0.28125L105.188 0.59375C105.083 1.01042 104.979 1.5625 104.875 2.25C104.771 2.9375 104.677 3.70833 104.594 4.5625C104.51 5.39583 104.438 6.29167 104.375 7.25C104.312 8.20833 104.281 9.16667 104.281 10.125C104.281 11.3542 104.344 12.5521 104.469 13.7188C104.594 14.8854 104.812 15.9271 105.125 16.8438C105.458 17.7396 105.896 18.4688 106.438 19.0312C106.979 19.5729 107.677 19.8438 108.531 19.8438C109.781 19.8438 110.781 19.4688 111.531 18.7188C112.302 17.9688 112.896 16.9896 113.312 15.7812C113.75 14.5729 114.042 13.2188 114.188 11.7188C114.333 10.2188 114.406 8.71875 114.406 7.21875C114.406 6.03125 114.375 4.9375 114.312 3.9375C114.271 2.91667 114.25 2.09375 114.25 1.46875L116.375 1.40625C116.396 2.17708 116.417 2.96875 116.438 3.78125C116.458 4.59375 116.469 5.42708 116.469 6.28125C116.469 7.61458 116.427 8.92708 116.344 10.2188C116.26 11.5104 116.115 12.75 115.906 13.9375C115.698 15.1042 115.406 16.1875 115.031 17.1875C114.656 18.1875 114.177 19.0521 113.594 19.7812C113.01 20.4896 112.312 21.0521 111.5 21.4688C110.688 21.8854 109.74 22.0938 108.656 22.0938C107.344 22.0938 106.26 21.7292 105.406 21C104.573 20.25 103.917 19.2812 103.438 18.0938C102.958 16.9062 102.625 15.5729 102.438 14.0938C102.25 12.6146 102.156 11.1354 102.156 9.65625C102.156 8.71875 102.177 7.80208 102.219 6.90625C102.281 5.98958 102.354 5.125 102.438 4.3125C102.521 3.5 102.604 2.75 102.688 2.0625C102.792 1.375 102.896 0.78125 103 0.28125ZM119.562 19.4062V0.96875H121.75V18.6562H133V20.9062H120.812L119.562 19.4062ZM141.438 3.34375H134.625V1.53125H150.438V3.09375H143.375L145.062 21.0938L143.062 21.2812L141.438 3.34375ZM161 20.3438H153.562V18.5938H156V2.96875H152.5V1.28125L159.375 0.84375V2.65625L157.125 2.84375V18.4688H161V20.3438ZM166 4.84375V21.0312H163.562V1.34375L166.562 0.90625L171.375 13.4062L177 1.28125L179.375 1.46875L180.875 21.5312H178.75L177.625 5.09375L171.938 16.7188L170.562 16.5312L166 4.84375Z" fill="#EE8159"/>
</svg>
