<svg width="224" height="23" viewBox="0 0 224 23" fill="none" xmlns="http://www.w3.org/2000/svg">
<path d="M0.125 20.4062V1.96875H2.3125V19.6562H13.5625V21.9062H1.375L0.125 20.4062ZM15.375 15.5938C15.375 14.4479 15.5417 13.4896 15.875 12.7188C16.2083 11.9271 16.625 11.3021 17.125 10.8438C17.6458 10.3646 18.2188 10.0312 18.8438 9.84375C19.4688 9.63542 20.0729 9.53125 20.6562 9.53125C21.4896 9.53125 22.2396 9.65625 22.9062 9.90625C23.5729 10.1354 24.1354 10.5312 24.5938 11.0938C25.0729 11.6354 25.4375 12.3646 25.6875 13.2812C25.9375 14.1979 26.0625 15.3229 26.0625 16.6562L17.375 17.5C17.4375 18.0833 17.5938 18.5833 17.8438 19C18.1146 19.3958 18.4479 19.7188 18.8438 19.9688C19.2396 20.2188 19.6667 20.3958 20.125 20.5C20.5833 20.6042 21.0521 20.6562 21.5312 20.6562C22.3229 20.6562 23.0833 20.5417 23.8125 20.3125C24.5417 20.0833 25.0833 19.8021 25.4375 19.4688L26 20.9688C25.8542 21.1771 25.6354 21.3854 25.3438 21.5938C25.0521 21.8021 24.7083 21.9792 24.3125 22.125C23.9167 22.2917 23.4688 22.4167 22.9688 22.5C22.4896 22.6042 21.9896 22.6562 21.4688 22.6562C20.7396 22.6562 20.0104 22.5417 19.2812 22.3125C18.5521 22.0833 17.8958 21.6979 17.3125 21.1562C16.7292 20.6146 16.2604 19.8958 15.9062 19C15.5521 18.0833 15.375 16.9479 15.375 15.5938ZM17.1875 15.6562L24.0625 14.9062C24.0625 13.8854 23.7917 13.0729 23.25 12.4688C22.7083 11.8438 21.8333 11.5312 20.625 11.5312C20.0417 11.5521 19.5312 11.6771 19.0938 11.9062C18.6771 12.1354 18.3229 12.4271 18.0312 12.7812C17.7396 13.1146 17.5208 13.5 17.375 13.9375C17.2292 14.375 17.1562 14.8229 17.1562 15.2812C17.1562 15.4479 17.1667 15.5729 17.1875 15.6562ZM48.9375 4.71875L47.5625 5.59375C47.2292 5.11458 46.7292 4.6875 46.0625 4.3125C45.3958 3.9375 44.6875 3.75 43.9375 3.75C43.0625 3.75 42.25 3.96875 41.5 4.40625C40.7708 4.82292 40.125 5.42708 39.5625 6.21875C39.0208 7.01042 38.5938 7.95833 38.2812 9.0625C37.9688 10.1667 37.8125 11.3854 37.8125 12.7188C37.8333 13.8854 38.0417 14.9375 38.4375 15.875C38.8542 16.8125 39.3854 17.6146 40.0312 18.2812C40.6771 18.9271 41.3958 19.4271 42.1875 19.7812C42.9792 20.1354 43.7708 20.3125 44.5625 20.3125C45.6042 20.3125 46.5417 20.0833 47.375 19.625C48.2083 19.1458 48.9583 18.3854 49.625 17.3438L50.875 19.1562C49.9375 20.2812 48.9271 21.1042 47.8438 21.625C46.7604 22.1458 45.6146 22.4062 44.4062 22.4062C43.3021 22.4062 42.2292 22.1562 41.1875 21.6562C40.1458 21.1562 39.2188 20.4583 38.4062 19.5625C37.5938 18.6458 36.9375 17.5521 36.4375 16.2812C35.9583 14.9896 35.7188 13.5625 35.7188 12C35.7188 10.8125 35.875 9.61458 36.1875 8.40625C36.5 7.19792 36.9792 6.10417 37.625 5.125C38.2917 4.14583 39.1354 3.35417 40.1562 2.75C41.1979 2.125 42.4375 1.8125 43.875 1.8125C44.9583 1.8125 45.9688 2.03125 46.9062 2.46875C47.8438 2.90625 48.5208 3.65625 48.9375 4.71875ZM57.875 11.0312C56.7292 11.0312 55.8229 11.3854 55.1562 12.0938C54.5104 12.8021 54.1875 13.9375 54.1875 15.5C54.1875 16.1042 54.2708 16.7083 54.4375 17.3125C54.6042 17.8958 54.8438 18.4271 55.1562 18.9062C55.4688 19.3854 55.8438 19.7812 56.2812 20.0938C56.7188 20.3854 57.2083 20.5312 57.75 20.5312C58.3125 20.5312 58.8229 20.3958 59.2812 20.125C59.7396 19.8542 60.125 19.5104 60.4375 19.0938C60.75 18.6562 60.9896 18.1771 61.1562 17.6562C61.3438 17.1146 61.4375 16.5938 61.4375 16.0938C61.4375 14.2604 61.1042 12.9583 60.4375 12.1875C59.7917 11.4167 58.9375 11.0312 57.875 11.0312ZM57.6875 8.90625C58.7292 8.90625 59.6146 9.09375 60.3438 9.46875C61.0729 9.84375 61.6667 10.3646 62.125 11.0312C62.5833 11.6771 62.9167 12.4375 63.125 13.3125C63.3333 14.1667 63.4375 15.0938 63.4375 16.0938C63.3958 17.2188 63.2083 18.1979 62.875 19.0312C62.5625 19.8438 62.1458 20.5208 61.625 21.0625C61.1042 21.6042 60.5104 22 59.8438 22.25C59.1979 22.5208 58.5208 22.6562 57.8125 22.6562C56.875 22.6562 56.0521 22.4688 55.3438 22.0938C54.6562 21.7188 54.0729 21.2188 53.5938 20.5938C53.1354 19.9479 52.7812 19.2188 52.5312 18.4062C52.3021 17.5729 52.1875 16.6979 52.1875 15.7812C52.1875 14.8021 52.3125 13.8958 52.5625 13.0625C52.8333 12.2083 53.1979 11.4792 53.6562 10.875C54.1354 10.25 54.7083 9.77083 55.375 9.4375C56.0625 9.08333 56.8333 8.90625 57.6875 8.90625ZM75.625 10.5938L75.0625 12.5938C74.4583 12.0521 73.8125 11.6562 73.125 11.4062C72.4375 11.1354 71.7604 11 71.0938 11C70.5312 11 69.9896 11.1042 69.4688 11.3125C68.9688 11.5 68.5312 11.7917 68.1562 12.1875C67.7812 12.5833 67.4792 13.0729 67.25 13.6562C67.0417 14.2396 66.9375 14.9062 66.9375 15.6562C66.9375 16.5521 67.0521 17.3021 67.2812 17.9062C67.5312 18.5104 67.8542 19 68.25 19.375C68.6458 19.75 69.0938 20.0208 69.5938 20.1875C70.1146 20.3542 70.6458 20.4375 71.1875 20.4375C71.6667 20.4167 72.1354 20.3229 72.5938 20.1562C73.0729 19.9688 73.5 19.7188 73.875 19.4062C74.25 19.0729 74.5625 18.6875 74.8125 18.25C75.0625 17.7917 75.2083 17.2812 75.25 16.7188L77 17.5938C76.9583 18.4271 76.7604 19.1562 76.4062 19.7812C76.0729 20.4062 75.6354 20.9271 75.0938 21.3438C74.5729 21.7604 73.9688 22.0729 73.2812 22.2812C72.5938 22.4896 71.8854 22.5938 71.1562 22.5938C70.3854 22.5938 69.625 22.4479 68.875 22.1562C68.125 21.8854 67.4583 21.4688 66.875 20.9062C66.2917 20.3438 65.8229 19.6354 65.4688 18.7812C65.1146 17.9062 64.9375 16.8854 64.9375 15.7188C64.9375 14.7396 65.0833 13.8438 65.375 13.0312C65.6667 12.1979 66.0729 11.4896 66.5938 10.9062C67.1146 10.3021 67.7292 9.83333 68.4375 9.5C69.1667 9.16667 69.9583 9 70.8125 9C71.5417 9 72.3021 9.13542 73.0938 9.40625C73.9062 9.65625 74.75 10.0521 75.625 10.5938ZM84 11.0312C82.8542 11.0312 81.9479 11.3854 81.2812 12.0938C80.6354 12.8021 80.3125 13.9375 80.3125 15.5C80.3125 16.1042 80.3958 16.7083 80.5625 17.3125C80.7292 17.8958 80.9688 18.4271 81.2812 18.9062C81.5938 19.3854 81.9688 19.7812 82.4062 20.0938C82.8438 20.3854 83.3333 20.5312 83.875 20.5312C84.4375 20.5312 84.9479 20.3958 85.4062 20.125C85.8646 19.8542 86.25 19.5104 86.5625 19.0938C86.875 18.6562 87.1146 18.1771 87.2812 17.6562C87.4688 17.1146 87.5625 16.5938 87.5625 16.0938C87.5625 14.2604 87.2292 12.9583 86.5625 12.1875C85.9167 11.4167 85.0625 11.0312 84 11.0312ZM83.8125 8.90625C84.8542 8.90625 85.7396 9.09375 86.4688 9.46875C87.1979 9.84375 87.7917 10.3646 88.25 11.0312C88.7083 11.6771 89.0417 12.4375 89.25 13.3125C89.4583 14.1667 89.5625 15.0938 89.5625 16.0938C89.5208 17.2188 89.3333 18.1979 89 19.0312C88.6875 19.8438 88.2708 20.5208 87.75 21.0625C87.2292 21.6042 86.6354 22 85.9688 22.25C85.3229 22.5208 84.6458 22.6562 83.9375 22.6562C83 22.6562 82.1771 22.4688 81.4688 22.0938C80.7812 21.7188 80.1979 21.2188 79.7188 20.5938C79.2604 19.9479 78.9062 19.2188 78.6562 18.4062C78.4271 17.5729 78.3125 16.6979 78.3125 15.7812C78.3125 14.8021 78.4375 13.8958 78.6875 13.0625C78.9583 12.2083 79.3229 11.4792 79.7812 10.875C80.2604 10.25 80.8333 9.77083 81.5 9.4375C82.1875 9.08333 82.9583 8.90625 83.8125 8.90625ZM99.6875 11.8438H93.625V21.8438L92.0625 22.0312V8.59375L93.5625 8.28125V9.84375L100.812 9.40625L101.75 11.2812L102.688 21.4688L100.688 22.0312L99.6875 11.8438ZM123.438 0.71875V20.8438L122.625 21.8438C121.938 22.0521 121.292 22.1979 120.688 22.2812C120.083 22.3646 119.51 22.4062 118.969 22.4062C117.698 22.4062 116.625 22.2083 115.75 21.8125C114.896 21.4167 114.198 20.8958 113.656 20.25C113.115 19.6042 112.719 18.8854 112.469 18.0938C112.24 17.3021 112.125 16.5 112.125 15.6875C112.125 14.5417 112.302 13.5729 112.656 12.7812C113.01 11.9688 113.469 11.3021 114.031 10.7812C114.615 10.2604 115.26 9.88542 115.969 9.65625C116.698 9.40625 117.438 9.28125 118.188 9.28125C119.417 9.28125 120.521 9.55208 121.5 10.0938L121.438 0.65625L123.438 0.71875ZM121.375 12.8438C120.896 12.4062 120.375 12.0833 119.812 11.875C119.25 11.6458 118.677 11.5312 118.094 11.5312C117.594 11.5312 117.104 11.625 116.625 11.8125C116.167 11.9792 115.76 12.2396 115.406 12.5938C115.052 12.9271 114.76 13.3542 114.531 13.875C114.323 14.375 114.219 14.9688 114.219 15.6562C114.219 16.4479 114.354 17.125 114.625 17.6875C114.896 18.25 115.25 18.7083 115.688 19.0625C116.146 19.4167 116.667 19.6875 117.25 19.875C117.854 20.0417 118.479 20.125 119.125 20.125C119.958 20.125 120.708 19.9688 121.375 19.6562V12.8438ZM125.812 15.5938C125.812 14.4479 125.979 13.4896 126.312 12.7188C126.646 11.9271 127.062 11.3021 127.562 10.8438C128.083 10.3646 128.656 10.0312 129.281 9.84375C129.906 9.63542 130.51 9.53125 131.094 9.53125C131.927 9.53125 132.677 9.65625 133.344 9.90625C134.01 10.1354 134.573 10.5312 135.031 11.0938C135.51 11.6354 135.875 12.3646 136.125 13.2812C136.375 14.1979 136.5 15.3229 136.5 16.6562L127.812 17.5C127.875 18.0833 128.031 18.5833 128.281 19C128.552 19.3958 128.885 19.7188 129.281 19.9688C129.677 20.2188 130.104 20.3958 130.562 20.5C131.021 20.6042 131.49 20.6562 131.969 20.6562C132.76 20.6562 133.521 20.5417 134.25 20.3125C134.979 20.0833 135.521 19.8021 135.875 19.4688L136.438 20.9688C136.292 21.1771 136.073 21.3854 135.781 21.5938C135.49 21.8021 135.146 21.9792 134.75 22.125C134.354 22.2917 133.906 22.4167 133.406 22.5C132.927 22.6042 132.427 22.6562 131.906 22.6562C131.177 22.6562 130.448 22.5417 129.719 22.3125C128.99 22.0833 128.333 21.6979 127.75 21.1562C127.167 20.6146 126.698 19.8958 126.344 19C125.99 18.0833 125.812 16.9479 125.812 15.5938ZM127.625 15.6562L134.5 14.9062C134.5 13.8854 134.229 13.0729 133.688 12.4688C133.146 11.8438 132.271 11.5312 131.062 11.5312C130.479 11.5521 129.969 11.6771 129.531 11.9062C129.115 12.1354 128.76 12.4271 128.469 12.7812C128.177 13.1146 127.958 13.5 127.812 13.9375C127.667 14.375 127.594 14.8229 127.594 15.2812C127.594 15.4479 127.604 15.5729 127.625 15.6562ZM149.188 5.84375V22.0312H146.75V2.34375L149.75 1.90625L154.562 14.4062L160.188 2.28125L162.562 2.46875L164.062 22.5312H161.938L160.812 6.09375L155.125 17.7188L153.75 17.5312L149.188 5.84375ZM177.312 12.7812L179.312 21.2812L177.438 21.9688L176.312 16.6562C176.167 17.2396 175.938 17.8438 175.625 18.4688C175.333 19.0938 174.958 19.6667 174.5 20.1875C174.062 20.6875 173.531 21.1042 172.906 21.4375C172.302 21.75 171.615 21.9062 170.844 21.9062C169.469 21.9062 168.417 21.4688 167.688 20.5938C166.979 19.6979 166.625 18.4688 166.625 16.9062C166.625 16.0104 166.76 15.0833 167.031 14.125C167.302 13.1458 167.708 12.2604 168.25 11.4688C168.792 10.6771 169.469 10.0208 170.281 9.5C171.115 8.97917 172.083 8.71875 173.188 8.71875C173.833 8.71875 174.396 8.86458 174.875 9.15625C175.375 9.42708 175.792 9.77083 176.125 10.1875C176.458 10.6042 176.719 11.0521 176.906 11.5312C177.094 11.9896 177.229 12.4062 177.312 12.7812ZM173.5 10.9688C173.354 10.9271 173.208 10.8958 173.062 10.875C172.938 10.8542 172.802 10.8438 172.656 10.8438C172.01 10.8438 171.427 11.0417 170.906 11.4375C170.406 11.8125 169.979 12.2917 169.625 12.875C169.292 13.4583 169.031 14.0938 168.844 14.7812C168.677 15.4688 168.594 16.1042 168.594 16.6875C168.594 17.6042 168.792 18.3438 169.188 18.9062C169.583 19.4688 170.208 19.75 171.062 19.75C171.646 19.75 172.188 19.5625 172.688 19.1875C173.188 18.7917 173.615 18.3021 173.969 17.7188C174.323 17.1354 174.594 16.5 174.781 15.8125C174.99 15.1042 175.094 14.4479 175.094 13.8438C175.094 13.1771 174.958 12.5938 174.688 12.0938C174.438 11.5729 174.042 11.1979 173.5 10.9688ZM183.188 22.7188L182.125 8.96875L184.062 8.71875L184.5 14.7812L191.188 10.2812L192.062 12.0312L184.812 17.2812V22.5312L183.188 22.7188ZM194.25 22.0938V10.6562H196.438V22.2188L194.25 22.0938ZM197.125 8.09375L194.938 8.71875L192.938 3.96875L195.125 3.40625L197.125 8.09375ZM204.375 11.0312C203.229 11.0312 202.323 11.3854 201.656 12.0938C201.01 12.8021 200.688 13.9375 200.688 15.5C200.688 16.1042 200.771 16.7083 200.938 17.3125C201.104 17.8958 201.344 18.4271 201.656 18.9062C201.969 19.3854 202.344 19.7812 202.781 20.0938C203.219 20.3854 203.708 20.5312 204.25 20.5312C204.812 20.5312 205.323 20.3958 205.781 20.125C206.24 19.8542 206.625 19.5104 206.938 19.0938C207.25 18.6562 207.49 18.1771 207.656 17.6562C207.844 17.1146 207.938 16.5938 207.938 16.0938C207.938 14.2604 207.604 12.9583 206.938 12.1875C206.292 11.4167 205.438 11.0312 204.375 11.0312ZM204.188 8.90625C205.229 8.90625 206.115 9.09375 206.844 9.46875C207.573 9.84375 208.167 10.3646 208.625 11.0312C209.083 11.6771 209.417 12.4375 209.625 13.3125C209.833 14.1667 209.938 15.0938 209.938 16.0938C209.896 17.2188 209.708 18.1979 209.375 19.0312C209.062 19.8438 208.646 20.5208 208.125 21.0625C207.604 21.6042 207.01 22 206.344 22.25C205.698 22.5208 205.021 22.6562 204.312 22.6562C203.375 22.6562 202.552 22.4688 201.844 22.0938C201.156 21.7188 200.573 21.2188 200.094 20.5938C199.635 19.9479 199.281 19.2188 199.031 18.4062C198.802 17.5729 198.688 16.6979 198.688 15.7812C198.688 14.8021 198.812 13.8958 199.062 13.0625C199.333 12.2083 199.698 11.4792 200.156 10.875C200.635 10.25 201.208 9.77083 201.875 9.4375C202.562 9.08333 203.333 8.90625 204.188 8.90625ZM220.062 11.8438H214V21.8438L212.438 22.0312V8.59375L213.938 8.28125V9.84375L221.188 9.40625L222.125 11.2812L223.062 21.4688L221.062 22.0312L220.062 11.8438Z" fill="#EE8159"/>
</svg>
