<svg width="153" height="28" viewBox="0 0 153 28" fill="none" xmlns="http://www.w3.org/2000/svg">
<path d="M15.9375 12.9062C15.875 13.6146 15.8021 14.3958 15.7188 15.25C15.6562 16.0833 15.5938 16.9479 15.5312 17.8438L15.125 23.1562L13.1875 22.9688L13.625 17.0938C13.4792 17.3021 13.2396 17.5625 12.9062 17.875C12.5938 18.1875 12.1979 18.4896 11.7188 18.7812C11.2396 19.0521 10.6875 19.2917 10.0625 19.5C9.4375 19.7083 8.76042 19.8125 8.03125 19.8125C7.03125 19.8125 6.09375 19.6146 5.21875 19.2188C4.36458 18.8229 3.625 18.2708 3 17.5625C2.375 16.8542 1.875 16.0104 1.5 15.0312C1.14583 14.0312 0.96875 12.9375 0.96875 11.75C0.96875 10.1667 1.16667 8.69792 1.5625 7.34375C1.97917 5.96875 2.54167 4.78125 3.25 3.78125C3.97917 2.76042 4.84375 1.96875 5.84375 1.40625C6.84375 0.822917 7.9375 0.53125 9.125 0.53125C9.83333 0.53125 10.4896 0.625 11.0938 0.8125C11.7188 0.979167 12.2708 1.20833 12.75 1.5C13.2292 1.77083 13.6354 2.09375 13.9688 2.46875C14.3021 2.84375 14.5417 3.21875 14.6875 3.59375L13 4.46875C12.5833 3.80208 12.0521 3.3125 11.4062 3C10.7604 2.6875 10.0833 2.53125 9.375 2.53125C8.5 2.53125 7.67708 2.75 6.90625 3.1875C6.15625 3.60417 5.5 4.20833 4.9375 5C4.39583 5.77083 3.95833 6.70833 3.625 7.8125C3.3125 8.89583 3.15625 10.0938 3.15625 11.4062C3.15625 12.2188 3.26042 13.0104 3.46875 13.7812C3.69792 14.5312 4.02083 15.1979 4.4375 15.7812C4.875 16.3438 5.41667 16.8021 6.0625 17.1562C6.70833 17.4896 7.46875 17.6562 8.34375 17.6562C9.01042 17.6562 9.64583 17.5208 10.25 17.25C10.875 16.9792 11.4271 16.625 11.9062 16.1875C12.3854 15.75 12.7708 15.25 13.0625 14.6875C13.375 14.1042 13.5625 13.5104 13.625 12.9062H8.25V10.9062H19.3125V12.9062H15.9375ZM22.1875 22.0938V10.6562H24.375V22.2188L22.1875 22.0938ZM25.0625 8.09375L22.875 8.71875L20.875 3.96875L23.0625 3.40625L25.0625 8.09375ZM28.625 22.7188L27.5625 8.96875L29.5 8.71875L29.9375 14.7812L36.625 10.2812L37.5 12.0312L30.25 17.2812V22.5312L28.625 22.7188ZM44.125 11.0312C42.9792 11.0312 42.0729 11.3854 41.4062 12.0938C40.7604 12.8021 40.4375 13.9375 40.4375 15.5C40.4375 16.1042 40.5208 16.7083 40.6875 17.3125C40.8542 17.8958 41.0938 18.4271 41.4062 18.9062C41.7188 19.3854 42.0938 19.7812 42.5312 20.0938C42.9688 20.3854 43.4583 20.5312 44 20.5312C44.5625 20.5312 45.0729 20.3958 45.5312 20.125C45.9896 19.8542 46.375 19.5104 46.6875 19.0938C47 18.6562 47.2396 18.1771 47.4062 17.6562C47.5938 17.1146 47.6875 16.5938 47.6875 16.0938C47.6875 14.2604 47.3542 12.9583 46.6875 12.1875C46.0417 11.4167 45.1875 11.0312 44.125 11.0312ZM43.9375 8.90625C44.9792 8.90625 45.8646 9.09375 46.5938 9.46875C47.3229 9.84375 47.9167 10.3646 48.375 11.0312C48.8333 11.6771 49.1667 12.4375 49.375 13.3125C49.5833 14.1667 49.6875 15.0938 49.6875 16.0938C49.6458 17.2188 49.4583 18.1979 49.125 19.0312C48.8125 19.8438 48.3958 20.5208 47.875 21.0625C47.3542 21.6042 46.7604 22 46.0938 22.25C45.4479 22.5208 44.7708 22.6562 44.0625 22.6562C43.125 22.6562 42.3021 22.4688 41.5938 22.0938C40.9062 21.7188 40.3229 21.2188 39.8438 20.5938C39.3854 19.9479 39.0312 19.2188 38.7812 18.4062C38.5521 17.5729 38.4375 16.6979 38.4375 15.7812C38.4375 14.8021 38.5625 13.8958 38.8125 13.0625C39.0833 12.2083 39.4479 11.4792 39.9062 10.875C40.3854 10.25 40.9583 9.77083 41.625 9.4375C42.3125 9.08333 43.0833 8.90625 43.9375 8.90625ZM59.8125 11.8438H53.75V21.8438L52.1875 22.0312V8.59375L53.6875 8.28125V9.84375L60.9375 9.40625L61.875 11.2812L62.8125 21.4688L60.8125 22.0312L59.8125 11.8438ZM84.375 10.4688V2.03125H86.1875V21.9688H84.8125V12.3438H75.5625V21.9688H73V2.09375H75.9375V10.4688H84.375ZM95.0625 11.0312C93.9167 11.0312 93.0104 11.3854 92.3438 12.0938C91.6979 12.8021 91.375 13.9375 91.375 15.5C91.375 16.1042 91.4583 16.7083 91.625 17.3125C91.7917 17.8958 92.0312 18.4271 92.3438 18.9062C92.6562 19.3854 93.0312 19.7812 93.4688 20.0938C93.9062 20.3854 94.3958 20.5312 94.9375 20.5312C95.5 20.5312 96.0104 20.3958 96.4688 20.125C96.9271 19.8542 97.3125 19.5104 97.625 19.0938C97.9375 18.6562 98.1771 18.1771 98.3438 17.6562C98.5312 17.1146 98.625 16.5938 98.625 16.0938C98.625 14.2604 98.2917 12.9583 97.625 12.1875C96.9792 11.4167 96.125 11.0312 95.0625 11.0312ZM94.875 8.90625C95.9167 8.90625 96.8021 9.09375 97.5312 9.46875C98.2604 9.84375 98.8542 10.3646 99.3125 11.0312C99.7708 11.6771 100.104 12.4375 100.312 13.3125C100.521 14.1667 100.625 15.0938 100.625 16.0938C100.583 17.2188 100.396 18.1979 100.062 19.0312C99.75 19.8438 99.3333 20.5208 98.8125 21.0625C98.2917 21.6042 97.6979 22 97.0312 22.25C96.3854 22.5208 95.7083 22.6562 95 22.6562C94.0625 22.6562 93.2396 22.4688 92.5312 22.0938C91.8438 21.7188 91.2604 21.2188 90.7812 20.5938C90.3229 19.9479 89.9688 19.2188 89.7188 18.4062C89.4896 17.5729 89.375 16.6979 89.375 15.7812C89.375 14.8021 89.5 13.8958 89.75 13.0625C90.0208 12.2083 90.3854 11.4792 90.8438 10.875C91.3229 10.25 91.8958 9.77083 92.5625 9.4375C93.25 9.08333 94.0208 8.90625 94.875 8.90625ZM102.5 20.3438V1.46875L104.562 1.34375V19.5312L106.625 20.0312L106.438 22.2812L103 21.5938L102.5 20.3438ZM119.562 0.71875V20.8438L118.75 21.8438C118.062 22.0521 117.417 22.1979 116.812 22.2812C116.208 22.3646 115.635 22.4062 115.094 22.4062C113.823 22.4062 112.75 22.2083 111.875 21.8125C111.021 21.4167 110.323 20.8958 109.781 20.25C109.24 19.6042 108.844 18.8854 108.594 18.0938C108.365 17.3021 108.25 16.5 108.25 15.6875C108.25 14.5417 108.427 13.5729 108.781 12.7812C109.135 11.9688 109.594 11.3021 110.156 10.7812C110.74 10.2604 111.385 9.88542 112.094 9.65625C112.823 9.40625 113.562 9.28125 114.312 9.28125C115.542 9.28125 116.646 9.55208 117.625 10.0938L117.562 0.65625L119.562 0.71875ZM117.5 12.8438C117.021 12.4062 116.5 12.0833 115.938 11.875C115.375 11.6458 114.802 11.5312 114.219 11.5312C113.719 11.5312 113.229 11.625 112.75 11.8125C112.292 11.9792 111.885 12.2396 111.531 12.5938C111.177 12.9271 110.885 13.3542 110.656 13.875C110.448 14.375 110.344 14.9688 110.344 15.6562C110.344 16.4479 110.479 17.125 110.75 17.6875C111.021 18.25 111.375 18.7083 111.812 19.0625C112.271 19.4167 112.792 19.6875 113.375 19.875C113.979 20.0417 114.604 20.125 115.25 20.125C116.083 20.125 116.833 19.9688 117.5 19.6562V12.8438ZM122.75 22.0938V10.6562H124.938V22.2188L122.75 22.0938ZM125.625 8.09375L123.438 8.71875L121.438 3.96875L123.625 3.40625L125.625 8.09375ZM136.188 11.8438H130.125V21.8438L128.562 22.0312V8.59375L130.062 8.28125V9.84375L137.312 9.40625L138.25 11.2812L139.188 21.4688L137.188 22.0312L136.188 11.8438ZM142.594 17.2188C142.74 17.8646 143.021 18.3229 143.438 18.5938C143.854 18.8646 144.323 19 144.844 19C145.406 19 146 18.8646 146.625 18.5938C147.271 18.3229 147.865 17.9688 148.406 17.5312C148.948 17.0729 149.396 16.5521 149.75 15.9688C150.125 15.3854 150.312 14.7812 150.312 14.1562C150.312 13.4062 150.073 12.7812 149.594 12.2812C149.135 11.7812 148.552 11.5312 147.844 11.5312C147.281 11.5521 146.688 11.6979 146.062 11.9688C145.438 12.2188 144.854 12.5625 144.312 13C143.792 13.4375 143.354 13.9479 143 14.5312C142.646 15.0938 142.469 15.7083 142.469 16.375C142.469 16.6875 142.51 16.9688 142.594 17.2188ZM150.031 27.9062H140.406V25.4688H148.906L150.219 24.3438L150.094 18.7812C149.552 19.5312 148.802 20.1146 147.844 20.5312C146.885 20.9271 145.906 21.125 144.906 21.125C143.615 21.125 142.542 20.7188 141.688 19.9062C140.854 19.0729 140.438 17.8646 140.438 16.2812C140.438 15.3229 140.646 14.4375 141.062 13.625C141.5 12.7917 142.073 12.0833 142.781 11.5C143.49 10.8958 144.281 10.4271 145.156 10.0938C146.052 9.76042 146.969 9.59375 147.906 9.59375C148.906 9.59375 149.802 9.84375 150.594 10.3438C151.406 10.8229 151.948 11.5938 152.219 12.6562V25.5312L150.031 27.9062Z" fill="#EE8159"/>
</svg>
