<svg width="159" height="27" viewBox="0 0 159 27" fill="none" xmlns="http://www.w3.org/2000/svg">
<path d="M1.75 21.7188L0.75 20.4688C0.625 17.3438 0.53125 14.2917 0.46875 11.3125C0.427083 8.33333 0.354167 5.28125 0.25 2.15625L1.1875 1.03125C1.5625 0.989583 1.92708 0.958333 2.28125 0.9375C2.65625 0.916667 3.02083 0.90625 3.375 0.90625C4.83333 0.90625 6.16667 1.09375 7.375 1.46875C8.60417 1.84375 9.65625 2.4375 10.5312 3.25C11.4062 4.0625 12.0833 5.10417 12.5625 6.375C13.0625 7.64583 13.3125 9.16667 13.3125 10.9375C13.3125 12.5208 13.0208 13.9792 12.4375 15.3125C11.875 16.625 11.0938 17.7604 10.0938 18.7188C9.09375 19.6562 7.91667 20.3958 6.5625 20.9375C5.22917 21.4583 3.79167 21.7188 2.25 21.7188H1.75ZM2.1875 2.96875L2.8125 19.6562C4.02083 19.5312 5.14583 19.2396 6.1875 18.7812C7.22917 18.3021 8.125 17.6875 8.875 16.9375C9.64583 16.1875 10.2396 15.3125 10.6562 14.3125C11.0938 13.2917 11.3125 12.1875 11.3125 11C11.3125 9.72917 11.1562 8.59375 10.8438 7.59375C10.5521 6.59375 10.0729 5.75 9.40625 5.0625C8.76042 4.375 7.91667 3.85417 6.875 3.5C5.83333 3.125 4.58333 2.9375 3.125 2.9375C2.97917 2.9375 2.82292 2.94792 2.65625 2.96875C2.51042 2.96875 2.35417 2.96875 2.1875 2.96875ZM26.375 11.7812L28.375 20.2812L26.5 20.9688L25.375 15.6562C25.2292 16.2396 25 16.8438 24.6875 17.4688C24.3958 18.0938 24.0208 18.6667 23.5625 19.1875C23.125 19.6875 22.5938 20.1042 21.9688 20.4375C21.3646 20.75 20.6771 20.9062 19.9062 20.9062C18.5312 20.9062 17.4792 20.4688 16.75 19.5938C16.0417 18.6979 15.6875 17.4688 15.6875 15.9062C15.6875 15.0104 15.8229 14.0833 16.0938 13.125C16.3646 12.1458 16.7708 11.2604 17.3125 10.4688C17.8542 9.67708 18.5312 9.02083 19.3438 8.5C20.1771 7.97917 21.1458 7.71875 22.25 7.71875C22.8958 7.71875 23.4583 7.86458 23.9375 8.15625C24.4375 8.42708 24.8542 8.77083 25.1875 9.1875C25.5208 9.60417 25.7812 10.0521 25.9688 10.5312C26.1562 10.9896 26.2917 11.4062 26.375 11.7812ZM22.5625 9.96875C22.4167 9.92708 22.2708 9.89583 22.125 9.875C22 9.85417 21.8646 9.84375 21.7188 9.84375C21.0729 9.84375 20.4896 10.0417 19.9688 10.4375C19.4688 10.8125 19.0417 11.2917 18.6875 11.875C18.3542 12.4583 18.0938 13.0938 17.9062 13.7812C17.7396 14.4688 17.6562 15.1042 17.6562 15.6875C17.6562 16.6042 17.8542 17.3438 18.25 17.9062C18.6458 18.4688 19.2708 18.75 20.125 18.75C20.7083 18.75 21.25 18.5625 21.75 18.1875C22.25 17.7917 22.6771 17.3021 23.0312 16.7188C23.3854 16.1354 23.6562 15.5 23.8438 14.8125C24.0521 14.1042 24.1562 13.4479 24.1562 12.8438C24.1562 12.1771 24.0208 11.5938 23.75 11.0938C23.5 10.5729 23.1042 10.1979 22.5625 9.96875ZM32.25 21.7188L31.1875 7.96875L33.125 7.71875L33.5625 13.7812L40.25 9.28125L41.125 11.0312L33.875 16.2812V21.5312L32.25 21.7188ZM51.0625 10.8438H45V20.8438L43.4375 21.0312V7.59375L44.9375 7.28125V8.84375L52.1875 8.40625L53.125 10.2812L54.0625 20.4688L52.0625 21.0312L51.0625 10.8438ZM55.75 14.5938C55.75 13.4479 55.9167 12.4896 56.25 11.7188C56.5833 10.9271 57 10.3021 57.5 9.84375C58.0208 9.36458 58.5938 9.03125 59.2188 8.84375C59.8438 8.63542 60.4479 8.53125 61.0312 8.53125C61.8646 8.53125 62.6146 8.65625 63.2812 8.90625C63.9479 9.13542 64.5104 9.53125 64.9688 10.0938C65.4479 10.6354 65.8125 11.3646 66.0625 12.2812C66.3125 13.1979 66.4375 14.3229 66.4375 15.6562L57.75 16.5C57.8125 17.0833 57.9688 17.5833 58.2188 18C58.4896 18.3958 58.8229 18.7188 59.2188 18.9688C59.6146 19.2188 60.0417 19.3958 60.5 19.5C60.9583 19.6042 61.4271 19.6562 61.9062 19.6562C62.6979 19.6562 63.4583 19.5417 64.1875 19.3125C64.9167 19.0833 65.4583 18.8021 65.8125 18.4688L66.375 19.9688C66.2292 20.1771 66.0104 20.3854 65.7188 20.5938C65.4271 20.8021 65.0833 20.9792 64.6875 21.125C64.2917 21.2917 63.8438 21.4167 63.3438 21.5C62.8646 21.6042 62.3646 21.6562 61.8438 21.6562C61.1146 21.6562 60.3854 21.5417 59.6562 21.3125C58.9271 21.0833 58.2708 20.6979 57.6875 20.1562C57.1042 19.6146 56.6354 18.8958 56.2812 18C55.9271 17.0833 55.75 15.9479 55.75 14.5938ZM57.5625 14.6562L64.4375 13.9062C64.4375 12.8854 64.1667 12.0729 63.625 11.4688C63.0833 10.8438 62.2083 10.5312 61 10.5312C60.4167 10.5521 59.9062 10.6771 59.4688 10.9062C59.0521 11.1354 58.6979 11.4271 58.4062 11.7812C58.1146 12.1146 57.8958 12.5 57.75 12.9375C57.6042 13.375 57.5312 13.8229 57.5312 14.2812C57.5312 14.4479 57.5417 14.5729 57.5625 14.6562ZM70.9375 20.3438V10.875H67.75L67.9375 8.59375H71.375V2.21875H73.5V8.71875H78.625V10.9688H73.2812V19.0938L78 18.2188L78.3125 20.3438L72.0625 21.6562L70.9375 20.3438ZM89.875 21.7188L88.875 20.4688C88.75 17.3438 88.6562 14.2917 88.5938 11.3125C88.5521 8.33333 88.4792 5.28125 88.375 2.15625L89.3125 1.03125C89.6875 0.989583 90.0521 0.958333 90.4062 0.9375C90.7812 0.916667 91.1458 0.90625 91.5 0.90625C92.9583 0.90625 94.2917 1.09375 95.5 1.46875C96.7292 1.84375 97.7812 2.4375 98.6562 3.25C99.5312 4.0625 100.208 5.10417 100.688 6.375C101.188 7.64583 101.438 9.16667 101.438 10.9375C101.438 12.5208 101.146 13.9792 100.562 15.3125C100 16.625 99.2188 17.7604 98.2188 18.7188C97.2188 19.6562 96.0417 20.3958 94.6875 20.9375C93.3542 21.4583 91.9167 21.7188 90.375 21.7188H89.875ZM90.3125 2.96875L90.9375 19.6562C92.1458 19.5312 93.2708 19.2396 94.3125 18.7812C95.3542 18.3021 96.25 17.6875 97 16.9375C97.7708 16.1875 98.3646 15.3125 98.7812 14.3125C99.2188 13.2917 99.4375 12.1875 99.4375 11C99.4375 9.72917 99.2812 8.59375 98.9688 7.59375C98.6771 6.59375 98.1979 5.75 97.5312 5.0625C96.8854 4.375 96.0417 3.85417 95 3.5C93.9583 3.125 92.7083 2.9375 91.25 2.9375C91.1042 2.9375 90.9479 2.94792 90.7812 2.96875C90.6354 2.96875 90.4792 2.96875 90.3125 2.96875ZM103.25 14.5938C103.25 13.4479 103.417 12.4896 103.75 11.7188C104.083 10.9271 104.5 10.3021 105 9.84375C105.521 9.36458 106.094 9.03125 106.719 8.84375C107.344 8.63542 107.948 8.53125 108.531 8.53125C109.365 8.53125 110.115 8.65625 110.781 8.90625C111.448 9.13542 112.01 9.53125 112.469 10.0938C112.948 10.6354 113.312 11.3646 113.562 12.2812C113.812 13.1979 113.938 14.3229 113.938 15.6562L105.25 16.5C105.312 17.0833 105.469 17.5833 105.719 18C105.99 18.3958 106.323 18.7188 106.719 18.9688C107.115 19.2188 107.542 19.3958 108 19.5C108.458 19.6042 108.927 19.6562 109.406 19.6562C110.198 19.6562 110.958 19.5417 111.688 19.3125C112.417 19.0833 112.958 18.8021 113.312 18.4688L113.875 19.9688C113.729 20.1771 113.51 20.3854 113.219 20.5938C112.927 20.8021 112.583 20.9792 112.188 21.125C111.792 21.2917 111.344 21.4167 110.844 21.5C110.365 21.6042 109.865 21.6562 109.344 21.6562C108.615 21.6562 107.885 21.5417 107.156 21.3125C106.427 21.0833 105.771 20.6979 105.188 20.1562C104.604 19.6146 104.135 18.8958 103.781 18C103.427 17.0833 103.25 15.9479 103.25 14.5938ZM105.062 14.6562L111.938 13.9062C111.938 12.8854 111.667 12.0729 111.125 11.4688C110.583 10.8438 109.708 10.5312 108.5 10.5312C107.917 10.5521 107.406 10.6771 106.969 10.9062C106.552 11.1354 106.198 11.4271 105.906 11.7812C105.615 12.1146 105.396 12.5 105.25 12.9375C105.104 13.375 105.031 13.8229 105.031 14.2812C105.031 14.4479 105.042 14.5729 105.062 14.6562ZM124.688 9.09375L124.25 10.9688C124.083 10.8854 123.854 10.8021 123.562 10.7188C123.292 10.6146 122.979 10.5208 122.625 10.4375C122.292 10.3542 121.927 10.2917 121.531 10.25C121.156 10.1875 120.802 10.1562 120.469 10.1562C119.844 10.1562 119.302 10.25 118.844 10.4375C118.406 10.625 118.188 10.9583 118.188 11.4375C118.188 11.7917 118.375 12.0938 118.75 12.3438C119.125 12.5938 119.562 12.8125 120.062 13C120.583 13.1667 121.094 13.3021 121.594 13.4062C122.115 13.5104 122.521 13.5938 122.812 13.6562C123.438 13.8438 123.938 14.0938 124.312 14.4062C124.708 14.6979 125.01 15.0208 125.219 15.375C125.448 15.7083 125.604 16.0625 125.688 16.4375C125.771 16.8125 125.812 17.1771 125.812 17.5312C125.812 18.2812 125.635 18.9167 125.281 19.4375C124.948 19.9375 124.51 20.3542 123.969 20.6875C123.448 21 122.854 21.2292 122.188 21.375C121.542 21.5208 120.896 21.5938 120.25 21.5938C119.25 21.5938 118.292 21.4583 117.375 21.1875C116.479 20.9167 115.771 20.5521 115.25 20.0938L116 17.9688C116.25 18.1771 116.542 18.375 116.875 18.5625C117.229 18.7292 117.615 18.8854 118.031 19.0312C118.448 19.1562 118.885 19.2604 119.344 19.3438C119.802 19.4062 120.25 19.4375 120.688 19.4375C121.438 19.4375 122.104 19.2917 122.688 19C123.271 18.7083 123.625 18.1979 123.75 17.4688C123.75 17.3438 123.729 17.1875 123.688 17C123.667 16.7917 123.594 16.5938 123.469 16.4062C123.365 16.2188 123.188 16.0417 122.938 15.875C122.708 15.7083 122.375 15.5938 121.938 15.5312C121.083 15.4062 120.292 15.2396 119.562 15.0312C118.854 14.8229 118.24 14.5625 117.719 14.25C117.198 13.9375 116.781 13.5625 116.469 13.125C116.177 12.6667 116.031 12.1354 116.031 11.5312C116.031 10.3646 116.417 9.52083 117.188 9C117.958 8.47917 119.094 8.21875 120.594 8.21875C121.385 8.21875 122.146 8.30208 122.875 8.46875C123.625 8.63542 124.229 8.84375 124.688 9.09375ZM128.125 21.0938V9.65625H130.312V21.2188L128.125 21.0938ZM131 7.09375L128.812 7.71875L126.812 2.96875L129 2.40625L131 7.09375ZM134.719 16.2188C134.865 16.8646 135.146 17.3229 135.562 17.5938C135.979 17.8646 136.448 18 136.969 18C137.531 18 138.125 17.8646 138.75 17.5938C139.396 17.3229 139.99 16.9688 140.531 16.5312C141.073 16.0729 141.521 15.5521 141.875 14.9688C142.25 14.3854 142.438 13.7812 142.438 13.1562C142.438 12.4062 142.198 11.7812 141.719 11.2812C141.26 10.7812 140.677 10.5312 139.969 10.5312C139.406 10.5521 138.812 10.6979 138.188 10.9688C137.562 11.2188 136.979 11.5625 136.438 12C135.917 12.4375 135.479 12.9479 135.125 13.5312C134.771 14.0938 134.594 14.7083 134.594 15.375C134.594 15.6875 134.635 15.9688 134.719 16.2188ZM142.156 26.9062H132.531V24.4688H141.031L142.344 23.3438L142.219 17.7812C141.677 18.5312 140.927 19.1146 139.969 19.5312C139.01 19.9271 138.031 20.125 137.031 20.125C135.74 20.125 134.667 19.7188 133.812 18.9062C132.979 18.0729 132.562 16.8646 132.562 15.2812C132.562 14.3229 132.771 13.4375 133.188 12.625C133.625 11.7917 134.198 11.0833 134.906 10.5C135.615 9.89583 136.406 9.42708 137.281 9.09375C138.177 8.76042 139.094 8.59375 140.031 8.59375C141.031 8.59375 141.927 8.84375 142.719 9.34375C143.531 9.82292 144.073 10.5938 144.344 11.6562V24.5312L142.156 26.9062ZM155.188 10.8438H149.125V20.8438L147.562 21.0312V7.59375L149.062 7.28125V8.84375L156.312 8.40625L157.25 10.2812L158.188 20.4688L156.188 21.0312L155.188 10.8438Z" fill="#EE8159"/>
</svg>
