<svg width="156" height="21" viewBox="0 0 156 21" fill="none" xmlns="http://www.w3.org/2000/svg">
<path d="M13.8125 17.8438V20.0312H1.9375L0.8125 18.5312V2.03125L2.0625 0.21875H12.125V2.03125H3V9.03125H12.75V10.7188H2.875V17.8438H13.8125ZM27.125 10.7812L29.125 19.2812L27.25 19.9688L26.125 14.6562C25.9792 15.2396 25.75 15.8438 25.4375 16.4688C25.1458 17.0938 24.7708 17.6667 24.3125 18.1875C23.875 18.6875 23.3438 19.1042 22.7188 19.4375C22.1146 19.75 21.4271 19.9062 20.6562 19.9062C19.2812 19.9062 18.2292 19.4688 17.5 18.5938C16.7917 17.6979 16.4375 16.4688 16.4375 14.9062C16.4375 14.0104 16.5729 13.0833 16.8438 12.125C17.1146 11.1458 17.5208 10.2604 18.0625 9.46875C18.6042 8.67708 19.2812 8.02083 20.0938 7.5C20.9271 6.97917 21.8958 6.71875 23 6.71875C23.6458 6.71875 24.2083 6.86458 24.6875 7.15625C25.1875 7.42708 25.6042 7.77083 25.9375 8.1875C26.2708 8.60417 26.5312 9.05208 26.7188 9.53125C26.9062 9.98958 27.0417 10.4062 27.125 10.7812ZM23.3125 8.96875C23.1667 8.92708 23.0208 8.89583 22.875 8.875C22.75 8.85417 22.6146 8.84375 22.4688 8.84375C21.8229 8.84375 21.2396 9.04167 20.7188 9.4375C20.2188 9.8125 19.7917 10.2917 19.4375 10.875C19.1042 11.4583 18.8438 12.0938 18.6562 12.7812C18.4896 13.4688 18.4062 14.1042 18.4062 14.6875C18.4062 15.6042 18.6042 16.3438 19 16.9062C19.3958 17.4688 20.0208 17.75 20.875 17.75C21.4583 17.75 22 17.5625 22.5 17.1875C23 16.7917 23.4271 16.3021 23.7812 15.7188C24.1354 15.1354 24.4062 14.5 24.5938 13.8125C24.8021 13.1042 24.9062 12.4479 24.9062 11.8438C24.9062 11.1771 24.7708 10.5938 24.5 10.0938C24.25 9.57292 23.8542 9.19792 23.3125 8.96875ZM31.875 6.90625L33.625 7.34375C33.4375 8.40625 33.2812 9.42708 33.1562 10.4062C33.0521 11.3854 33 12.3021 33 13.1562C33 13.9479 33.0417 14.6562 33.125 15.2812C33.2292 15.9062 33.3958 16.4479 33.625 16.9062C33.8542 17.3646 34.1562 17.7188 34.5312 17.9688C34.9271 18.1979 35.4167 18.3125 36 18.3125C36.3958 18.3125 36.7708 18.2083 37.125 18C37.5 17.7708 37.8333 17.4062 38.125 16.9062C38.4375 16.4062 38.6875 15.75 38.875 14.9375C39.0625 14.1042 39.1875 13.0729 39.25 11.8438L39.375 7.40625L41.125 7.53125V19.8438L39.5625 20.0312L39.5 17.6562C39.2292 18.6146 38.7396 19.3438 38.0312 19.8438C37.3229 20.3229 36.5 20.5625 35.5625 20.5625C34.7917 20.5625 34.125 20.3854 33.5625 20.0312C33 19.6979 32.5312 19.2292 32.1562 18.625C31.8021 18.0208 31.5312 17.2917 31.3438 16.4375C31.1771 15.5833 31.0938 14.6458 31.0938 13.625C31.0938 12.6875 31.1562 11.6667 31.2812 10.5625C31.4271 9.4375 31.625 8.21875 31.875 6.90625ZM46.0625 19.3438V9.875H42.875L43.0625 7.59375H46.5V1.21875H48.625V7.71875H53.75V9.96875H48.4062V18.0938L53.125 17.2188L53.4375 19.3438L47.1875 20.6562L46.0625 19.3438ZM56.8125 20.7188L55.75 6.96875L57.6875 6.71875L58.125 12.7812L64.8125 8.28125L65.6875 10.0312L58.4375 15.2812V20.5312L56.8125 20.7188ZM67.0625 13.5938C67.0625 12.4479 67.2292 11.4896 67.5625 10.7188C67.8958 9.92708 68.3125 9.30208 68.8125 8.84375C69.3333 8.36458 69.9062 8.03125 70.5312 7.84375C71.1562 7.63542 71.7604 7.53125 72.3438 7.53125C73.1771 7.53125 73.9271 7.65625 74.5938 7.90625C75.2604 8.13542 75.8229 8.53125 76.2812 9.09375C76.7604 9.63542 77.125 10.3646 77.375 11.2812C77.625 12.1979 77.75 13.3229 77.75 14.6562L69.0625 15.5C69.125 16.0833 69.2812 16.5833 69.5312 17C69.8021 17.3958 70.1354 17.7188 70.5312 17.9688C70.9271 18.2188 71.3542 18.3958 71.8125 18.5C72.2708 18.6042 72.7396 18.6562 73.2188 18.6562C74.0104 18.6562 74.7708 18.5417 75.5 18.3125C76.2292 18.0833 76.7708 17.8021 77.125 17.4688L77.6875 18.9688C77.5417 19.1771 77.3229 19.3854 77.0312 19.5938C76.7396 19.8021 76.3958 19.9792 76 20.125C75.6042 20.2917 75.1562 20.4167 74.6562 20.5C74.1771 20.6042 73.6771 20.6562 73.1562 20.6562C72.4271 20.6562 71.6979 20.5417 70.9688 20.3125C70.2396 20.0833 69.5833 19.6979 69 19.1562C68.4167 18.6146 67.9479 17.8958 67.5938 17C67.2396 16.0833 67.0625 14.9479 67.0625 13.5938ZM68.875 13.6562L75.75 12.9062C75.75 11.8854 75.4792 11.0729 74.9375 10.4688C74.3958 9.84375 73.5208 9.53125 72.3125 9.53125C71.7292 9.55208 71.2188 9.67708 70.7812 9.90625C70.3646 10.1354 70.0104 10.4271 69.7188 10.7812C69.4271 11.1146 69.2083 11.5 69.0625 11.9375C68.9167 12.375 68.8438 12.8229 68.8438 13.2812C68.8438 13.4479 68.8542 13.5729 68.875 13.6562ZM91.4375 20.2812L87.6875 7.21875H89.875L92.6875 17.2812L97.5625 6.96875L99.5625 7.40625L93.625 20.2812H91.4375ZM102.188 20.0938V8.65625H104.375V20.2188L102.188 20.0938ZM105.062 6.09375L102.875 6.71875L100.875 1.96875L103.062 1.40625L105.062 6.09375ZM107.062 13.5938C107.062 12.4479 107.229 11.4896 107.562 10.7188C107.896 9.92708 108.312 9.30208 108.812 8.84375C109.333 8.36458 109.906 8.03125 110.531 7.84375C111.156 7.63542 111.76 7.53125 112.344 7.53125C113.177 7.53125 113.927 7.65625 114.594 7.90625C115.26 8.13542 115.823 8.53125 116.281 9.09375C116.76 9.63542 117.125 10.3646 117.375 11.2812C117.625 12.1979 117.75 13.3229 117.75 14.6562L109.062 15.5C109.125 16.0833 109.281 16.5833 109.531 17C109.802 17.3958 110.135 17.7188 110.531 17.9688C110.927 18.2188 111.354 18.3958 111.812 18.5C112.271 18.6042 112.74 18.6562 113.219 18.6562C114.01 18.6562 114.771 18.5417 115.5 18.3125C116.229 18.0833 116.771 17.8021 117.125 17.4688L117.688 18.9688C117.542 19.1771 117.323 19.3854 117.031 19.5938C116.74 19.8021 116.396 19.9792 116 20.125C115.604 20.2917 115.156 20.4167 114.656 20.5C114.177 20.6042 113.677 20.6562 113.156 20.6562C112.427 20.6562 111.698 20.5417 110.969 20.3125C110.24 20.0833 109.583 19.6979 109 19.1562C108.417 18.6146 107.948 17.8958 107.594 17C107.24 16.0833 107.062 14.9479 107.062 13.5938ZM108.875 13.6562L115.75 12.9062C115.75 11.8854 115.479 11.0729 114.938 10.4688C114.396 9.84375 113.521 9.53125 112.312 9.53125C111.729 9.55208 111.219 9.67708 110.781 9.90625C110.365 10.1354 110.01 10.4271 109.719 10.7812C109.427 11.1146 109.208 11.5 109.062 11.9375C108.917 12.375 108.844 12.8229 108.844 13.2812C108.844 13.4479 108.854 13.5729 108.875 13.6562ZM139.75 15.0312C139.708 14.5938 139.5 14.1562 139.125 13.7188C138.75 13.2604 138.292 12.8542 137.75 12.5C137.229 12.125 136.656 11.8333 136.031 11.625C135.406 11.3958 134.833 11.2812 134.312 11.2812C133.854 11.2812 133.354 11.4167 132.812 11.6875C132.271 11.9375 131.76 12.2708 131.281 12.6875C130.823 13.1042 130.438 13.5833 130.125 14.125C129.812 14.6667 129.656 15.2292 129.656 15.8125C129.656 16.25 129.729 16.6562 129.875 17.0312C130.042 17.3854 130.312 17.6979 130.688 17.9688C131.083 18.2188 131.594 18.4167 132.219 18.5625C132.865 18.7083 133.667 18.7812 134.625 18.7812C136.25 18.7188 137.51 18.3854 138.406 17.7812C139.302 17.1562 139.75 16.3229 139.75 15.2812V15.0312ZM133.938 1.90625C133.25 1.92708 132.667 2.03125 132.188 2.21875C131.708 2.40625 131.312 2.64583 131 2.9375C130.708 3.20833 130.49 3.52083 130.344 3.875C130.219 4.20833 130.156 4.54167 130.156 4.875C130.156 5.375 130.312 5.85417 130.625 6.3125C130.958 6.77083 131.344 7.1875 131.781 7.5625C132.219 7.9375 132.656 8.25 133.094 8.5C133.531 8.75 133.875 8.90625 134.125 8.96875C134.604 8.78125 135.062 8.55208 135.5 8.28125C135.958 8.01042 136.354 7.71875 136.688 7.40625C137.042 7.07292 137.323 6.70833 137.531 6.3125C137.74 5.91667 137.844 5.5 137.844 5.0625C137.844 4.10417 137.521 3.34375 136.875 2.78125C136.25 2.19792 135.375 1.90625 134.25 1.90625H133.938ZM135.938 9.90625C136.708 10.0312 137.448 10.25 138.156 10.5625C138.885 10.875 139.51 11.2708 140.031 11.75C140.573 12.2083 141 12.75 141.312 13.375C141.646 13.9792 141.812 14.6354 141.812 15.3438C141.812 16.3438 141.594 17.1875 141.156 17.875C140.74 18.5625 140.188 19.1146 139.5 19.5312C138.833 19.9479 138.073 20.25 137.219 20.4375C136.385 20.625 135.542 20.7188 134.688 20.7188C133.896 20.7188 133.083 20.6458 132.25 20.5C131.438 20.375 130.688 20.1354 130 19.7812C129.333 19.4062 128.781 18.8958 128.344 18.25C127.906 17.5833 127.688 16.7292 127.688 15.6875C127.688 14.9375 127.833 14.2604 128.125 13.6562C128.417 13.0312 128.792 12.4896 129.25 12.0312C129.708 11.5521 130.219 11.1458 130.781 10.8125C131.365 10.4792 131.938 10.2188 132.5 10.0312C131.917 9.88542 131.365 9.63542 130.844 9.28125C130.344 8.92708 129.896 8.52083 129.5 8.0625C129.125 7.58333 128.823 7.0625 128.594 6.5C128.365 5.9375 128.25 5.38542 128.25 4.84375C128.25 4.09375 128.385 3.42708 128.656 2.84375C128.948 2.23958 129.323 1.72917 129.781 1.3125C130.26 0.895833 130.812 0.583333 131.438 0.375C132.083 0.145833 132.75 0.03125 133.438 0.03125C134.271 0.03125 135.062 0.125 135.812 0.3125C136.562 0.5 137.219 0.802083 137.781 1.21875C138.365 1.61458 138.823 2.125 139.156 2.75C139.51 3.35417 139.688 4.07292 139.688 4.90625C139.688 5.61458 139.542 6.25 139.25 6.8125C138.979 7.375 138.646 7.875 138.25 8.3125C137.854 8.72917 137.438 9.07292 137 9.34375C136.583 9.61458 136.229 9.80208 135.938 9.90625ZM154.188 0.21875V2.03125H153.812C152.479 2.03125 151.271 2.3125 150.188 2.875C149.104 3.4375 148.177 4.15625 147.406 5.03125C146.635 5.90625 146.042 6.88542 145.625 7.96875C145.208 9.05208 145 10.1042 145 11.125C145 11.25 145 11.3854 145 11.5312C145.021 11.6562 145.042 11.7812 145.062 11.9062C145.188 11.4062 145.417 10.9688 145.75 10.5938C146.083 10.2188 146.49 9.90625 146.969 9.65625C147.448 9.38542 147.969 9.1875 148.531 9.0625C149.115 8.91667 149.688 8.84375 150.25 8.84375C151.062 8.84375 151.802 8.97917 152.469 9.25C153.156 9.52083 153.74 9.89583 154.219 10.375C154.698 10.8333 155.062 11.3854 155.312 12.0312C155.583 12.6771 155.719 13.3854 155.719 14.1562C155.719 14.9479 155.562 15.7083 155.25 16.4375C154.938 17.1458 154.5 17.7708 153.938 18.3125C153.375 18.8542 152.708 19.2917 151.938 19.625C151.188 19.9375 150.375 20.0938 149.5 20.0938C148.208 20.0938 147.146 19.8438 146.312 19.3438C145.5 18.8438 144.854 18.1979 144.375 17.4062C143.917 16.6146 143.604 15.7292 143.438 14.75C143.271 13.7708 143.188 12.8021 143.188 11.8438C143.188 10.3854 143.406 8.95833 143.844 7.5625C144.302 6.14583 144.948 4.89583 145.781 3.8125C146.635 2.70833 147.667 1.82292 148.875 1.15625C150.104 0.489583 151.5 0.15625 153.062 0.15625C153.25 0.15625 153.438 0.166667 153.625 0.1875C153.812 0.1875 154 0.197917 154.188 0.21875ZM153.625 12.5938C153.333 11.9896 152.875 11.5521 152.25 11.2812C151.625 10.9896 150.948 10.8438 150.219 10.8438C149.656 10.8438 149.094 10.9271 148.531 11.0938C147.99 11.2604 147.5 11.5104 147.062 11.8438C146.625 12.1562 146.26 12.5417 145.969 13C145.698 13.4375 145.562 13.9375 145.562 14.5C145.562 14.8958 145.635 15.3021 145.781 15.7188C145.927 16.1146 146.146 16.4792 146.438 16.8125C146.75 17.1458 147.135 17.4167 147.594 17.625C148.073 17.8333 148.646 17.9375 149.312 17.9375C149.854 17.9375 150.396 17.8542 150.938 17.6875C151.479 17.5208 151.969 17.2708 152.406 16.9375C152.844 16.5833 153.198 16.1562 153.469 15.6562C153.74 15.1562 153.875 14.5625 153.875 13.875C153.875 13.3542 153.792 12.9271 153.625 12.5938Z" fill="#EE8159"/>
</svg>
