<svg width="74" height="22" viewBox="0 0 74 22" fill="none" xmlns="http://www.w3.org/2000/svg">
<path d="M5.75 11.0938H10.5625L7.875 4.03125L5.75 11.0938ZM2.8125 21.3438L0.6875 20.8438L7.125 0.46875H8.5L16.0625 20.9688L14.0625 21.5312L11.125 13.0312H5.25L2.8125 21.3438ZM29.4375 2.15625L28.5625 4.03125C28.4583 3.90625 28.2604 3.77083 27.9688 3.625C27.6771 3.45833 27.3229 3.3125 26.9062 3.1875C26.5104 3.0625 26.0729 2.95833 25.5938 2.875C25.1146 2.77083 24.6458 2.71875 24.1875 2.71875C23.7292 2.71875 23.2917 2.77083 22.875 2.875C22.4792 2.95833 22.125 3.10417 21.8125 3.3125C21.5 3.52083 21.25 3.80208 21.0625 4.15625C20.8958 4.51042 20.8125 4.9375 20.8125 5.4375C20.8125 6.10417 21.0625 6.77083 21.5625 7.4375C22.0833 8.08333 22.875 8.59375 23.9375 8.96875C25.3125 9.51042 26.3854 10.0833 27.1562 10.6875C27.9479 11.2917 28.5312 11.8958 28.9062 12.5C29.3021 13.1042 29.5521 13.6979 29.6562 14.2812C29.7604 14.8646 29.8125 15.4062 29.8125 15.9062C29.75 17.6354 29.1979 18.9792 28.1562 19.9375C27.1146 20.8958 25.5729 21.375 23.5312 21.375C22.6979 21.375 21.7812 21.2812 20.7812 21.0938C19.8021 20.9271 18.7292 20.6562 17.5625 20.2812L18.25 18.0938C18.8958 18.3438 19.6979 18.5833 20.6562 18.8125C21.6354 19.0208 22.6042 19.125 23.5625 19.125C24.125 19.125 24.6562 19.0729 25.1562 18.9688C25.6562 18.8646 26.0938 18.6979 26.4688 18.4688C26.8438 18.2188 27.1354 17.8958 27.3438 17.5C27.5729 17.1042 27.6875 16.6146 27.6875 16.0312C27.6667 15.0312 27.4271 14.2292 26.9688 13.625C26.5312 13.0208 25.9792 12.5208 25.3125 12.125C24.6458 11.7292 23.9271 11.375 23.1562 11.0625C22.3854 10.75 21.6667 10.375 21 9.9375C20.3542 9.5 19.8125 8.94792 19.375 8.28125C18.9375 7.61458 18.7188 6.72917 18.7188 5.625C18.7188 4.72917 18.8542 3.96875 19.125 3.34375C19.3958 2.71875 19.7708 2.21875 20.25 1.84375C20.75 1.44792 21.3229 1.16667 21.9688 1C22.6354 0.8125 23.3542 0.71875 24.125 0.71875C25.125 0.71875 26.0938 0.854167 27.0312 1.125C27.9688 1.375 28.7708 1.71875 29.4375 2.15625ZM44.5 3.71875L43.125 4.59375C42.7917 4.11458 42.2917 3.6875 41.625 3.3125C40.9583 2.9375 40.25 2.75 39.5 2.75C38.625 2.75 37.8125 2.96875 37.0625 3.40625C36.3333 3.82292 35.6875 4.42708 35.125 5.21875C34.5833 6.01042 34.1562 6.95833 33.8438 8.0625C33.5312 9.16667 33.375 10.3854 33.375 11.7188C33.3958 12.8854 33.6042 13.9375 34 14.875C34.4167 15.8125 34.9479 16.6146 35.5938 17.2812C36.2396 17.9271 36.9583 18.4271 37.75 18.7812C38.5417 19.1354 39.3333 19.3125 40.125 19.3125C41.1667 19.3125 42.1042 19.0833 42.9375 18.625C43.7708 18.1458 44.5208 17.3854 45.1875 16.3438L46.4375 18.1562C45.5 19.2812 44.4896 20.1042 43.4062 20.625C42.3229 21.1458 41.1771 21.4062 39.9688 21.4062C38.8646 21.4062 37.7917 21.1562 36.75 20.6562C35.7083 20.1562 34.7812 19.4583 33.9688 18.5625C33.1562 17.6458 32.5 16.5521 32 15.2812C31.5208 13.9896 31.2812 12.5625 31.2812 11C31.2812 9.8125 31.4375 8.61458 31.75 7.40625C32.0625 6.19792 32.5417 5.10417 33.1875 4.125C33.8542 3.14583 34.6979 2.35417 35.7188 1.75C36.7604 1.125 38 0.8125 39.4375 0.8125C40.5208 0.8125 41.5312 1.03125 42.4688 1.46875C43.4062 1.90625 44.0833 2.65625 44.5 3.71875ZM59.75 2.15625L58.875 4.03125C58.7708 3.90625 58.5729 3.77083 58.2812 3.625C57.9896 3.45833 57.6354 3.3125 57.2188 3.1875C56.8229 3.0625 56.3854 2.95833 55.9062 2.875C55.4271 2.77083 54.9583 2.71875 54.5 2.71875C54.0417 2.71875 53.6042 2.77083 53.1875 2.875C52.7917 2.95833 52.4375 3.10417 52.125 3.3125C51.8125 3.52083 51.5625 3.80208 51.375 4.15625C51.2083 4.51042 51.125 4.9375 51.125 5.4375C51.125 6.10417 51.375 6.77083 51.875 7.4375C52.3958 8.08333 53.1875 8.59375 54.25 8.96875C55.625 9.51042 56.6979 10.0833 57.4688 10.6875C58.2604 11.2917 58.8438 11.8958 59.2188 12.5C59.6146 13.1042 59.8646 13.6979 59.9688 14.2812C60.0729 14.8646 60.125 15.4062 60.125 15.9062C60.0625 17.6354 59.5104 18.9792 58.4688 19.9375C57.4271 20.8958 55.8854 21.375 53.8438 21.375C53.0104 21.375 52.0938 21.2812 51.0938 21.0938C50.1146 20.9271 49.0417 20.6562 47.875 20.2812L48.5625 18.0938C49.2083 18.3438 50.0104 18.5833 50.9688 18.8125C51.9479 19.0208 52.9167 19.125 53.875 19.125C54.4375 19.125 54.9688 19.0729 55.4688 18.9688C55.9688 18.8646 56.4062 18.6979 56.7812 18.4688C57.1562 18.2188 57.4479 17.8958 57.6562 17.5C57.8854 17.1042 58 16.6146 58 16.0312C57.9792 15.0312 57.7396 14.2292 57.2812 13.625C56.8438 13.0208 56.2917 12.5208 55.625 12.125C54.9583 11.7292 54.2396 11.375 53.4688 11.0625C52.6979 10.75 51.9792 10.375 51.3125 9.9375C50.6667 9.5 50.125 8.94792 49.6875 8.28125C49.25 7.61458 49.0312 6.72917 49.0312 5.625C49.0312 4.72917 49.1667 3.96875 49.4375 3.34375C49.7083 2.71875 50.0833 2.21875 50.5625 1.84375C51.0625 1.44792 51.6354 1.16667 52.2812 1C52.9479 0.8125 53.6667 0.71875 54.4375 0.71875C55.4375 0.71875 56.4062 0.854167 57.3438 1.125C58.2812 1.375 59.0833 1.71875 59.75 2.15625ZM73.5625 2.15625L72.6875 4.03125C72.5833 3.90625 72.3854 3.77083 72.0938 3.625C71.8021 3.45833 71.4479 3.3125 71.0312 3.1875C70.6354 3.0625 70.1979 2.95833 69.7188 2.875C69.2396 2.77083 68.7708 2.71875 68.3125 2.71875C67.8542 2.71875 67.4167 2.77083 67 2.875C66.6042 2.95833 66.25 3.10417 65.9375 3.3125C65.625 3.52083 65.375 3.80208 65.1875 4.15625C65.0208 4.51042 64.9375 4.9375 64.9375 5.4375C64.9375 6.10417 65.1875 6.77083 65.6875 7.4375C66.2083 8.08333 67 8.59375 68.0625 8.96875C69.4375 9.51042 70.5104 10.0833 71.2812 10.6875C72.0729 11.2917 72.6562 11.8958 73.0312 12.5C73.4271 13.1042 73.6771 13.6979 73.7812 14.2812C73.8854 14.8646 73.9375 15.4062 73.9375 15.9062C73.875 17.6354 73.3229 18.9792 72.2812 19.9375C71.2396 20.8958 69.6979 21.375 67.6562 21.375C66.8229 21.375 65.9062 21.2812 64.9062 21.0938C63.9271 20.9271 62.8542 20.6562 61.6875 20.2812L62.375 18.0938C63.0208 18.3438 63.8229 18.5833 64.7812 18.8125C65.7604 19.0208 66.7292 19.125 67.6875 19.125C68.25 19.125 68.7812 19.0729 69.2812 18.9688C69.7812 18.8646 70.2188 18.6979 70.5938 18.4688C70.9688 18.2188 71.2604 17.8958 71.4688 17.5C71.6979 17.1042 71.8125 16.6146 71.8125 16.0312C71.7917 15.0312 71.5521 14.2292 71.0938 13.625C70.6562 13.0208 70.1042 12.5208 69.4375 12.125C68.7708 11.7292 68.0521 11.375 67.2812 11.0625C66.5104 10.75 65.7917 10.375 65.125 9.9375C64.4792 9.5 63.9375 8.94792 63.5 8.28125C63.0625 7.61458 62.8438 6.72917 62.8438 5.625C62.8438 4.72917 62.9792 3.96875 63.25 3.34375C63.5208 2.71875 63.8958 2.21875 64.375 1.84375C64.875 1.44792 65.4479 1.16667 66.0938 1C66.7604 0.8125 67.4792 0.71875 68.25 0.71875C69.25 0.71875 70.2188 0.854167 71.1562 1.125C72.0938 1.375 72.8958 1.71875 73.5625 2.15625Z" fill="#EE8159"/>
</svg>
