<svg width="365" height="27" viewBox="0 0 365 27" fill="none" xmlns="http://www.w3.org/2000/svg">
<path d="M0.5625 21.5938V1.84375V0.59375C0.958333 0.552083 1.33333 0.520833 1.6875 0.5C2.04167 0.479167 2.38542 0.46875 2.71875 0.46875C4.11458 0.46875 5.23958 0.625 6.09375 0.9375C6.96875 1.22917 7.63542 1.59375 8.09375 2.03125C8.55208 2.46875 8.85417 2.92708 9 3.40625C9.16667 3.86458 9.25 4.26042 9.25 4.59375C9.25 5.65625 8.98958 6.59375 8.46875 7.40625C7.96875 8.21875 7.20833 8.78125 6.1875 9.09375C9.3125 9.09375 11.6146 9.625 13.0938 10.6875C14.5938 11.75 15.3438 13.1875 15.3438 15C15.3438 17.1458 14.3438 18.8021 12.3438 19.9688C10.3438 21.1146 7.3125 21.6875 3.25 21.6875C2.39583 21.6875 1.5 21.6562 0.5625 21.5938ZM1.5625 2.40625L2 8.96875C3.5625 8.82292 4.82292 8.39583 5.78125 7.6875C6.76042 6.97917 7.25 6.03125 7.25 4.84375C7.25 4.07292 6.89583 3.45833 6.1875 3C5.47917 2.54167 4.42708 2.3125 3.03125 2.3125C2.57292 2.3125 2.08333 2.34375 1.5625 2.40625ZM2.0625 11.0312L2.5625 19.3438C2.97917 19.3854 3.375 19.4167 3.75 19.4375C4.14583 19.4583 4.53125 19.4688 4.90625 19.4688C6.07292 19.4688 7.16667 19.375 8.1875 19.1875C9.20833 18.9792 10.0938 18.6771 10.8438 18.2812C11.5938 17.8854 12.1771 17.4062 12.5938 16.8438C13.0312 16.2812 13.25 15.6354 13.25 14.9062C13.25 14.2604 13.0104 13.6875 12.5312 13.1875C12.0729 12.6667 11.4583 12.2292 10.6875 11.875C9.91667 11.5208 9.02083 11.2604 8 11.0938C7 10.9062 5.96875 10.8125 4.90625 10.8125C4.42708 10.8125 3.94792 10.8333 3.46875 10.875C2.98958 10.9167 2.52083 10.9688 2.0625 11.0312ZM29.8125 3.71875L28.4375 4.59375C28.1042 4.11458 27.6042 3.6875 26.9375 3.3125C26.2708 2.9375 25.5625 2.75 24.8125 2.75C23.9375 2.75 23.125 2.96875 22.375 3.40625C21.6458 3.82292 21 4.42708 20.4375 5.21875C19.8958 6.01042 19.4688 6.95833 19.1562 8.0625C18.8438 9.16667 18.6875 10.3854 18.6875 11.7188C18.7083 12.8854 18.9167 13.9375 19.3125 14.875C19.7292 15.8125 20.2604 16.6146 20.9062 17.2812C21.5521 17.9271 22.2708 18.4271 23.0625 18.7812C23.8542 19.1354 24.6458 19.3125 25.4375 19.3125C26.4792 19.3125 27.4167 19.0833 28.25 18.625C29.0833 18.1458 29.8333 17.3854 30.5 16.3438L31.75 18.1562C30.8125 19.2812 29.8021 20.1042 28.7188 20.625C27.6354 21.1458 26.4896 21.4062 25.2812 21.4062C24.1771 21.4062 23.1042 21.1562 22.0625 20.6562C21.0208 20.1562 20.0938 19.4583 19.2812 18.5625C18.4688 17.6458 17.8125 16.5521 17.3125 15.2812C16.8333 13.9896 16.5938 12.5625 16.5938 11C16.5938 9.8125 16.75 8.61458 17.0625 7.40625C17.375 6.19792 17.8542 5.10417 18.5 4.125C19.1667 3.14583 20.0104 2.35417 21.0312 1.75C22.0729 1.125 23.3125 0.8125 24.75 0.8125C25.8333 0.8125 26.8438 1.03125 27.7812 1.46875C28.7188 1.90625 29.3958 2.65625 29.8125 3.71875ZM47.1875 18.8438V21.0312H35.3125L34.1875 19.5312V3.03125L35.4375 1.21875H45.5V3.03125H36.375V10.0312H46.125V11.7188H36.25V18.8438H47.1875ZM62 11.0938H66.8125L64.125 4.03125L62 11.0938ZM59.0625 21.3438L56.9375 20.8438L63.375 0.46875H64.75L72.3125 20.9688L70.3125 21.5312L67.375 13.0312H61.5L59.0625 21.3438ZM75.6875 21.7188L74.625 7.96875L76.5625 7.71875L77 13.7812L83.6875 9.28125L84.5625 11.0312L77.3125 16.2812V21.5312L75.6875 21.7188ZM88.5 20.3438V10.875H85.3125L85.5 8.59375H88.9375V2.21875H91.0625V8.71875H96.1875V10.9688H90.8438V19.0938L95.5625 18.2188L95.875 20.3438L89.625 21.6562L88.5 20.3438ZM98.5 21.0938V9.65625H100.688V21.2188L98.5 21.0938ZM101.375 7.09375L99.1875 7.71875L97.1875 2.96875L99.375 2.40625L101.375 7.09375ZM112.188 9.09375L111.75 10.9688C111.583 10.8854 111.354 10.8021 111.062 10.7188C110.792 10.6146 110.479 10.5208 110.125 10.4375C109.792 10.3542 109.427 10.2917 109.031 10.25C108.656 10.1875 108.302 10.1562 107.969 10.1562C107.344 10.1562 106.802 10.25 106.344 10.4375C105.906 10.625 105.688 10.9583 105.688 11.4375C105.688 11.7917 105.875 12.0938 106.25 12.3438C106.625 12.5938 107.062 12.8125 107.562 13C108.083 13.1667 108.594 13.3021 109.094 13.4062C109.615 13.5104 110.021 13.5938 110.312 13.6562C110.938 13.8438 111.438 14.0938 111.812 14.4062C112.208 14.6979 112.51 15.0208 112.719 15.375C112.948 15.7083 113.104 16.0625 113.188 16.4375C113.271 16.8125 113.312 17.1771 113.312 17.5312C113.312 18.2812 113.135 18.9167 112.781 19.4375C112.448 19.9375 112.01 20.3542 111.469 20.6875C110.948 21 110.354 21.2292 109.688 21.375C109.042 21.5208 108.396 21.5938 107.75 21.5938C106.75 21.5938 105.792 21.4583 104.875 21.1875C103.979 20.9167 103.271 20.5521 102.75 20.0938L103.5 17.9688C103.75 18.1771 104.042 18.375 104.375 18.5625C104.729 18.7292 105.115 18.8854 105.531 19.0312C105.948 19.1562 106.385 19.2604 106.844 19.3438C107.302 19.4062 107.75 19.4375 108.188 19.4375C108.938 19.4375 109.604 19.2917 110.188 19C110.771 18.7083 111.125 18.1979 111.25 17.4688C111.25 17.3438 111.229 17.1875 111.188 17C111.167 16.7917 111.094 16.5938 110.969 16.4062C110.865 16.2188 110.688 16.0417 110.438 15.875C110.208 15.7083 109.875 15.5938 109.438 15.5312C108.583 15.4062 107.792 15.2396 107.062 15.0312C106.354 14.8229 105.74 14.5625 105.219 14.25C104.698 13.9375 104.281 13.5625 103.969 13.125C103.677 12.6667 103.531 12.1354 103.531 11.5312C103.531 10.3646 103.917 9.52083 104.688 9C105.458 8.47917 106.594 8.21875 108.094 8.21875C108.885 8.21875 109.646 8.30208 110.375 8.46875C111.125 8.63542 111.729 8.84375 112.188 9.09375ZM126.062 11.7812L128.062 20.2812L126.188 20.9688L125.062 15.6562C124.917 16.2396 124.688 16.8438 124.375 17.4688C124.083 18.0938 123.708 18.6667 123.25 19.1875C122.812 19.6875 122.281 20.1042 121.656 20.4375C121.052 20.75 120.365 20.9062 119.594 20.9062C118.219 20.9062 117.167 20.4688 116.438 19.5938C115.729 18.6979 115.375 17.4688 115.375 15.9062C115.375 15.0104 115.51 14.0833 115.781 13.125C116.052 12.1458 116.458 11.2604 117 10.4688C117.542 9.67708 118.219 9.02083 119.031 8.5C119.865 7.97917 120.833 7.71875 121.938 7.71875C122.583 7.71875 123.146 7.86458 123.625 8.15625C124.125 8.42708 124.542 8.77083 124.875 9.1875C125.208 9.60417 125.469 10.0521 125.656 10.5312C125.844 10.9896 125.979 11.4062 126.062 11.7812ZM122.25 9.96875C122.104 9.92708 121.958 9.89583 121.812 9.875C121.688 9.85417 121.552 9.84375 121.406 9.84375C120.76 9.84375 120.177 10.0417 119.656 10.4375C119.156 10.8125 118.729 11.2917 118.375 11.875C118.042 12.4583 117.781 13.0938 117.594 13.7812C117.427 14.4688 117.344 15.1042 117.344 15.6875C117.344 16.6042 117.542 17.3438 117.938 17.9062C118.333 18.4688 118.958 18.75 119.812 18.75C120.396 18.75 120.938 18.5625 121.438 18.1875C121.938 17.7917 122.365 17.3021 122.719 16.7188C123.073 16.1354 123.344 15.5 123.531 14.8125C123.74 14.1042 123.844 13.4479 123.844 12.8438C123.844 12.1771 123.708 11.5938 123.438 11.0938C123.188 10.5729 122.792 10.1979 122.25 9.96875ZM138.938 10.8438H132.875V20.8438L131.312 21.0312V7.59375L132.812 7.28125V8.84375L140.062 8.40625L141 10.2812L141.938 20.4688L139.938 21.0312L138.938 10.8438ZM156.375 11.0938H161.188L158.5 4.03125L156.375 11.0938ZM153.438 21.3438L151.312 20.8438L157.75 0.46875H159.125L166.688 20.9688L164.688 21.5312L161.75 13.0312H155.875L153.438 21.3438ZM170.219 16.2188C170.365 16.8646 170.646 17.3229 171.062 17.5938C171.479 17.8646 171.948 18 172.469 18C173.031 18 173.625 17.8646 174.25 17.5938C174.896 17.3229 175.49 16.9688 176.031 16.5312C176.573 16.0729 177.021 15.5521 177.375 14.9688C177.75 14.3854 177.938 13.7812 177.938 13.1562C177.938 12.4062 177.698 11.7812 177.219 11.2812C176.76 10.7812 176.177 10.5312 175.469 10.5312C174.906 10.5521 174.312 10.6979 173.688 10.9688C173.062 11.2188 172.479 11.5625 171.938 12C171.417 12.4375 170.979 12.9479 170.625 13.5312C170.271 14.0938 170.094 14.7083 170.094 15.375C170.094 15.6875 170.135 15.9688 170.219 16.2188ZM177.656 26.9062H168.031V24.4688H176.531L177.844 23.3438L177.719 17.7812C177.177 18.5312 176.427 19.1146 175.469 19.5312C174.51 19.9271 173.531 20.125 172.531 20.125C171.24 20.125 170.167 19.7188 169.312 18.9062C168.479 18.0729 168.062 16.8646 168.062 15.2812C168.062 14.3229 168.271 13.4375 168.688 12.625C169.125 11.7917 169.698 11.0833 170.406 10.5C171.115 9.89583 171.906 9.42708 172.781 9.09375C173.677 8.76042 174.594 8.59375 175.531 8.59375C176.531 8.59375 177.427 8.84375 178.219 9.34375C179.031 9.82292 179.573 10.5938 179.844 11.6562V24.5312L177.656 26.9062ZM182.125 14.5938C182.125 13.4479 182.292 12.4896 182.625 11.7188C182.958 10.9271 183.375 10.3021 183.875 9.84375C184.396 9.36458 184.969 9.03125 185.594 8.84375C186.219 8.63542 186.823 8.53125 187.406 8.53125C188.24 8.53125 188.99 8.65625 189.656 8.90625C190.323 9.13542 190.885 9.53125 191.344 10.0938C191.823 10.6354 192.188 11.3646 192.438 12.2812C192.688 13.1979 192.812 14.3229 192.812 15.6562L184.125 16.5C184.188 17.0833 184.344 17.5833 184.594 18C184.865 18.3958 185.198 18.7188 185.594 18.9688C185.99 19.2188 186.417 19.3958 186.875 19.5C187.333 19.6042 187.802 19.6562 188.281 19.6562C189.073 19.6562 189.833 19.5417 190.562 19.3125C191.292 19.0833 191.833 18.8021 192.188 18.4688L192.75 19.9688C192.604 20.1771 192.385 20.3854 192.094 20.5938C191.802 20.8021 191.458 20.9792 191.062 21.125C190.667 21.2917 190.219 21.4167 189.719 21.5C189.24 21.6042 188.74 21.6562 188.219 21.6562C187.49 21.6562 186.76 21.5417 186.031 21.3125C185.302 21.0833 184.646 20.6979 184.062 20.1562C183.479 19.6146 183.01 18.8958 182.656 18C182.302 17.0833 182.125 15.9479 182.125 14.5938ZM183.938 14.6562L190.812 13.9062C190.812 12.8854 190.542 12.0729 190 11.4688C189.458 10.8438 188.583 10.5312 187.375 10.5312C186.792 10.5521 186.281 10.6771 185.844 10.9062C185.427 11.1354 185.073 11.4271 184.781 11.7812C184.49 12.1146 184.271 12.5 184.125 12.9375C183.979 13.375 183.906 13.8229 183.906 14.2812C183.906 14.4479 183.917 14.5729 183.938 14.6562ZM203.312 10.8438H197.25V20.8438L195.688 21.0312V7.59375L197.188 7.28125V8.84375L204.438 8.40625L205.375 10.2812L206.312 20.4688L204.312 21.0312L203.312 10.8438ZM218.625 9.59375L218.062 11.5938C217.458 11.0521 216.812 10.6562 216.125 10.4062C215.438 10.1354 214.76 10 214.094 10C213.531 10 212.99 10.1042 212.469 10.3125C211.969 10.5 211.531 10.7917 211.156 11.1875C210.781 11.5833 210.479 12.0729 210.25 12.6562C210.042 13.2396 209.938 13.9062 209.938 14.6562C209.938 15.5521 210.052 16.3021 210.281 16.9062C210.531 17.5104 210.854 18 211.25 18.375C211.646 18.75 212.094 19.0208 212.594 19.1875C213.115 19.3542 213.646 19.4375 214.188 19.4375C214.667 19.4167 215.135 19.3229 215.594 19.1562C216.073 18.9688 216.5 18.7188 216.875 18.4062C217.25 18.0729 217.562 17.6875 217.812 17.25C218.062 16.7917 218.208 16.2812 218.25 15.7188L220 16.5938C219.958 17.4271 219.76 18.1562 219.406 18.7812C219.073 19.4062 218.635 19.9271 218.094 20.3438C217.573 20.7604 216.969 21.0729 216.281 21.2812C215.594 21.4896 214.885 21.5938 214.156 21.5938C213.385 21.5938 212.625 21.4479 211.875 21.1562C211.125 20.8854 210.458 20.4688 209.875 19.9062C209.292 19.3438 208.823 18.6354 208.469 17.7812C208.115 16.9062 207.938 15.8854 207.938 14.7188C207.938 13.7396 208.083 12.8438 208.375 12.0312C208.667 11.1979 209.073 10.4896 209.594 9.90625C210.115 9.30208 210.729 8.83333 211.438 8.5C212.167 8.16667 212.958 8 213.812 8C214.542 8 215.302 8.13542 216.094 8.40625C216.906 8.65625 217.75 9.05208 218.625 9.59375ZM221.75 14.5938C221.75 13.4479 221.917 12.4896 222.25 11.7188C222.583 10.9271 223 10.3021 223.5 9.84375C224.021 9.36458 224.594 9.03125 225.219 8.84375C225.844 8.63542 226.448 8.53125 227.031 8.53125C227.865 8.53125 228.615 8.65625 229.281 8.90625C229.948 9.13542 230.51 9.53125 230.969 10.0938C231.448 10.6354 231.812 11.3646 232.062 12.2812C232.312 13.1979 232.438 14.3229 232.438 15.6562L223.75 16.5C223.812 17.0833 223.969 17.5833 224.219 18C224.49 18.3958 224.823 18.7188 225.219 18.9688C225.615 19.2188 226.042 19.3958 226.5 19.5C226.958 19.6042 227.427 19.6562 227.906 19.6562C228.698 19.6562 229.458 19.5417 230.188 19.3125C230.917 19.0833 231.458 18.8021 231.812 18.4688L232.375 19.9688C232.229 20.1771 232.01 20.3854 231.719 20.5938C231.427 20.8021 231.083 20.9792 230.688 21.125C230.292 21.2917 229.844 21.4167 229.344 21.5C228.865 21.6042 228.365 21.6562 227.844 21.6562C227.115 21.6562 226.385 21.5417 225.656 21.3125C224.927 21.0833 224.271 20.6979 223.688 20.1562C223.104 19.6146 222.635 18.8958 222.281 18C221.927 17.0833 221.75 15.9479 221.75 14.5938ZM223.562 14.6562L230.438 13.9062C230.438 12.8854 230.167 12.0729 229.625 11.4688C229.083 10.8438 228.208 10.5312 227 10.5312C226.417 10.5521 225.906 10.6771 225.469 10.9062C225.052 11.1354 224.698 11.4271 224.406 11.7812C224.115 12.1146 223.896 12.5 223.75 12.9375C223.604 13.375 223.531 13.8229 223.531 14.2812C223.531 14.4479 223.542 14.5729 223.562 14.6562ZM234.812 7.90625L236.562 8.34375C236.375 9.40625 236.219 10.4271 236.094 11.4062C235.99 12.3854 235.938 13.3021 235.938 14.1562C235.938 14.9479 235.979 15.6562 236.062 16.2812C236.167 16.9062 236.333 17.4479 236.562 17.9062C236.792 18.3646 237.094 18.7188 237.469 18.9688C237.865 19.1979 238.354 19.3125 238.938 19.3125C239.333 19.3125 239.708 19.2083 240.062 19C240.438 18.7708 240.771 18.4062 241.062 17.9062C241.375 17.4062 241.625 16.75 241.812 15.9375C242 15.1042 242.125 14.0729 242.188 12.8438L242.312 8.40625L244.062 8.53125V20.8438L242.5 21.0312L242.438 18.6562C242.167 19.6146 241.677 20.3438 240.969 20.8438C240.26 21.3229 239.438 21.5625 238.5 21.5625C237.729 21.5625 237.062 21.3854 236.5 21.0312C235.938 20.6979 235.469 20.2292 235.094 19.625C234.74 19.0208 234.469 18.2917 234.281 17.4375C234.115 16.5833 234.031 15.6458 234.031 14.625C234.031 13.6875 234.094 12.6667 234.219 11.5625C234.365 10.4375 234.562 9.21875 234.812 7.90625ZM248 21.7188L246.938 7.96875L248.875 7.71875L249.312 13.7812L256 9.28125L256.875 11.0312L249.625 16.2812V21.5312L248 21.7188ZM279.188 3.71875L277.812 4.59375C277.479 4.11458 276.979 3.6875 276.312 3.3125C275.646 2.9375 274.938 2.75 274.188 2.75C273.312 2.75 272.5 2.96875 271.75 3.40625C271.021 3.82292 270.375 4.42708 269.812 5.21875C269.271 6.01042 268.844 6.95833 268.531 8.0625C268.219 9.16667 268.062 10.3854 268.062 11.7188C268.083 12.8854 268.292 13.9375 268.688 14.875C269.104 15.8125 269.635 16.6146 270.281 17.2812C270.927 17.9271 271.646 18.4271 272.438 18.7812C273.229 19.1354 274.021 19.3125 274.812 19.3125C275.854 19.3125 276.792 19.0833 277.625 18.625C278.458 18.1458 279.208 17.3854 279.875 16.3438L281.125 18.1562C280.188 19.2812 279.177 20.1042 278.094 20.625C277.01 21.1458 275.865 21.4062 274.656 21.4062C273.552 21.4062 272.479 21.1562 271.438 20.6562C270.396 20.1562 269.469 19.4583 268.656 18.5625C267.844 17.6458 267.188 16.5521 266.688 15.2812C266.208 13.9896 265.969 12.5625 265.969 11C265.969 9.8125 266.125 8.61458 266.438 7.40625C266.75 6.19792 267.229 5.10417 267.875 4.125C268.542 3.14583 269.385 2.35417 270.406 1.75C271.448 1.125 272.688 0.8125 274.125 0.8125C275.208 0.8125 276.219 1.03125 277.156 1.46875C278.094 1.90625 278.771 2.65625 279.188 3.71875ZM283.312 7.90625L285.062 8.34375C284.875 9.40625 284.719 10.4271 284.594 11.4062C284.49 12.3854 284.438 13.3021 284.438 14.1562C284.438 14.9479 284.479 15.6562 284.562 16.2812C284.667 16.9062 284.833 17.4479 285.062 17.9062C285.292 18.3646 285.594 18.7188 285.969 18.9688C286.365 19.1979 286.854 19.3125 287.438 19.3125C287.833 19.3125 288.208 19.2083 288.562 19C288.938 18.7708 289.271 18.4062 289.562 17.9062C289.875 17.4062 290.125 16.75 290.312 15.9375C290.5 15.1042 290.625 14.0729 290.688 12.8438L290.812 8.40625L292.562 8.53125V20.8438L291 21.0312L290.938 18.6562C290.667 19.6146 290.177 20.3438 289.469 20.8438C288.76 21.3229 287.938 21.5625 287 21.5625C286.229 21.5625 285.562 21.3854 285 21.0312C284.438 20.6979 283.969 20.2292 283.594 19.625C283.24 19.0208 282.969 18.2917 282.781 17.4375C282.615 16.5833 282.531 15.6458 282.531 14.625C282.531 13.6875 282.594 12.6667 282.719 11.5625C282.865 10.4375 283.062 9.21875 283.312 7.90625ZM303.75 9.09375L303.312 10.9688C303.146 10.8854 302.917 10.8021 302.625 10.7188C302.354 10.6146 302.042 10.5208 301.688 10.4375C301.354 10.3542 300.99 10.2917 300.594 10.25C300.219 10.1875 299.865 10.1562 299.531 10.1562C298.906 10.1562 298.365 10.25 297.906 10.4375C297.469 10.625 297.25 10.9583 297.25 11.4375C297.25 11.7917 297.438 12.0938 297.812 12.3438C298.188 12.5938 298.625 12.8125 299.125 13C299.646 13.1667 300.156 13.3021 300.656 13.4062C301.177 13.5104 301.583 13.5938 301.875 13.6562C302.5 13.8438 303 14.0938 303.375 14.4062C303.771 14.6979 304.073 15.0208 304.281 15.375C304.51 15.7083 304.667 16.0625 304.75 16.4375C304.833 16.8125 304.875 17.1771 304.875 17.5312C304.875 18.2812 304.698 18.9167 304.344 19.4375C304.01 19.9375 303.573 20.3542 303.031 20.6875C302.51 21 301.917 21.2292 301.25 21.375C300.604 21.5208 299.958 21.5938 299.312 21.5938C298.312 21.5938 297.354 21.4583 296.438 21.1875C295.542 20.9167 294.833 20.5521 294.312 20.0938L295.062 17.9688C295.312 18.1771 295.604 18.375 295.938 18.5625C296.292 18.7292 296.677 18.8854 297.094 19.0312C297.51 19.1562 297.948 19.2604 298.406 19.3438C298.865 19.4062 299.312 19.4375 299.75 19.4375C300.5 19.4375 301.167 19.2917 301.75 19C302.333 18.7083 302.688 18.1979 302.812 17.4688C302.812 17.3438 302.792 17.1875 302.75 17C302.729 16.7917 302.656 16.5938 302.531 16.4062C302.427 16.2188 302.25 16.0417 302 15.875C301.771 15.7083 301.438 15.5938 301 15.5312C300.146 15.4062 299.354 15.2396 298.625 15.0312C297.917 14.8229 297.302 14.5625 296.781 14.25C296.26 13.9375 295.844 13.5625 295.531 13.125C295.24 12.6667 295.094 12.1354 295.094 11.5312C295.094 10.3646 295.479 9.52083 296.25 9C297.021 8.47917 298.156 8.21875 299.656 8.21875C300.448 8.21875 301.208 8.30208 301.938 8.46875C302.688 8.63542 303.292 8.84375 303.75 9.09375ZM307.188 21.0938V9.65625H309.375V21.2188L307.188 21.0938ZM310.062 7.09375L307.875 7.71875L305.875 2.96875L308.062 2.40625L310.062 7.09375ZM320.625 10.8438H314.562V20.8438L313 21.0312V7.59375L314.5 7.28125V8.84375L321.75 8.40625L322.688 10.2812L323.625 20.4688L321.625 21.0312L320.625 10.8438ZM326.125 21.0938V9.65625H328.312V21.2188L326.125 21.0938ZM329 7.09375L326.812 7.71875L324.812 2.96875L327 2.40625L329 7.09375ZM339.812 9.09375L339.375 10.9688C339.208 10.8854 338.979 10.8021 338.688 10.7188C338.417 10.6146 338.104 10.5208 337.75 10.4375C337.417 10.3542 337.052 10.2917 336.656 10.25C336.281 10.1875 335.927 10.1562 335.594 10.1562C334.969 10.1562 334.427 10.25 333.969 10.4375C333.531 10.625 333.312 10.9583 333.312 11.4375C333.312 11.7917 333.5 12.0938 333.875 12.3438C334.25 12.5938 334.688 12.8125 335.188 13C335.708 13.1667 336.219 13.3021 336.719 13.4062C337.24 13.5104 337.646 13.5938 337.938 13.6562C338.562 13.8438 339.062 14.0938 339.438 14.4062C339.833 14.6979 340.135 15.0208 340.344 15.375C340.573 15.7083 340.729 16.0625 340.812 16.4375C340.896 16.8125 340.938 17.1771 340.938 17.5312C340.938 18.2812 340.76 18.9167 340.406 19.4375C340.073 19.9375 339.635 20.3542 339.094 20.6875C338.573 21 337.979 21.2292 337.312 21.375C336.667 21.5208 336.021 21.5938 335.375 21.5938C334.375 21.5938 333.417 21.4583 332.5 21.1875C331.604 20.9167 330.896 20.5521 330.375 20.0938L331.125 17.9688C331.375 18.1771 331.667 18.375 332 18.5625C332.354 18.7292 332.74 18.8854 333.156 19.0312C333.573 19.1562 334.01 19.2604 334.469 19.3438C334.927 19.4062 335.375 19.4375 335.812 19.4375C336.562 19.4375 337.229 19.2917 337.812 19C338.396 18.7083 338.75 18.1979 338.875 17.4688C338.875 17.3438 338.854 17.1875 338.812 17C338.792 16.7917 338.719 16.5938 338.594 16.4062C338.49 16.2188 338.312 16.0417 338.062 15.875C337.833 15.7083 337.5 15.5938 337.062 15.5312C336.208 15.4062 335.417 15.2396 334.688 15.0312C333.979 14.8229 333.365 14.5625 332.844 14.25C332.323 13.9375 331.906 13.5625 331.594 13.125C331.302 12.6667 331.156 12.1354 331.156 11.5312C331.156 10.3646 331.542 9.52083 332.312 9C333.083 8.47917 334.219 8.21875 335.719 8.21875C336.51 8.21875 337.271 8.30208 338 8.46875C338.75 8.63542 339.354 8.84375 339.812 9.09375ZM345 20.3438V10.875H341.812L342 8.59375H345.438V2.21875H347.562V8.71875H352.688V10.9688H347.344V19.0938L352.062 18.2188L352.375 20.3438L346.125 21.6562L345 20.3438ZM354.188 14.5938C354.188 13.4479 354.354 12.4896 354.688 11.7188C355.021 10.9271 355.438 10.3021 355.938 9.84375C356.458 9.36458 357.031 9.03125 357.656 8.84375C358.281 8.63542 358.885 8.53125 359.469 8.53125C360.302 8.53125 361.052 8.65625 361.719 8.90625C362.385 9.13542 362.948 9.53125 363.406 10.0938C363.885 10.6354 364.25 11.3646 364.5 12.2812C364.75 13.1979 364.875 14.3229 364.875 15.6562L356.188 16.5C356.25 17.0833 356.406 17.5833 356.656 18C356.927 18.3958 357.26 18.7188 357.656 18.9688C358.052 19.2188 358.479 19.3958 358.938 19.5C359.396 19.6042 359.865 19.6562 360.344 19.6562C361.135 19.6562 361.896 19.5417 362.625 19.3125C363.354 19.0833 363.896 18.8021 364.25 18.4688L364.812 19.9688C364.667 20.1771 364.448 20.3854 364.156 20.5938C363.865 20.8021 363.521 20.9792 363.125 21.125C362.729 21.2917 362.281 21.4167 361.781 21.5C361.302 21.6042 360.802 21.6562 360.281 21.6562C359.552 21.6562 358.823 21.5417 358.094 21.3125C357.365 21.0833 356.708 20.6979 356.125 20.1562C355.542 19.6146 355.073 18.8958 354.719 18C354.365 17.0833 354.188 15.9479 354.188 14.5938ZM356 14.6562L362.875 13.9062C362.875 12.8854 362.604 12.0729 362.062 11.4688C361.521 10.8438 360.646 10.5312 359.438 10.5312C358.854 10.5521 358.344 10.6771 357.906 10.9062C357.49 11.1354 357.135 11.4271 356.844 11.7812C356.552 12.1146 356.333 12.5 356.188 12.9375C356.042 13.375 355.969 13.8229 355.969 14.2812C355.969 14.4479 355.979 14.5729 356 14.6562Z" fill="#EE8159"/>
</svg>
