<svg width="252" height="25" viewBox="0 0 252 25" fill="none" xmlns="http://www.w3.org/2000/svg">
<path d="M0.125 20.4062V1.96875H2.3125V19.6562H13.5625V21.9062H1.375L0.125 20.4062ZM15.375 15.5938C15.375 14.4479 15.5417 13.4896 15.875 12.7188C16.2083 11.9271 16.625 11.3021 17.125 10.8438C17.6458 10.3646 18.2188 10.0312 18.8438 9.84375C19.4688 9.63542 20.0729 9.53125 20.6562 9.53125C21.4896 9.53125 22.2396 9.65625 22.9062 9.90625C23.5729 10.1354 24.1354 10.5312 24.5938 11.0938C25.0729 11.6354 25.4375 12.3646 25.6875 13.2812C25.9375 14.1979 26.0625 15.3229 26.0625 16.6562L17.375 17.5C17.4375 18.0833 17.5938 18.5833 17.8438 19C18.1146 19.3958 18.4479 19.7188 18.8438 19.9688C19.2396 20.2188 19.6667 20.3958 20.125 20.5C20.5833 20.6042 21.0521 20.6562 21.5312 20.6562C22.3229 20.6562 23.0833 20.5417 23.8125 20.3125C24.5417 20.0833 25.0833 19.8021 25.4375 19.4688L26 20.9688C25.8542 21.1771 25.6354 21.3854 25.3438 21.5938C25.0521 21.8021 24.7083 21.9792 24.3125 22.125C23.9167 22.2917 23.4688 22.4167 22.9688 22.5C22.4896 22.6042 21.9896 22.6562 21.4688 22.6562C20.7396 22.6562 20.0104 22.5417 19.2812 22.3125C18.5521 22.0833 17.8958 21.6979 17.3125 21.1562C16.7292 20.6146 16.2604 19.8958 15.9062 19C15.5521 18.0833 15.375 16.9479 15.375 15.5938ZM17.1875 15.6562L24.0625 14.9062C24.0625 13.8854 23.7917 13.0729 23.25 12.4688C22.7083 11.8438 21.8333 11.5312 20.625 11.5312C20.0417 11.5521 19.5312 11.6771 19.0938 11.9062C18.6771 12.1354 18.3229 12.4271 18.0312 12.7812C17.7396 13.1146 17.5208 13.5 17.375 13.9375C17.2292 14.375 17.1562 14.8229 17.1562 15.2812C17.1562 15.4479 17.1667 15.5729 17.1875 15.6562ZM36.8125 10.0938L36.375 11.9688C36.2083 11.8854 35.9792 11.8021 35.6875 11.7188C35.4167 11.6146 35.1042 11.5208 34.75 11.4375C34.4167 11.3542 34.0521 11.2917 33.6562 11.25C33.2812 11.1875 32.9271 11.1562 32.5938 11.1562C31.9688 11.1562 31.4271 11.25 30.9688 11.4375C30.5312 11.625 30.3125 11.9583 30.3125 12.4375C30.3125 12.7917 30.5 13.0938 30.875 13.3438C31.25 13.5938 31.6875 13.8125 32.1875 14C32.7083 14.1667 33.2188 14.3021 33.7188 14.4062C34.2396 14.5104 34.6458 14.5938 34.9375 14.6562C35.5625 14.8438 36.0625 15.0938 36.4375 15.4062C36.8333 15.6979 37.1354 16.0208 37.3438 16.375C37.5729 16.7083 37.7292 17.0625 37.8125 17.4375C37.8958 17.8125 37.9375 18.1771 37.9375 18.5312C37.9375 19.2812 37.7604 19.9167 37.4062 20.4375C37.0729 20.9375 36.6354 21.3542 36.0938 21.6875C35.5729 22 34.9792 22.2292 34.3125 22.375C33.6667 22.5208 33.0208 22.5938 32.375 22.5938C31.375 22.5938 30.4167 22.4583 29.5 22.1875C28.6042 21.9167 27.8958 21.5521 27.375 21.0938L28.125 18.9688C28.375 19.1771 28.6667 19.375 29 19.5625C29.3542 19.7292 29.7396 19.8854 30.1562 20.0312C30.5729 20.1562 31.0104 20.2604 31.4688 20.3438C31.9271 20.4062 32.375 20.4375 32.8125 20.4375C33.5625 20.4375 34.2292 20.2917 34.8125 20C35.3958 19.7083 35.75 19.1979 35.875 18.4688C35.875 18.3438 35.8542 18.1875 35.8125 18C35.7917 17.7917 35.7188 17.5938 35.5938 17.4062C35.4896 17.2188 35.3125 17.0417 35.0625 16.875C34.8333 16.7083 34.5 16.5938 34.0625 16.5312C33.2083 16.4062 32.4167 16.2396 31.6875 16.0312C30.9792 15.8229 30.3646 15.5625 29.8438 15.25C29.3229 14.9375 28.9062 14.5625 28.5938 14.125C28.3021 13.6667 28.1562 13.1354 28.1562 12.5312C28.1562 11.3646 28.5417 10.5208 29.3125 10C30.0833 9.47917 31.2188 9.21875 32.7188 9.21875C33.5104 9.21875 34.2708 9.30208 35 9.46875C35.75 9.63542 36.3542 9.84375 36.8125 10.0938ZM50.1875 5.84375V22.0312H47.75V2.34375L50.75 1.90625L55.5625 14.4062L61.1875 2.28125L63.5625 2.46875L65.0625 22.5312H62.9375L61.8125 6.09375L56.125 17.7188L54.75 17.5312L50.1875 5.84375ZM67.5 8.90625L69.25 9.34375C69.0625 10.4062 68.9062 11.4271 68.7812 12.4062C68.6771 13.3854 68.625 14.3021 68.625 15.1562C68.625 15.9479 68.6667 16.6562 68.75 17.2812C68.8542 17.9062 69.0208 18.4479 69.25 18.9062C69.4792 19.3646 69.7812 19.7188 70.1562 19.9688C70.5521 20.1979 71.0417 20.3125 71.625 20.3125C72.0208 20.3125 72.3958 20.2083 72.75 20C73.125 19.7708 73.4583 19.4062 73.75 18.9062C74.0625 18.4062 74.3125 17.75 74.5 16.9375C74.6875 16.1042 74.8125 15.0729 74.875 13.8438L75 9.40625L76.75 9.53125V21.8438L75.1875 22.0312L75.125 19.6562C74.8542 20.6146 74.3646 21.3438 73.6562 21.8438C72.9479 22.3229 72.125 22.5625 71.1875 22.5625C70.4167 22.5625 69.75 22.3854 69.1875 22.0312C68.625 21.6979 68.1562 21.2292 67.7812 20.625C67.4271 20.0208 67.1562 19.2917 66.9688 18.4375C66.8021 17.5833 66.7188 16.6458 66.7188 15.625C66.7188 14.6875 66.7812 13.6667 66.9062 12.5625C67.0521 11.4375 67.25 10.2188 67.5 8.90625ZM80.6875 22.7188L79.625 8.96875L81.5625 8.71875L82 14.7812L88.6875 10.2812L89.5625 12.0312L82.3125 17.2812V22.5312L80.6875 22.7188ZM99.75 10.0938L99.3125 11.9688C99.1458 11.8854 98.9167 11.8021 98.625 11.7188C98.3542 11.6146 98.0417 11.5208 97.6875 11.4375C97.3542 11.3542 96.9896 11.2917 96.5938 11.25C96.2188 11.1875 95.8646 11.1562 95.5312 11.1562C94.9062 11.1562 94.3646 11.25 93.9062 11.4375C93.4688 11.625 93.25 11.9583 93.25 12.4375C93.25 12.7917 93.4375 13.0938 93.8125 13.3438C94.1875 13.5938 94.625 13.8125 95.125 14C95.6458 14.1667 96.1562 14.3021 96.6562 14.4062C97.1771 14.5104 97.5833 14.5938 97.875 14.6562C98.5 14.8438 99 15.0938 99.375 15.4062C99.7708 15.6979 100.073 16.0208 100.281 16.375C100.51 16.7083 100.667 17.0625 100.75 17.4375C100.833 17.8125 100.875 18.1771 100.875 18.5312C100.875 19.2812 100.698 19.9167 100.344 20.4375C100.01 20.9375 99.5729 21.3542 99.0312 21.6875C98.5104 22 97.9167 22.2292 97.25 22.375C96.6042 22.5208 95.9583 22.5938 95.3125 22.5938C94.3125 22.5938 93.3542 22.4583 92.4375 22.1875C91.5417 21.9167 90.8333 21.5521 90.3125 21.0938L91.0625 18.9688C91.3125 19.1771 91.6042 19.375 91.9375 19.5625C92.2917 19.7292 92.6771 19.8854 93.0938 20.0312C93.5104 20.1562 93.9479 20.2604 94.4062 20.3438C94.8646 20.4062 95.3125 20.4375 95.75 20.4375C96.5 20.4375 97.1667 20.2917 97.75 20C98.3333 19.7083 98.6875 19.1979 98.8125 18.4688C98.8125 18.3438 98.7917 18.1875 98.75 18C98.7292 17.7917 98.6562 17.5938 98.5312 17.4062C98.4271 17.2188 98.25 17.0417 98 16.875C97.7708 16.7083 97.4375 16.5938 97 16.5312C96.1458 16.4062 95.3542 16.2396 94.625 16.0312C93.9167 15.8229 93.3021 15.5625 92.7812 15.25C92.2604 14.9375 91.8438 14.5625 91.5312 14.125C91.2396 13.6667 91.0938 13.1354 91.0938 12.5312C91.0938 11.3646 91.4792 10.5208 92.25 10C93.0208 9.47917 94.1562 9.21875 95.6562 9.21875C96.4479 9.21875 97.2083 9.30208 97.9375 9.46875C98.6875 9.63542 99.2917 9.84375 99.75 10.0938ZM115.75 11.0312C114.604 11.0312 113.698 11.3854 113.031 12.0938C112.385 12.8021 112.062 13.9375 112.062 15.5C112.062 16.1042 112.146 16.7083 112.312 17.3125C112.479 17.8958 112.719 18.4271 113.031 18.9062C113.344 19.3854 113.719 19.7812 114.156 20.0938C114.594 20.3854 115.083 20.5312 115.625 20.5312C116.188 20.5312 116.698 20.3958 117.156 20.125C117.615 19.8542 118 19.5104 118.312 19.0938C118.625 18.6562 118.865 18.1771 119.031 17.6562C119.219 17.1146 119.312 16.5938 119.312 16.0938C119.312 14.2604 118.979 12.9583 118.312 12.1875C117.667 11.4167 116.812 11.0312 115.75 11.0312ZM115.562 8.90625C116.604 8.90625 117.49 9.09375 118.219 9.46875C118.948 9.84375 119.542 10.3646 120 11.0312C120.458 11.6771 120.792 12.4375 121 13.3125C121.208 14.1667 121.312 15.0938 121.312 16.0938C121.271 17.2188 121.083 18.1979 120.75 19.0312C120.438 19.8438 120.021 20.5208 119.5 21.0625C118.979 21.6042 118.385 22 117.719 22.25C117.073 22.5208 116.396 22.6562 115.688 22.6562C114.75 22.6562 113.927 22.4688 113.219 22.0938C112.531 21.7188 111.948 21.2188 111.469 20.5938C111.01 19.9479 110.656 19.2188 110.406 18.4062C110.177 17.5729 110.062 16.6979 110.062 15.7812C110.062 14.8021 110.188 13.8958 110.438 13.0625C110.708 12.2083 111.073 11.4792 111.531 10.875C112.01 10.25 112.583 9.77083 113.25 9.4375C113.938 9.08333 114.708 8.90625 115.562 8.90625ZM131.438 11.8438H125.375V21.8438L123.812 22.0312V8.59375L125.312 8.28125V9.84375L132.562 9.40625L133.5 11.2812L134.438 21.4688L132.438 22.0312L131.438 11.8438ZM138.688 21.3438V11.875H135.5L135.688 9.59375H139.125V3.21875H141.25V9.71875H146.375V11.9688H141.031V20.0938L145.75 19.2188L146.062 21.3438L139.812 22.6562L138.688 21.3438ZM166.938 0.71875V20.8438L166.125 21.8438C165.438 22.0521 164.792 22.1979 164.188 22.2812C163.583 22.3646 163.01 22.4062 162.469 22.4062C161.198 22.4062 160.125 22.2083 159.25 21.8125C158.396 21.4167 157.698 20.8958 157.156 20.25C156.615 19.6042 156.219 18.8854 155.969 18.0938C155.74 17.3021 155.625 16.5 155.625 15.6875C155.625 14.5417 155.802 13.5729 156.156 12.7812C156.51 11.9688 156.969 11.3021 157.531 10.7812C158.115 10.2604 158.76 9.88542 159.469 9.65625C160.198 9.40625 160.938 9.28125 161.688 9.28125C162.917 9.28125 164.021 9.55208 165 10.0938L164.938 0.65625L166.938 0.71875ZM164.875 12.8438C164.396 12.4062 163.875 12.0833 163.312 11.875C162.75 11.6458 162.177 11.5312 161.594 11.5312C161.094 11.5312 160.604 11.625 160.125 11.8125C159.667 11.9792 159.26 12.2396 158.906 12.5938C158.552 12.9271 158.26 13.3542 158.031 13.875C157.823 14.375 157.719 14.9688 157.719 15.6562C157.719 16.4479 157.854 17.125 158.125 17.6875C158.396 18.25 158.75 18.7083 159.188 19.0625C159.646 19.4167 160.167 19.6875 160.75 19.875C161.354 20.0417 161.979 20.125 162.625 20.125C163.458 20.125 164.208 19.9688 164.875 19.6562V12.8438ZM169.312 15.5938C169.312 14.4479 169.479 13.4896 169.812 12.7188C170.146 11.9271 170.562 11.3021 171.062 10.8438C171.583 10.3646 172.156 10.0312 172.781 9.84375C173.406 9.63542 174.01 9.53125 174.594 9.53125C175.427 9.53125 176.177 9.65625 176.844 9.90625C177.51 10.1354 178.073 10.5312 178.531 11.0938C179.01 11.6354 179.375 12.3646 179.625 13.2812C179.875 14.1979 180 15.3229 180 16.6562L171.312 17.5C171.375 18.0833 171.531 18.5833 171.781 19C172.052 19.3958 172.385 19.7188 172.781 19.9688C173.177 20.2188 173.604 20.3958 174.062 20.5C174.521 20.6042 174.99 20.6562 175.469 20.6562C176.26 20.6562 177.021 20.5417 177.75 20.3125C178.479 20.0833 179.021 19.8021 179.375 19.4688L179.938 20.9688C179.792 21.1771 179.573 21.3854 179.281 21.5938C178.99 21.8021 178.646 21.9792 178.25 22.125C177.854 22.2917 177.406 22.4167 176.906 22.5C176.427 22.6042 175.927 22.6562 175.406 22.6562C174.677 22.6562 173.948 22.5417 173.219 22.3125C172.49 22.0833 171.833 21.6979 171.25 21.1562C170.667 20.6146 170.198 19.8958 169.844 19C169.49 18.0833 169.312 16.9479 169.312 15.5938ZM171.125 15.6562L178 14.9062C178 13.8854 177.729 13.0729 177.188 12.4688C176.646 11.8438 175.771 11.5312 174.562 11.5312C173.979 11.5521 173.469 11.6771 173.031 11.9062C172.615 12.1354 172.26 12.4271 171.969 12.7812C171.677 13.1146 171.458 13.5 171.312 13.9375C171.167 14.375 171.094 14.8229 171.094 15.2812C171.094 15.4479 171.104 15.5729 171.125 15.6562ZM190.75 10.0938L190.312 11.9688C190.146 11.8854 189.917 11.8021 189.625 11.7188C189.354 11.6146 189.042 11.5208 188.688 11.4375C188.354 11.3542 187.99 11.2917 187.594 11.25C187.219 11.1875 186.865 11.1562 186.531 11.1562C185.906 11.1562 185.365 11.25 184.906 11.4375C184.469 11.625 184.25 11.9583 184.25 12.4375C184.25 12.7917 184.438 13.0938 184.812 13.3438C185.188 13.5938 185.625 13.8125 186.125 14C186.646 14.1667 187.156 14.3021 187.656 14.4062C188.177 14.5104 188.583 14.5938 188.875 14.6562C189.5 14.8438 190 15.0938 190.375 15.4062C190.771 15.6979 191.073 16.0208 191.281 16.375C191.51 16.7083 191.667 17.0625 191.75 17.4375C191.833 17.8125 191.875 18.1771 191.875 18.5312C191.875 19.2812 191.698 19.9167 191.344 20.4375C191.01 20.9375 190.573 21.3542 190.031 21.6875C189.51 22 188.917 22.2292 188.25 22.375C187.604 22.5208 186.958 22.5938 186.312 22.5938C185.312 22.5938 184.354 22.4583 183.438 22.1875C182.542 21.9167 181.833 21.5521 181.312 21.0938L182.062 18.9688C182.312 19.1771 182.604 19.375 182.938 19.5625C183.292 19.7292 183.677 19.8854 184.094 20.0312C184.51 20.1562 184.948 20.2604 185.406 20.3438C185.865 20.4062 186.312 20.4375 186.75 20.4375C187.5 20.4375 188.167 20.2917 188.75 20C189.333 19.7083 189.688 19.1979 189.812 18.4688C189.812 18.3438 189.792 18.1875 189.75 18C189.729 17.7917 189.656 17.5938 189.531 17.4062C189.427 17.2188 189.25 17.0417 189 16.875C188.771 16.7083 188.438 16.5938 188 16.5312C187.146 16.4062 186.354 16.2396 185.625 16.0312C184.917 15.8229 184.302 15.5625 183.781 15.25C183.26 14.9375 182.844 14.5625 182.531 14.125C182.24 13.6667 182.094 13.1354 182.094 12.5312C182.094 11.3646 182.479 10.5208 183.25 10C184.021 9.47917 185.156 9.21875 186.656 9.21875C187.448 9.21875 188.208 9.30208 188.938 9.46875C189.688 9.63542 190.292 9.84375 190.75 10.0938ZM208.438 24.0938L205.75 23.9062V13.1562L200.938 1.90625L202.812 0.84375L207.5 10.8438L213.062 1.90625L214.75 2.84375L208.438 13.2188V24.0938ZM216.562 15.5938C216.562 14.4479 216.729 13.4896 217.062 12.7188C217.396 11.9271 217.812 11.3021 218.312 10.8438C218.833 10.3646 219.406 10.0312 220.031 9.84375C220.656 9.63542 221.26 9.53125 221.844 9.53125C222.677 9.53125 223.427 9.65625 224.094 9.90625C224.76 10.1354 225.323 10.5312 225.781 11.0938C226.26 11.6354 226.625 12.3646 226.875 13.2812C227.125 14.1979 227.25 15.3229 227.25 16.6562L218.562 17.5C218.625 18.0833 218.781 18.5833 219.031 19C219.302 19.3958 219.635 19.7188 220.031 19.9688C220.427 20.2188 220.854 20.3958 221.312 20.5C221.771 20.6042 222.24 20.6562 222.719 20.6562C223.51 20.6562 224.271 20.5417 225 20.3125C225.729 20.0833 226.271 19.8021 226.625 19.4688L227.188 20.9688C227.042 21.1771 226.823 21.3854 226.531 21.5938C226.24 21.8021 225.896 21.9792 225.5 22.125C225.104 22.2917 224.656 22.4167 224.156 22.5C223.677 22.6042 223.177 22.6562 222.656 22.6562C221.927 22.6562 221.198 22.5417 220.469 22.3125C219.74 22.0833 219.083 21.6979 218.5 21.1562C217.917 20.6146 217.448 19.8958 217.094 19C216.74 18.0833 216.562 16.9479 216.562 15.5938ZM218.375 15.6562L225.25 14.9062C225.25 13.8854 224.979 13.0729 224.438 12.4688C223.896 11.8438 223.021 11.5312 221.812 11.5312C221.229 11.5521 220.719 11.6771 220.281 11.9062C219.865 12.1354 219.51 12.4271 219.219 12.7812C218.927 13.1146 218.708 13.5 218.562 13.9375C218.417 14.375 218.344 14.8229 218.344 15.2812C218.344 15.4479 218.354 15.5729 218.375 15.6562ZM229.625 8.90625L231.375 9.34375C231.188 10.4062 231.031 11.4271 230.906 12.4062C230.802 13.3854 230.75 14.3021 230.75 15.1562C230.75 15.9479 230.792 16.6562 230.875 17.2812C230.979 17.9062 231.146 18.4479 231.375 18.9062C231.604 19.3646 231.906 19.7188 232.281 19.9688C232.677 20.1979 233.167 20.3125 233.75 20.3125C234.146 20.3125 234.521 20.2083 234.875 20C235.25 19.7708 235.583 19.4062 235.875 18.9062C236.188 18.4062 236.438 17.75 236.625 16.9375C236.812 16.1042 236.938 15.0729 237 13.8438L237.125 9.40625L238.875 9.53125V21.8438L237.312 22.0312L237.25 19.6562C236.979 20.6146 236.49 21.3438 235.781 21.8438C235.073 22.3229 234.25 22.5625 233.312 22.5625C232.542 22.5625 231.875 22.3854 231.312 22.0312C230.75 21.6979 230.281 21.2292 229.906 20.625C229.552 20.0208 229.281 19.2917 229.094 18.4375C228.927 17.5833 228.844 16.6458 228.844 15.625C228.844 14.6875 228.906 13.6667 229.031 12.5625C229.177 11.4375 229.375 10.2188 229.625 8.90625ZM240.812 20.8438L245.219 15.5312L241.062 10.0312L242.5 8.78125L246.469 14.0312L250.5 9.15625L251.938 10.6562L247.719 15.7188L251.688 20.9688L250.25 22.2188L246.469 17.2188L242.188 22.3438L240.812 20.8438Z" fill="#EE8159"/>
</svg>
