<svg width="139" height="23" viewBox="0 0 139 23" fill="none" xmlns="http://www.w3.org/2000/svg">
<path d="M2.75 5.84375V22.0312H0.3125V2.34375L3.3125 1.90625L8.125 14.4062L13.75 2.28125L16.125 2.46875L17.625 22.5312H15.5L14.375 6.09375L8.6875 17.7188L7.3125 17.5312L2.75 5.84375ZM20.0625 8.90625L21.8125 9.34375C21.625 10.4062 21.4688 11.4271 21.3438 12.4062C21.2396 13.3854 21.1875 14.3021 21.1875 15.1562C21.1875 15.9479 21.2292 16.6562 21.3125 17.2812C21.4167 17.9062 21.5833 18.4479 21.8125 18.9062C22.0417 19.3646 22.3438 19.7188 22.7188 19.9688C23.1146 20.1979 23.6042 20.3125 24.1875 20.3125C24.5833 20.3125 24.9583 20.2083 25.3125 20C25.6875 19.7708 26.0208 19.4062 26.3125 18.9062C26.625 18.4062 26.875 17.75 27.0625 16.9375C27.25 16.1042 27.375 15.0729 27.4375 13.8438L27.5625 9.40625L29.3125 9.53125V21.8438L27.75 22.0312L27.6875 19.6562C27.4167 20.6146 26.9271 21.3438 26.2188 21.8438C25.5104 22.3229 24.6875 22.5625 23.75 22.5625C22.9792 22.5625 22.3125 22.3854 21.75 22.0312C21.1875 21.6979 20.7188 21.2292 20.3438 20.625C19.9896 20.0208 19.7188 19.2917 19.5312 18.4375C19.3646 17.5833 19.2812 16.6458 19.2812 15.625C19.2812 14.6875 19.3438 13.6667 19.4688 12.5625C19.6146 11.4375 19.8125 10.2188 20.0625 8.90625ZM32 20.3438V1.46875L34.0625 1.34375V19.5312L36.125 20.0312L35.9375 22.2812L32.5 21.5938L32 20.3438ZM40.6875 21.3438V11.875H37.5L37.6875 9.59375H41.125V3.21875H43.25V9.71875H48.375V11.9688H43.0312V20.0938L47.75 19.2188L48.0625 21.3438L41.8125 22.6562L40.6875 21.3438ZM50.6875 22.0938V10.6562H52.875V22.2188L50.6875 22.0938ZM53.5625 8.09375L51.375 8.71875L49.375 3.96875L51.5625 3.40625L53.5625 8.09375ZM71.8125 13.4688H55.6875L55.8125 11.7812H71.9375L71.8125 13.4688ZM76.5625 5.84375V22.0312H74.125V2.34375L77.125 1.90625L81.9375 14.4062L87.5625 2.28125L89.9375 2.46875L91.4375 22.5312H89.3125L88.1875 6.09375L82.5 17.7188L81.125 17.5312L76.5625 5.84375ZM93.4375 15.5938C93.4375 14.4479 93.6042 13.4896 93.9375 12.7188C94.2708 11.9271 94.6875 11.3021 95.1875 10.8438C95.7083 10.3646 96.2812 10.0312 96.9062 9.84375C97.5312 9.63542 98.1354 9.53125 98.7188 9.53125C99.5521 9.53125 100.302 9.65625 100.969 9.90625C101.635 10.1354 102.198 10.5312 102.656 11.0938C103.135 11.6354 103.5 12.3646 103.75 13.2812C104 14.1979 104.125 15.3229 104.125 16.6562L95.4375 17.5C95.5 18.0833 95.6562 18.5833 95.9062 19C96.1771 19.3958 96.5104 19.7188 96.9062 19.9688C97.3021 20.2188 97.7292 20.3958 98.1875 20.5C98.6458 20.6042 99.1146 20.6562 99.5938 20.6562C100.385 20.6562 101.146 20.5417 101.875 20.3125C102.604 20.0833 103.146 19.8021 103.5 19.4688L104.062 20.9688C103.917 21.1771 103.698 21.3854 103.406 21.5938C103.115 21.8021 102.771 21.9792 102.375 22.125C101.979 22.2917 101.531 22.4167 101.031 22.5C100.552 22.6042 100.052 22.6562 99.5312 22.6562C98.8021 22.6562 98.0729 22.5417 97.3438 22.3125C96.6146 22.0833 95.9583 21.6979 95.375 21.1562C94.7917 20.6146 94.3229 19.8958 93.9688 19C93.6146 18.0833 93.4375 16.9479 93.4375 15.5938ZM95.25 15.6562L102.125 14.9062C102.125 13.8854 101.854 13.0729 101.312 12.4688C100.771 11.8438 99.8958 11.5312 98.6875 11.5312C98.1042 11.5521 97.5938 11.6771 97.1562 11.9062C96.7396 12.1354 96.3854 12.4271 96.0938 12.7812C95.8021 13.1146 95.5833 13.5 95.4375 13.9375C95.2917 14.375 95.2188 14.8229 95.2188 15.2812C95.2188 15.4479 95.2292 15.5729 95.25 15.6562ZM117 0.71875V20.8438L116.188 21.8438C115.5 22.0521 114.854 22.1979 114.25 22.2812C113.646 22.3646 113.073 22.4062 112.531 22.4062C111.26 22.4062 110.188 22.2083 109.312 21.8125C108.458 21.4167 107.76 20.8958 107.219 20.25C106.677 19.6042 106.281 18.8854 106.031 18.0938C105.802 17.3021 105.688 16.5 105.688 15.6875C105.688 14.5417 105.865 13.5729 106.219 12.7812C106.573 11.9688 107.031 11.3021 107.594 10.7812C108.177 10.2604 108.823 9.88542 109.531 9.65625C110.26 9.40625 111 9.28125 111.75 9.28125C112.979 9.28125 114.083 9.55208 115.062 10.0938L115 0.65625L117 0.71875ZM114.938 12.8438C114.458 12.4062 113.938 12.0833 113.375 11.875C112.812 11.6458 112.24 11.5312 111.656 11.5312C111.156 11.5312 110.667 11.625 110.188 11.8125C109.729 11.9792 109.323 12.2396 108.969 12.5938C108.615 12.9271 108.323 13.3542 108.094 13.875C107.885 14.375 107.781 14.9688 107.781 15.6562C107.781 16.4479 107.917 17.125 108.188 17.6875C108.458 18.25 108.812 18.7083 109.25 19.0625C109.708 19.4167 110.229 19.6875 110.812 19.875C111.417 20.0417 112.042 20.125 112.688 20.125C113.521 20.125 114.271 19.9688 114.938 19.6562V12.8438ZM120.188 22.0938V10.6562H122.375V22.2188L120.188 22.0938ZM123.062 8.09375L120.875 8.71875L118.875 3.96875L121.062 3.40625L123.062 8.09375ZM136.312 12.7812L138.312 21.2812L136.438 21.9688L135.312 16.6562C135.167 17.2396 134.938 17.8438 134.625 18.4688C134.333 19.0938 133.958 19.6667 133.5 20.1875C133.062 20.6875 132.531 21.1042 131.906 21.4375C131.302 21.75 130.615 21.9062 129.844 21.9062C128.469 21.9062 127.417 21.4688 126.688 20.5938C125.979 19.6979 125.625 18.4688 125.625 16.9062C125.625 16.0104 125.76 15.0833 126.031 14.125C126.302 13.1458 126.708 12.2604 127.25 11.4688C127.792 10.6771 128.469 10.0208 129.281 9.5C130.115 8.97917 131.083 8.71875 132.188 8.71875C132.833 8.71875 133.396 8.86458 133.875 9.15625C134.375 9.42708 134.792 9.77083 135.125 10.1875C135.458 10.6042 135.719 11.0521 135.906 11.5312C136.094 11.9896 136.229 12.4062 136.312 12.7812ZM132.5 10.9688C132.354 10.9271 132.208 10.8958 132.062 10.875C131.938 10.8542 131.802 10.8438 131.656 10.8438C131.01 10.8438 130.427 11.0417 129.906 11.4375C129.406 11.8125 128.979 12.2917 128.625 12.875C128.292 13.4583 128.031 14.0938 127.844 14.7812C127.677 15.4688 127.594 16.1042 127.594 16.6875C127.594 17.6042 127.792 18.3438 128.188 18.9062C128.583 19.4688 129.208 19.75 130.062 19.75C130.646 19.75 131.188 19.5625 131.688 19.1875C132.188 18.7917 132.615 18.3021 132.969 17.7188C133.323 17.1354 133.594 16.5 133.781 15.8125C133.99 15.1042 134.094 14.4479 134.094 13.8438C134.094 13.1771 133.958 12.5938 133.688 12.0938C133.438 11.5729 133.042 11.1979 132.5 10.9688Z" fill="#EE8159"/>
</svg>
