<svg width="266" height="532" viewBox="0 0 266 532" fill="none" xmlns="http://www.w3.org/2000/svg">
<g clip-path="url(#clip0_57_322)">
<path d="M129.052 0.24942C120.282 1.24692 111.471 4.23944 105.278 8.35413C104.53 8.81131 103.906 9.06068 103.906 8.81131C103.906 8.31256 108.27 4.23944 110.515 2.66006C111.429 1.99506 112.219 1.33007 112.219 1.12225C112.219 0.581941 106.691 0.831307 103.906 1.49631C100.748 2.20287 97.4641 3.9485 92.8506 7.2735C89.8166 9.47631 86.0759 11.6375 85.3278 11.6375C85.1616 11.6375 86.3253 10.266 87.9463 8.60349C92.3934 4.03161 92.3519 4.11475 89.4425 4.77975C82.0028 6.52538 76.6413 9.8088 74.6463 13.7988C73.5241 16.0016 73.0669 19.7422 74.1059 18.1213C76.6413 14.1729 79.8416 9.97507 80.3819 9.97507C80.7144 9.97507 79.7584 13.4663 78.8856 15.0872C78.4284 16.0432 77.0984 18.2875 75.9762 20.0747L73.8981 23.2751L72.6928 21.4048C71.6122 19.7007 70.4484 19.0773 69.7003 19.7838C69.5756 19.9501 69.9081 20.8644 70.4484 21.8204C71.0303 22.7763 71.4875 24.1894 71.4875 24.9791C71.4875 26.6001 70.49 28.2626 69.5341 28.2626C69.0353 28.2626 68.9522 27.8885 69.2016 26.2675C69.4094 24.6882 69.3262 24.1479 68.8275 23.7322C68.2872 23.2751 68.1209 23.2751 67.9963 23.7322C67.2897 25.8935 66.9156 29.4679 66.9156 34.0813C66.9156 38.6116 66.8325 39.4844 66.2922 39.4844C65.9597 39.4844 64.3803 40.6898 62.7594 42.1444C60.1825 44.5135 59.4344 44.9707 55.8184 46.176C50.9141 47.7554 49.1684 48.6282 47.88 49.9998C46.7162 51.2466 46.1759 53.9482 47.0072 54.4885C47.9216 55.0288 48.1294 54.9457 48.8775 53.6157C49.7087 52.2026 50.9972 51.4129 50.2906 52.7844C49.6672 53.9897 49.7919 54.7379 50.9141 56.5251C51.4959 57.4394 51.9531 58.4785 51.9531 58.811C51.9531 59.476 51.9531 59.476 56.5666 58.3538C60.2656 57.4394 61.0969 57.5641 61.0969 58.8941C61.0969 60.4319 59.7253 62.5932 58.3122 63.2997C57.6887 63.6322 55.2781 64.505 52.9506 65.2116C49.0022 66.4585 45.6772 68.4951 46.8825 68.9107C47.6722 69.1601 47.4644 69.9497 45.9681 73.1085C44.3472 76.5582 43.6406 76.3919 43.6406 72.6097C43.6406 70.5316 43.5575 70.1991 42.9756 70.4069C42.6016 70.5316 42.2275 70.6563 42.1444 70.6563C42.0612 70.6563 41.9781 71.3213 41.9781 72.1941C41.9781 73.5241 42.3106 74.0229 44.9706 76.5582L47.9631 79.426L50.7894 78.9688C54.9872 78.3454 56.525 78.4285 56.525 79.2597C56.525 80.5897 54.9456 82.6263 53.1169 83.6654C52.1194 84.2472 49.3762 85.4941 46.9656 86.4501C42.5184 88.2373 39.6922 89.6919 40.0662 90.066C40.1909 90.1907 41.0222 89.9829 41.9781 89.6088C44.2225 88.736 44.2641 88.736 43.1003 90.2738C42.5184 91.0219 41.7703 92.2688 41.3962 92.9754C40.5234 94.721 39.6091 94.721 38.8609 92.9338C38.0712 91.1051 37.4062 90.6479 37.4062 92.0194C37.4062 93.2663 38.9856 95.2198 41.3547 96.8407C42.3106 97.5057 43.3497 98.5863 43.5991 99.2513C44.0978 100.457 44.1809 100.457 45.22 99.9163C46.5084 99.2513 49.3347 99.1682 50.8725 99.7501C51.7037 100.041 51.9531 100.457 51.9531 101.329C51.9531 104.156 49.1269 105.777 41.2716 107.439C33.7487 109.06 32.0862 110.058 33.2916 112.302C33.7903 113.216 33.7903 113.216 34.1228 112.385C34.4137 111.512 35.5359 110.972 36.4087 111.263C36.7828 111.388 36.7828 111.762 36.4503 112.593C36.0762 113.59 36.2009 114.048 37.0737 115.585C38.57 118.204 38.6531 118.619 38.0297 119.866C37.4478 120.947 37.4478 120.947 39.0272 120.947C40.1078 120.947 41.8534 120.324 44.2641 119.077C48.0878 117.123 49.2516 116.957 47.5891 118.619C46.0928 120.116 45.6356 122.651 45.6356 129.052C45.6772 134.704 45.6356 134.829 45.0537 133.125C44.0562 130.34 41.1053 128.428 37.7803 128.428C36.3672 128.428 33.7903 131.005 33.25 132.958C33.0422 133.79 32.8344 136.2 32.8344 138.362V142.268L37.8219 141.936C40.565 141.77 42.8094 141.811 42.8094 141.978C42.8094 142.144 42.4769 142.643 42.1028 143.1C41.6872 143.515 41.2716 144.845 41.1469 146.009L40.9391 148.129L37.8219 148.794C33.915 149.667 26.9741 151.953 25.935 152.742C25.2284 153.283 25.3116 153.283 26.6 152.95C27.3897 152.701 28.0962 152.534 28.1378 152.534C28.1794 152.534 28.0962 153.158 27.9716 153.906C27.8469 154.696 28.0547 155.943 28.4287 156.857C29.2184 158.727 29.3016 161.346 28.6366 162.593C28.1794 163.465 28.2209 163.465 31.9616 163.174C35.6191 162.884 35.7853 162.925 36.7828 163.923C39.1934 166.333 37.4062 168.536 31.6706 170.365C29.4678 171.071 26.7247 171.861 25.6441 172.11C24.2309 172.443 23.6906 172.775 23.8569 173.191C24.9375 175.934 25.3947 179.134 25.1453 181.753L24.8544 184.662L29.3431 184.371C32.8344 184.205 34.1644 184.247 35.1203 184.704L36.3672 185.286L35.0372 185.327C33.25 185.369 32.4187 186.657 32.4187 189.4V191.603H28.6781C24.4387 191.603 21.6125 192.476 18.6616 194.637L16.8328 195.967L18.62 196.217C21.4047 196.591 21.4462 196.799 20.5319 203.823L20.2409 205.859L23.8153 205.568C29.8003 205.069 30.5484 206.233 26.3922 209.475C23.3166 211.886 22.8594 213.091 23.8153 216.458C24.1894 217.746 24.605 219.201 24.7712 219.616C25.0206 220.24 24.9375 220.364 24.4803 220.198C22.3191 219.284 22.4437 219.159 22.4437 222.401C22.4437 225.851 22.1112 226.724 20.9475 226.349C20.2409 226.142 20.1578 226.349 20.1578 228.885C20.1578 230.589 19.9916 231.711 19.7006 231.794C19.3266 231.919 19.1603 230.423 19.0356 226.64C18.9525 222.443 18.7447 221.113 18.1628 220.24C17.4978 219.242 15.8353 218.203 14.9209 218.203C14.7131 218.203 13.7987 219.658 12.9675 221.404L11.4297 224.645L11.3881 235.992C11.305 247.089 11.3466 247.339 12.1778 247.92C12.6766 248.253 13.4247 248.544 13.7987 248.544C14.5053 248.544 14.5053 248.627 13.8819 249.583C13.1753 250.663 13.3831 251.453 14.3806 251.453C15.8769 251.453 18.0797 253.199 24.3141 259.35C30.5069 265.46 32.7097 267.122 35.3281 267.829C36.1178 268.037 36.0347 267.912 34.9541 267.33C32.7097 266.083 30.0081 263.132 27.1819 258.81C25.7272 256.607 24.2725 254.778 23.9816 254.778C23.3997 254.778 21.6125 252.16 21.6125 251.287C21.6125 250.248 22.4437 250.123 22.8178 251.121L23.1503 252.077L23.4828 251.038C24.2309 248.627 24.5634 248.835 26.5584 252.783C32.3772 264.504 41.5625 271.445 65.0453 281.794C73.5241 285.534 73.5656 285.576 73.5656 285.368C73.5656 285.119 70.1991 283.165 61.3047 278.261C52.9922 273.689 47.9216 270.281 44.5966 267.122C42.0197 264.67 39.8169 261.678 39.2766 259.89C39.0687 259.101 39.1519 258.976 39.7753 259.225C40.3987 259.433 40.4403 259.392 40.0247 258.893C39.7753 258.56 39.4844 257.854 39.4012 257.272C39.3181 256.441 38.9856 256.191 37.8219 256.025C36.0347 255.776 35.8684 254.986 36.575 250.913C37.1153 247.879 37.4062 247.754 38.2375 250.414C39.1934 253.531 42.3937 259.142 45.0537 262.509C51.1634 270.115 58.2291 275.144 74.8541 283.664C83.6653 288.153 83.8316 288.236 82.9172 288.943C81.8781 289.732 80.8806 294.761 79.3844 307.147C77.805 319.699 75.7684 331.17 74.9372 332.084C74.8541 332.168 74.8125 330.713 74.8956 328.884C74.9788 326.224 74.8956 325.31 74.3553 324.811C73.7734 324.229 73.5656 324.686 72.1109 329.674C70.8225 334.121 70.49 335.908 70.49 338.734C70.4484 341.81 70.5731 342.475 71.4875 343.93L72.5266 345.592L72.8175 342.475C73.2331 338.277 73.9397 335.077 74.48 334.744C74.7709 334.537 74.8541 334.703 74.6878 335.118C74.1059 336.698 73.9397 339.898 74.3553 341.561C75.0619 344.054 76.2672 345.177 79.5922 346.34C82.2106 347.255 82.5016 347.463 82.6263 348.543C82.7094 349.208 83.7484 351.12 84.9538 352.783L87.1566 355.775L87.4059 354.071C87.6553 352.325 87.9463 351.702 88.3619 352.159C88.7359 352.533 90.44 362.342 91.4375 369.699C93.1 382.375 93.8897 390.812 95.3859 412.924C96.4666 428.842 97.09 437.03 97.5056 440.022L97.755 441.726L98.9188 440.438C100.623 438.443 102.244 434.993 102.909 431.834C103.408 429.424 103.408 428.717 102.867 426.681C101.994 423.397 102.078 422.732 103.283 422.275C104.197 421.943 104.322 421.652 104.322 419.906C104.322 418.784 104.031 416.415 103.698 414.586C103.366 412.757 103.117 410.554 103.075 409.682C103.075 408.185 103.117 408.144 104.447 408.227C105.569 408.352 105.777 408.227 105.652 407.52C105.361 405.65 105.236 405.525 103.324 405.816C102.244 405.983 101.371 405.941 101.246 405.692C101.08 405.484 101.371 403.738 101.87 401.826C102.909 397.878 103.033 394.137 102.493 383.289L102.119 376.058L100.457 374.769C99.5838 374.021 98.5447 372.899 98.2538 372.275C97.6303 371.153 97.6719 371.153 98.7109 371.403C99.6669 371.652 99.75 371.527 99.75 370.322C99.75 369.574 99.4591 367.288 99.085 365.251C98.2538 360.804 98.5863 358.768 100.623 355.318C101.413 353.946 102.078 352.118 102.285 350.58C103.075 345.177 102.493 336.656 101.163 334.038C100.581 332.916 99.2097 332.5 98.7109 333.331C98.5863 333.581 98.6278 333.747 98.8772 333.747C99.085 333.747 99.6669 334.37 100.124 335.16C100.914 336.407 100.955 336.823 100.581 338.402C100.373 339.358 100.166 342.226 100.166 344.678C100.166 349.291 99.6669 351.286 98.3369 352.409C97.7134 352.949 97.6719 352.907 98.0875 351.785C98.6694 350.289 98.3784 348.585 96.8822 344.803C96.2172 343.182 95.5938 341.062 95.4275 340.064L95.1781 338.277L96.5497 338.527C97.6719 338.734 98.0459 338.651 98.2538 338.069C98.6694 336.989 98.0044 336.781 92.9338 336.449C86.0344 336.033 86.2838 336.158 86.5747 333.331C86.7825 330.921 88.2788 327.263 89.8166 325.476C90.6478 324.437 91.0634 324.562 91.5622 326.058C91.6453 326.307 93.3078 326.432 95.6769 326.349C98.2122 326.266 99.7916 326.39 99.9578 326.681C100.083 326.931 99.8331 327.762 99.3344 328.552C98.5447 329.84 98.5031 330.048 99.1266 330.256C99.5006 330.422 100.166 330.173 100.706 329.674C101.205 329.217 102.161 328.635 102.784 328.385C104.447 327.762 107.231 327.804 107.481 328.469C107.605 328.801 107.148 331.004 106.483 333.373C104.073 341.852 103.075 350.58 103.906 355.983C104.571 360.43 105.61 362.924 109.517 369.075C113.092 374.728 115.378 379.549 115.793 382.167C115.918 383.206 115.752 384.869 115.336 386.531C113.757 392.392 115.336 415.5 120.116 457.104C120.531 460.804 120.448 461.219 118.952 463.547C117.788 465.292 117.954 465.749 119.991 466.165C121.737 466.498 122.235 465.542 122.111 462.092C122.028 460.637 122.152 458.975 122.36 458.351C122.651 457.354 122.568 457.146 121.529 456.689L120.407 456.149L120.656 444.511C120.822 438.11 121.155 429.59 121.446 425.6C121.695 421.61 121.944 409.515 121.944 398.751L121.986 379.175L119.7 376.764C118.453 375.434 116.624 373.522 115.627 372.525C114.671 371.569 113.964 370.738 114.048 370.738C114.962 370.738 118.827 372.442 122.152 374.312C127.971 377.595 130.756 378.385 136.242 378.136C139.65 378.011 141.188 377.72 142.767 377.014C144.679 376.182 147.547 373.896 147.547 373.19C147.547 373.065 146.383 372.608 145.012 372.192C139.941 370.779 133.582 368.535 131.171 367.329C127.638 365.542 124.48 362.425 123.441 359.64C122.568 357.271 122.277 352.866 123.025 352.866C123.898 352.866 125.976 354.154 128.013 355.983C129.176 357.022 130.465 357.853 130.922 357.853C131.338 357.853 132.003 357.978 132.418 358.144C133.042 358.352 133.083 358.227 132.834 356.773C132.418 354.694 131.628 353.157 129.467 350.372C126.849 346.964 126.267 345.592 126.433 343.348C126.558 342.309 126.766 341.104 126.932 340.729C127.181 340.148 127.057 339.981 126.392 339.981C125.934 339.981 125.353 340.231 125.145 340.522C122.277 344.013 122.152 343.971 123.233 339.774C124.23 335.95 126.267 332.583 129.675 329.175C133.166 325.642 136.533 323.439 140.357 322.151C143.1 321.237 147.713 320.987 148.794 321.694C149.251 321.985 148.918 322.109 147.547 322.109C145.427 322.151 141.645 323.315 141.437 324.021C141.188 324.811 144.471 325.85 150.955 327.097C154.28 327.762 158.187 328.759 159.558 329.3C160.972 329.882 162.094 330.256 162.094 330.214C162.094 330.131 160.888 329.134 159.351 327.928C156.192 325.434 155.818 324.728 156.982 323.772C157.854 323.065 157.854 323.065 156.15 321.943C152.576 319.616 145.136 318.119 139.567 318.535C130.88 319.159 125.976 322.733 125.934 328.427C125.934 330.464 125.768 330.962 124.48 332.5C121.03 336.656 118.453 344.512 118.453 351.12C118.453 357.313 120.739 364.254 124.023 368.078C126.059 370.447 129.343 372.442 132.543 373.314L135.286 374.021H132.003L128.719 374.063L126.973 372.234C126.018 371.236 124.106 369.657 122.734 368.743C121.321 367.787 119.575 366.29 118.786 365.334C116.375 362.55 115.378 358.061 116.375 354.611C116.583 353.822 117.04 351.12 117.414 348.585C118.952 337.82 123.856 315.169 126.516 306.357C127.264 303.988 127.597 301.869 127.597 299.832C127.597 297.214 127.722 296.673 128.678 295.551C129.259 294.844 129.924 294.263 130.091 294.263C130.88 294.263 132.21 296.174 132.875 298.294C133.249 299.499 133.623 300.414 133.748 300.331C133.831 300.206 133.956 299.167 134.039 298.003C134.288 294.346 134.538 294.263 140.772 295.676C146.716 297.006 164.754 297.214 171.238 296.008L173.108 295.676L170.489 295.343C166.499 294.886 161.263 293.224 157.023 291.104L153.241 289.192L156.732 285.701C158.603 283.789 160.099 282.126 159.974 282.043C159.849 281.919 158.561 282.376 157.065 283.082C152.701 285.202 152.451 285.244 152.742 284.288C152.992 283.498 152.867 283.456 151.371 283.706C149.874 283.955 149.459 283.747 146.633 281.794L143.515 279.633L139.193 279.3C133.831 278.926 130.049 277.679 121.57 273.398C112.51 268.826 105.984 263.423 103.491 258.394C102.784 256.939 102.161 255.069 102.119 254.196C102.036 253.365 101.787 252.492 101.496 252.326C101.08 252.077 101.08 251.703 101.413 250.871C101.62 250.248 101.828 249.25 101.828 248.627C101.787 247.505 101.787 247.505 101.08 248.378C100.373 249.209 100.373 249.084 100.332 245.26C100.332 239.566 98.9188 235.576 95.5938 231.794C93.1831 229.093 90.7309 227.721 87.6969 227.472C85.6188 227.264 84.9122 227.388 83.0419 228.303C80.1741 229.716 78.0959 231.794 78.9688 232.334C79.5091 232.667 79.5091 232.916 78.8856 234.038C77.9713 235.576 77.9297 236.075 78.7194 236.075C79.0519 236.075 79.8416 234.87 80.5481 233.457C81.2963 231.836 82.2938 230.423 83.0834 229.841C84.7459 228.677 85.1616 229.009 84.0394 230.547C80.2156 235.992 78.3453 243.764 79.3428 250.206C79.8 253.074 81.8781 260.098 82.6678 261.387C83.2497 262.301 85.1616 261.553 85.9513 260.181C86.3253 259.475 86.9903 258.934 87.3644 258.934C88.6528 258.934 88.5281 259.641 87.0734 260.763C85.0784 262.301 84.5381 263.423 85.3694 264.254C85.8681 264.795 86.1175 264.836 86.5331 264.421C87.3228 263.631 88.5697 263.839 89.4425 264.961C90.6478 266.54 96.3419 270.115 103.906 274.105C107.688 276.1 111.678 278.386 112.801 279.175C114.255 280.214 114.92 280.505 115.253 280.173C115.502 279.924 116.25 279.716 116.874 279.716C117.747 279.716 118.038 279.923 118.038 280.547C118.038 281.544 119.409 282.293 123.856 283.706C125.727 284.288 127.555 285.077 127.929 285.451C128.594 286.116 128.761 286.075 131.005 285.036C132.293 284.412 133.457 283.706 133.623 283.456C133.79 283.207 134.413 283.456 135.286 284.121C136.533 285.077 136.907 285.16 139.193 284.869C142.518 284.495 142.476 285.16 139.11 286.49C130.506 289.94 120.573 288.776 108.686 282.958C107.107 282.168 101.87 279.508 97.1316 277.056C92.3934 274.562 88.4034 272.65 88.2788 272.775C88.1541 272.858 90.0244 274.188 92.3519 275.684C96.2588 278.178 99.1681 280.547 98.2953 280.547C98.1291 280.547 96.2588 279.757 94.1806 278.76C86.0759 274.936 79.3428 269.45 75.81 263.839C74.6463 262.01 73.0669 258.186 73.2331 257.646C73.4825 256.939 76.5166 261.179 76.3088 261.969C76.1841 262.426 76.3919 262.8 76.8075 262.966C77.1816 263.091 78.0959 263.673 78.8441 264.213L80.1741 265.169L79.5922 263.756C79.2597 262.966 78.8025 261.511 78.5531 260.472C77.8881 257.355 77.3478 256.274 76.7659 256.773C76.3503 257.106 76.2672 256.565 76.3919 254.196C76.5997 250.373 75.1866 246.009 72.3603 241.603L70.3653 238.486L71.0719 235.992C71.4875 234.662 71.9447 232.792 72.1109 231.877C72.5266 229.467 73.3163 230.09 73.5656 233.041C73.8981 237.322 74.8956 237.156 75.6438 232.667C76.5166 227.555 75.6022 223.98 72.2772 219.575C70.6978 217.497 70.6978 217.372 71.5706 217.372C73.5241 217.372 73.7319 216.707 72.1525 215.502C71.3213 214.878 70.6562 214.213 70.6562 214.047C70.6562 213.839 71.6538 213.34 72.8591 212.925C74.6047 212.343 76.3088 212.177 81.4625 212.177C88.4866 212.177 92.1441 212.758 98.5031 214.837C100.54 215.543 103.532 216.125 105.569 216.291C112.967 216.873 118.37 218.079 134.87 222.775C150.332 227.181 155.859 228.386 162.302 228.677L164.795 228.802L165.918 226.723C166.541 225.56 167.414 223.523 167.871 222.193C168.578 219.949 168.661 219.783 169.118 220.572C169.908 222.069 169.658 223.689 168.12 226.848C167.331 228.511 166.873 229.841 167.04 229.841C167.58 229.841 170.282 226.723 171.071 225.186C172.027 223.357 172.318 218.66 171.57 217.704C170.863 216.79 151.038 210.847 136.45 207.189C128.885 205.319 114.214 202.243 110.141 201.744C108.146 201.495 107.605 201.204 105.569 199.251C103.324 197.131 103.241 197.089 102.119 197.671C98.2538 199.708 87.0734 198.129 84.0394 195.094C82.7925 193.848 82.5847 193.764 82.0028 194.305C81.6703 194.637 80.7144 194.928 79.8416 194.928C78.47 194.928 78.2206 194.762 77.5972 193.474C76.9322 192.06 76.9322 192.019 77.8466 191.395C80.0078 189.982 82.5847 189.442 87.78 189.234C93.6403 188.985 96.9238 189.442 100.332 190.938C102.659 192.019 104.654 193.848 103.948 194.305C103.283 194.679 103.408 195.759 104.114 195.759C104.488 195.759 104.738 195.385 104.738 194.803C104.738 194.305 105.028 193.432 105.403 192.892C106.068 191.977 106.275 191.936 109.018 192.185C110.639 192.351 114.879 193.099 118.412 193.889C124.438 195.219 129.135 196.508 145.469 201.329C155.236 204.197 161.803 205.693 166.998 206.233C171.362 206.732 172.235 206.981 171.238 207.605C170.656 207.979 170.739 208.644 171.362 208.644C172.069 208.644 174.313 206.275 175.103 204.654C176.017 202.908 177.223 198.004 176.932 197.297C176.641 196.549 165.751 191.894 157.938 189.193C142.643 183.914 121.861 179.01 99.5422 175.394C88.6528 173.648 89.6919 174.022 90.44 172.235C91.1881 170.489 91.0634 168.494 90.2738 168.661C89.9413 168.702 89.8166 168.619 89.9413 168.411C90.3153 167.788 99.1681 167.497 104.654 167.913C115.461 168.785 123.441 170.614 144.887 177.223C162.925 182.75 169.367 184.413 176.059 185.161L178.594 185.452L179.508 183.291C180.797 180.34 181.42 177.139 181.046 175.352C180.797 173.898 180.589 173.773 176.932 172.152C162.967 166.001 143.349 160.14 123.856 156.317C120.323 155.61 117.04 154.945 116.583 154.82C116.001 154.696 115.544 153.948 115.045 152.243C114.629 150.913 113.84 149.251 113.299 148.586L112.26 147.339L112.219 148.628C112.219 149.334 112.427 150.498 112.676 151.246C113.299 153.033 112.925 153.948 111.762 153.366C111.304 153.075 108.437 152.701 105.444 152.493C96.7575 151.869 95.2613 151.163 95.76 147.879C95.9263 146.882 96.3419 145.635 96.7159 145.095C97.3394 144.097 97.4225 144.097 102.202 144.388C111.471 144.928 121.446 146.591 132.377 149.417C141.437 151.745 161.886 158.229 169.243 161.138C174.895 163.341 174.978 163.341 178.22 163.091C181.005 162.842 181.587 162.925 182.168 163.548C182.584 163.964 183 164.213 183.083 164.089C183.374 163.798 185.743 156.483 185.992 154.987C186.242 153.615 186.117 153.366 184.621 152.077C180.464 148.544 175.726 146.508 162.925 142.726C140.938 136.2 135.328 134.704 126.807 133.166C124.313 132.709 122.609 132.169 122.111 131.67C121.695 131.254 121.196 130.922 120.947 130.922C120.739 130.922 120.531 130.548 120.531 130.091C120.531 129.384 120.365 129.301 119.409 129.55C118.744 129.758 116.001 129.883 113.258 129.883C109.226 129.883 107.688 129.717 105.361 128.969C101.329 127.639 101.413 127.763 101.911 125.103C102.535 121.529 102.244 121.612 110.556 121.903C121.072 122.235 128.345 123.856 148.378 130.298C168.785 136.865 175.311 138.694 182.833 140.066C185.452 140.523 187.821 140.897 188.112 140.897C189.193 140.897 190.273 135.244 190.024 130.88C189.941 129.426 189.858 129.343 186.325 127.68C177.971 123.815 166.333 119.908 144.638 113.673C138.569 111.928 131.13 109.767 128.137 108.811C122.776 107.107 122.609 107.023 122.609 105.901C122.609 105.278 122.443 104.738 122.194 104.738C121.986 104.738 121.778 105.112 121.778 105.569C121.778 106.068 121.279 106.899 120.698 107.522C119.742 108.478 119.409 108.561 116.832 108.395C114.837 108.312 112.842 107.772 109.808 106.608C105.195 104.821 105.195 104.821 106.774 102.078C108.561 98.9188 111.138 98.4201 119.077 99.7501C125.02 100.748 127.763 100.623 130.298 99.3344L131.836 98.5447L131.628 99.4591C131.545 99.9579 131.296 100.664 131.171 101.039C130.922 101.62 131.13 101.745 132.335 101.745C133.125 101.745 134.995 102.244 136.533 102.867C138.86 103.782 139.525 103.906 140.564 103.532C142.31 102.909 142.393 102.95 141.479 103.948C140.814 104.654 140.814 104.862 141.313 105.195C142.185 105.735 148.544 107.772 154.82 109.434C157.813 110.265 165.71 112.718 172.443 114.879C185.41 119.118 191.936 120.989 192.185 120.573C193.058 119.16 194.513 112.967 194.513 110.806V108.146L185.701 104.405C166.832 96.3419 150.165 91.0219 135.909 88.5282C134.413 88.2373 133 87.8632 132.751 87.6554C132.46 87.4476 131.13 86.6994 129.717 86.0344C128.303 85.3279 127.181 84.6213 127.181 84.4135C127.181 84.2057 126.475 84.4135 125.643 84.8707C124.313 85.5357 123.524 85.6604 120.739 85.4941C117.331 85.2447 112.634 83.9147 111.803 82.9172C111.221 82.2107 111.969 79.1351 112.967 77.9713C113.59 77.3063 114.131 77.2648 118.453 77.5141C129.218 78.1376 138.486 79.8416 149.417 83.2082C151.703 83.9148 160.598 87.0735 169.159 90.1907C185.493 96.2172 192.725 98.6279 193.307 98.2954C193.473 98.1707 194.014 96.7991 194.554 95.2613C195.676 91.7701 196.383 90.8973 197.505 91.4791C197.962 91.7285 198.419 91.8116 198.503 91.7285C198.918 91.3129 198.752 88.6944 198.212 87.2397C197.713 85.8682 197.339 85.6188 192.518 83.5822C183.789 79.8416 177.098 77.431 159.808 71.6954C150.664 68.6613 140.938 65.4194 138.237 64.4219L133.291 62.6763L130.091 63.2166C127.389 63.6322 126.35 63.6323 122.859 63.0088C120.656 62.6348 117.871 61.9282 116.749 61.471C114.754 60.5982 114.713 60.5566 115.419 59.7669C115.835 59.3097 116.541 58.146 116.998 57.1901L117.83 55.486L122.609 55.5276C135.037 55.6107 148.544 59.1019 174.355 68.9107C179.176 70.7394 185.161 72.9007 187.655 73.7319C191.811 75.1035 199.916 77.3063 200.788 77.3063C201.537 77.3063 202.95 73.6904 203.158 71.2382C203.532 66.3754 203.407 66.2507 195.011 62.3438C170.24 50.7894 154.363 45.511 136.159 42.8094C133.166 42.3523 129.01 41.8535 126.89 41.7288C123.316 41.4794 123.025 41.3963 122.194 40.2325C121.279 38.9857 121.279 38.861 121.529 27.9716L121.778 16.9576L123.441 15.0457C125.228 13.0507 125.768 11.7622 125.394 10.3907C125.228 9.80881 125.394 9.55942 125.851 9.55942C126.267 9.55942 127.514 9.10223 128.636 8.56192C130.215 7.8138 130.548 7.52287 130.008 7.2735C129.633 7.14881 128.761 7.31505 128.054 7.68912C126.392 8.52037 125.602 8.10473 126.641 6.98254C127.057 6.52536 127.597 5.32007 127.805 4.28101L128.22 2.41068L130.298 2.32755C131.712 2.28598 132.958 1.91194 134.247 1.12225L136.117 6.10352e-05L133.208 0.0831909C131.628 0.0831909 129.758 0.207858 129.052 0.24942ZM84.5797 167.372C85.4941 167.705 86.9072 168.12 87.6969 168.328C88.4866 168.494 88.9022 168.661 88.6528 168.702C88.3203 168.744 88.1125 169.409 88.1125 170.573C88.1125 172.651 87.78 172.9 85.0784 172.9C82.1691 172.9 80.3403 172.152 79.0934 170.531C78.4284 169.658 77.3478 168.37 76.6413 167.622L75.3113 166.25L79.135 166.541C81.2131 166.666 83.6653 167.04 84.5797 167.372Z" fill="black"/>
<path d="M143.598 2.49367C140.481 2.99242 137.489 3.74054 136.948 4.19773C136.283 4.86273 141.313 4.61335 142.559 3.94835C143.266 3.57429 143.806 3.40804 143.806 3.57429C143.806 3.69898 141.146 6.56679 137.946 9.93335C134.704 13.2584 131.296 17.0821 130.382 18.3705C129.426 19.7005 128.511 20.7812 128.345 20.7812C127.805 20.7812 127.971 19.2434 128.678 17.7055C129.343 16.334 129.259 14.9624 128.511 14.9624C127.846 14.9624 125.394 20.8643 125.186 22.9009C125.02 24.8127 125.062 24.8959 126.766 26.1427C129.218 27.8884 131.338 28.3871 135.244 28.1377C137.988 27.9715 139.11 27.639 141.894 26.2674C145.843 24.314 147.63 22.5684 148.337 19.9499C149.002 17.7055 150.041 16.1677 151.869 14.7546L153.241 13.7155L155.153 14.5052C156.15 14.9624 160.016 16.043 163.673 16.9574C171.944 19.0355 174.895 20.324 177.098 22.7762L178.719 24.6465L180.506 23.9399C182.792 23.0671 183 23.1087 182.459 24.1477C181.794 25.3946 182.626 27.1402 184.621 28.7196C186.325 30.0912 187.447 31.8368 187.447 33.2084C187.447 33.8318 187.821 34.1227 189.026 34.289C191.645 34.7462 193.64 35.328 193.889 35.7021C194.014 35.9099 193.931 36.5749 193.681 37.1984C193.307 38.1543 193.432 38.4452 194.513 39.4843C195.926 40.8143 196.05 41.3546 195.094 41.8949C194.513 42.2274 194.803 42.4352 196.466 42.9755C197.588 43.3496 200.664 45.0537 203.282 46.7162C207.854 49.7087 207.937 49.8334 206.566 49.958C204.862 50.1243 204.529 50.8309 205.942 51.4543C206.524 51.7037 207.563 52.8674 208.27 54.0312C208.976 55.1534 209.932 56.3587 210.348 56.6912C211.179 57.2315 211.179 57.3146 210.473 59.4343C209.766 61.5955 209.766 61.6787 210.763 64.7959C211.304 66.5415 211.719 68.6612 211.719 69.534C211.719 70.9887 211.803 71.1134 212.758 70.9887C213.59 70.9055 213.964 70.4899 214.463 68.9937C214.92 67.6221 215.377 67.0818 216.042 66.9987C217.164 66.8324 217.164 66.5415 216.125 73.2746C215.169 79.2596 214.421 82.5431 213.382 85.0368C212.8 86.4084 212.675 86.5331 212.301 85.8681C211.719 84.829 212.177 81.7949 213.423 78.179C214.67 74.6462 214.712 74.2305 213.631 73.1499C212.177 71.6952 211.678 72.0693 211.886 74.563C212.093 77.1399 210.971 80.0493 208.436 83.5821C207.646 84.7043 206.981 85.7018 206.981 85.7849C206.981 85.9096 207.397 86.0343 207.937 86.1174C209.018 86.2837 209.101 87.4474 208.228 92.2687C207.896 94.0974 207.646 98.2537 207.646 102.327C207.646 108.894 207.397 110.431 206.773 107.647C206.316 105.569 205.859 105.86 205.568 108.395C205.402 109.725 204.654 113.507 203.864 116.832C202.035 124.48 202.035 124.521 203.989 125.394C206.192 126.391 206.981 127.181 206.981 128.303C206.981 129.592 206.025 129.55 205.153 128.179C204.571 127.347 204.155 127.14 203.116 127.264C200.996 127.472 199.999 130.007 199.458 136.325C199.168 139.982 198.461 143.681 197.173 148.711C195.261 156.233 194.928 159.6 195.926 161.886C196.424 163.091 196.466 163.008 196.715 159.932C197.089 155.444 198.004 151.163 199.999 144.637C200.955 141.562 202.035 137.696 202.451 136.117L203.199 133.208V135.327C203.282 141.229 200.913 158.353 198.212 171.03C197.089 176.474 194.055 188.486 193.473 189.982C193.307 190.481 193.515 190.73 194.263 190.938C195.635 191.271 195.676 191.977 194.346 191.728C193.141 191.478 193.058 191.769 191.063 201.37C189.899 207.023 189.774 208.394 189.691 216.125C189.65 220.821 189.608 224.811 189.567 225.019C189.567 225.227 189.068 224.978 188.528 224.479L187.53 223.523L187.198 225.518C186.242 231.378 187.281 237.862 190.356 244.969C191.853 248.419 192.06 248.751 193.058 248.668C194.222 248.585 196.217 247.463 199.625 245.011C203.532 242.226 206.732 242.101 213.008 244.512C216.832 245.967 220.281 246.673 220.281 246.008C220.281 245.801 220.115 245.634 219.866 245.634C219.616 245.634 219.45 244.512 219.45 243.141C219.45 240.439 219.492 240.397 221.985 241.104C223.315 241.52 223.731 241.478 224.687 240.896C225.643 240.231 225.726 239.982 225.518 238.652C225.352 237.779 225.144 236.407 225.019 235.535C224.853 234.703 224.562 233.872 224.354 233.747C224.147 233.581 221.403 232.584 218.286 231.461C213.049 229.591 208.228 226.973 208.228 226.017C208.228 225.809 208.602 225.851 209.018 226.1C210.556 226.89 211.512 226.599 212.135 225.102C213.049 222.858 214.13 222.526 216.665 223.648C218.411 224.354 224.313 226.516 224.645 226.516C224.687 226.516 224.853 225.767 224.978 224.811C225.269 222.609 226.266 221.528 228.012 221.528C228.76 221.528 229.508 221.32 229.633 221.112C229.799 220.863 229.674 219.658 229.425 218.369C228.76 215.169 227.139 213.506 221.736 210.514C219.325 209.142 217.039 207.729 216.665 207.314C216.042 206.607 216.083 206.566 217.039 206.566C218.328 206.566 219.118 205.693 219.034 204.404C218.827 201.827 219.408 201.786 224.479 204.28C228.386 206.191 229.217 206.358 229.217 205.277C229.217 204.945 230.298 203.989 231.628 203.116C234.288 201.329 234.413 200.955 233.124 197.962C232.667 196.84 232.376 195.51 232.501 194.886C232.667 193.931 232.418 193.681 228.178 191.645C225.684 190.439 223.274 189.026 222.775 188.486L221.861 187.53L223.606 185.951C224.895 184.745 225.31 184.163 225.144 183.415C225.061 182.875 225.144 182.459 225.352 182.459C225.518 182.459 227.181 183.207 229.009 184.122C232.418 185.826 234.537 186.325 233.581 185.202C232.792 184.205 233.249 182.667 234.329 182.542C235.202 182.418 235.244 182.501 234.87 183.249C234.246 184.413 234.288 184.537 235.41 184.537C236.241 184.537 236.449 184.246 236.865 182.709C237.53 180.049 237.405 177.929 236.532 176.017C235.659 174.022 232.334 170.946 229.134 169.118C226.973 167.871 226.848 167.746 227.763 167.414C228.635 167.081 228.677 166.873 228.428 165.045C227.97 161.553 229.009 161.429 233.789 164.338C236.989 166.25 239.109 166.375 238.112 164.546C237.613 163.59 237.821 163.548 239.442 164.421C241.644 165.543 241.852 165.128 241.644 160.556C241.312 153.615 241.478 154.031 237.654 152.077C235.327 150.83 233.955 149.791 233.124 148.669C232.459 147.755 231.919 146.84 231.919 146.674C231.919 146.508 232.542 146.466 233.332 146.591C235.036 146.84 235.452 146.341 234.496 145.011C233.831 144.097 233.332 142.144 233.748 142.144C233.831 142.144 234.87 142.767 236.033 143.557C237.904 144.804 240.481 145.967 243.432 146.882C244.803 147.297 245.26 145.843 245.51 139.941C245.801 134.247 245.884 134.371 241.437 131.753C238.735 130.132 235.659 127.555 235.659 126.849C235.659 126.682 236.158 126.516 236.74 126.558C237.363 126.558 238.028 126.225 238.319 125.851C238.693 125.228 238.444 124.771 236.74 123.066C235.368 121.695 234.787 120.781 234.953 120.323C235.202 119.783 235.618 119.908 237.613 121.279C242.309 124.438 243.432 124.771 245.718 123.607L246.964 122.942L246.673 125.061C246.341 127.389 246.84 128.428 248.17 128.428C249.209 128.428 249.541 126.932 249.209 123.441C248.959 121.238 249.043 120.282 249.583 119.326C249.915 118.619 250.414 118.037 250.622 118.037C252.368 118.037 248.336 113.964 242.933 110.265C239.317 107.813 236.324 105.153 237.156 105.153C237.363 105.153 238.527 105.818 239.691 106.608C240.896 107.397 241.977 108.062 242.102 108.062C242.517 108.062 242.309 105.527 241.852 104.613C241.561 104.114 240.398 102.701 239.234 101.454C236.574 98.5862 237.322 98.1706 240.813 100.623C246.798 104.821 248.668 105.984 249.292 105.984C249.749 105.943 249.624 105.735 248.876 105.319C247.338 104.53 246.673 103.2 247.338 102.41C248.461 101.038 250.248 102.451 250.996 105.319C251.245 106.317 251.703 107.314 252.035 107.605C252.492 107.979 252.742 107.813 253.282 106.649C254.529 103.989 253.864 101.579 250.622 96.7574C248.71 94.0143 249.167 93.6818 251.827 95.8015C252.949 96.7159 253.822 97.1315 254.072 96.8821C255.028 95.9262 251.619 92.6427 244.18 87.4059C241.437 85.494 238.652 83.4574 237.945 82.9171C235.659 81.0468 237.696 81.8365 241.104 84.164C245.801 87.3643 247.131 87.1981 245.801 83.5406C245.468 82.5015 244.346 78.9687 243.39 75.6437C241.104 67.9546 240.979 67.6221 234.62 56.4834C223.191 36.4502 220.738 33.998 206.441 28.6365C202.742 27.2649 200.498 26.1012 197.505 23.9815C195.302 22.4437 192.185 20.5318 190.564 19.7421C187.655 18.329 181.046 16.6249 172.484 15.1702C168.619 14.5052 160.016 14.2559 158.644 14.7962C158.104 15.004 157.938 14.8377 158.021 14.0896C158.145 13.2584 157.896 13.0921 156.566 12.8427C154.737 12.5518 153.989 11.9699 154.322 11.0555C154.696 10.0996 163.05 10.1827 171.695 11.2218C178.095 12.0115 188.112 12.2609 186.616 11.5543C185.784 11.1802 168.411 5.65242 164.795 4.61335C157.688 2.57679 148.835 1.70398 143.598 2.49367Z" fill="black"/>
<path d="M136.367 6.85768C135.66 7.64736 134.787 8.89424 134.455 9.6008C133.831 10.8061 133.831 10.8477 134.538 10.4736C134.953 10.2242 135.66 9.64236 136.076 9.18518C136.533 8.68643 137.198 8.31236 137.655 8.31236C138.237 8.31236 138.403 7.97986 138.403 6.85768C138.403 5.02893 137.987 5.02893 136.367 6.85768Z" fill="black"/>
<path d="M70.6147 12.2194C67.83 13.1753 65.5025 15.295 62.5515 19.5344C61.6787 20.7812 60.4734 22.4437 59.8915 23.2334C58.894 24.5634 58.894 24.605 59.6837 24.3556C60.889 23.9815 61.9281 24.4387 61.9281 25.3531C61.9281 25.7687 61.554 27.0156 61.0969 28.0962C60.224 30.1328 60.1409 32.4603 60.889 32.7097C61.554 32.9175 64.3387 28.0547 68.495 19.5344C70.5731 15.295 72.194 11.8037 72.194 11.7622C72.1525 11.7622 71.4459 11.9284 70.6147 12.2194Z" fill="black"/>
<path d="M56.6913 31.6705C57.0238 33.7071 57.1069 33.8318 57.9797 33.5408C58.7694 33.2083 58.7694 32.0446 57.9381 30.8393C56.8991 29.343 56.4003 29.7171 56.6913 31.6705Z" fill="black"/>
<path d="M196.549 94.3884C195.177 95.76 193.847 99.75 194.762 99.75C196.133 99.75 198.212 96.5497 198.253 94.43C198.253 93.2662 197.671 93.2662 196.549 94.3884Z" fill="black"/>
<path d="M192.143 170.822C191.395 173.025 190.772 175.311 190.772 175.934C190.772 176.973 190.855 177.056 191.645 176.641C192.975 175.893 194.097 173.025 194.097 170.198C194.097 168.827 193.931 167.497 193.764 167.248C193.598 166.998 192.85 168.619 192.143 170.822Z" fill="black"/>
<path d="M182.958 172.11L182.002 173.316L182.917 174.646C183.582 175.56 183.914 175.768 184.039 175.352C184.163 175.02 184.413 174.521 184.662 174.23C184.995 173.814 185.161 173.814 185.41 174.23C185.577 174.521 185.868 174.646 185.992 174.479C186.158 174.313 184.496 171.362 183.997 170.988C183.956 170.947 183.498 171.487 182.958 172.11Z" fill="black"/>
<path d="M189.941 181.046C189.941 182.792 189.442 187.031 188.86 190.522C187.572 198.17 187.073 203.241 187.405 205.028C187.904 207.314 191.063 190.98 191.811 182.335C192.102 179.01 191.769 177.887 190.523 177.887C190.065 177.887 189.941 178.636 189.941 181.046Z" fill="black"/>
<path d="M183.374 179.342C182.709 180.838 182.75 182.044 183.498 182.044C183.831 182.044 184.122 181.711 184.122 181.254C184.122 180.838 184.413 180.257 184.745 179.966C185.618 179.259 185.535 178.303 184.621 178.303C184.163 178.303 183.623 178.76 183.374 179.342Z" fill="black"/>
<path d="M17.0406 192.85C17.0406 193.889 17.2068 194.097 18.0797 194.097C18.9525 194.097 19.1187 193.889 19.1187 192.85C19.1187 191.811 18.9525 191.603 18.0797 191.603C17.2068 191.603 17.0406 191.811 17.0406 192.85Z" fill="black"/>
<path d="M185.161 209.184C184.787 211.013 185.036 212.467 185.701 212.717C186.034 212.841 186.2 212.218 186.2 210.556C186.2 207.937 185.535 207.106 185.161 209.184Z" fill="black"/>
<path d="M93.5156 225.892C92.2688 226.557 92.3103 226.806 93.6403 227.721C94.1806 228.095 95.6353 229.55 96.8406 231.004C98.7941 233.373 101.038 235.244 101.953 235.244C102.493 235.244 101.828 231.503 100.872 229.3C99.376 225.726 96.3419 224.313 93.5156 225.892Z" fill="black"/>
<path d="M112.302 254.612C112.468 255.942 113.632 256.856 114.297 256.191C114.629 255.859 114.505 255.402 113.757 254.612C112.468 253.24 112.136 253.24 112.302 254.612Z" fill="black"/>
<path d="M82.0859 268.078C82.2106 268.286 82.5431 268.494 82.7509 268.494C83.0003 268.494 83.0418 268.286 82.9172 268.078C82.7925 267.829 82.46 267.662 82.2522 267.662C82.0028 267.662 81.9612 267.829 82.0859 268.078Z" fill="black"/>
<path d="M137.406 325.476C136.283 326.598 136.242 326.723 136.865 327.679C137.239 328.219 138.32 329.216 139.318 329.881C140.273 330.546 141.354 331.544 141.687 332.167C142.268 333.165 142.227 333.331 141.022 334.744C139.193 336.822 137.78 339.316 136.741 342.475C135.618 345.841 135.161 353.24 135.868 356.648C136.948 361.926 140.107 366.207 144.139 367.994C145.884 368.784 146.051 368.784 148.503 368.119C149.916 367.703 152.825 366.997 154.945 366.498C157.065 365.999 158.769 365.376 158.769 365.085C158.769 364.836 158.478 363.796 158.145 362.841C157.314 360.513 157.356 359.432 158.312 358.186L159.101 357.188L156.857 354.112C155.61 352.408 152.036 347.213 148.96 342.558C144.554 335.95 143.432 333.996 143.806 333.539C144.056 333.248 145.136 332.666 146.175 332.334C152.077 330.339 157.439 332.957 160.556 339.275C161.969 342.184 162.468 344.47 162.509 348.086C162.551 352.201 163.341 350.621 163.632 345.883C163.881 341.519 163.133 338.111 161.055 334.329C159.475 331.544 156.898 328.926 155.236 328.51C153.615 328.094 150.789 328.593 148.628 329.674L146.716 330.588L144.305 328.053C143.017 326.64 141.229 325.185 140.398 324.811C138.569 324.063 138.902 324.021 137.406 325.476Z" fill="black"/>
<path d="M143.598 405.608C142.31 406.19 142.102 406.44 142.643 406.689C143.308 406.98 145.593 406.024 146.092 405.234C146.466 404.611 145.427 404.736 143.598 405.608Z" fill="black"/>
<path d="M104.737 431.003C104.737 431.211 104.987 431.419 105.319 431.419C105.652 431.419 106.026 431.71 106.151 432.084C106.317 432.458 106.525 432.666 106.691 432.499C106.982 432.208 105.652 430.588 105.07 430.588C104.904 430.588 104.737 430.754 104.737 431.003Z" fill="black"/>
<path d="M104.073 442.474C104.197 442.848 104.322 443.306 104.322 443.513C104.322 443.721 104.53 443.888 104.821 443.888C105.07 443.888 105.652 444.22 106.109 444.594C106.691 445.134 106.608 444.843 105.777 443.555C104.654 441.851 103.574 441.144 104.073 442.474Z" fill="black"/>
<path d="M97.9628 442.932C97.5056 443.347 97.6303 446.34 98.0875 447.254C98.6694 448.252 99.75 448.293 99.75 447.254C99.75 446.838 99.8747 445.924 99.9994 445.259C100.332 443.68 98.8772 442.017 97.9628 442.932Z" fill="black"/>
<path d="M173.108 445.55C172.734 446.132 175.186 448.626 175.768 448.293C176.474 447.836 176.308 446.589 175.477 445.841C174.604 445.051 173.482 444.927 173.108 445.55Z" fill="black"/>
<path d="M91.8531 459.182C91.77 462.632 99.3759 468.617 104.405 469.157C106.899 469.407 108.561 468.783 106.4 468.451C105.07 468.201 104.945 468.077 105.07 466.83C105.153 465.541 104.654 465.043 104.114 465.916C103.782 466.456 100.955 466.456 100.166 465.916C99.6253 465.541 99.6668 465.417 100.332 464.876C100.789 464.544 101.579 464.253 102.077 464.253C104.114 464.253 105.153 463.172 103.407 462.923C102.784 462.84 102.244 462.3 101.87 461.427C101.412 460.429 100.997 460.097 100.415 460.18C99.6668 460.305 99.5422 460.596 99.5422 462.3C99.5006 465.708 97.5056 466.04 95.3028 463.006C93.1831 460.014 91.8947 458.601 91.8531 459.182Z" fill="black"/>
<path d="M105.153 459.266C104.696 459.557 104.654 459.847 105.07 460.679C105.735 462.133 106.4 462.05 106.4 460.554C106.4 459.141 105.984 458.725 105.153 459.266Z" fill="black"/>
<path d="M142.642 466.747C141.271 467.079 140.149 467.827 140.523 468.16C140.772 468.409 146.3 467.204 147.09 466.747C147.921 466.248 144.679 466.248 142.642 466.747Z" fill="black"/>
<path d="M94.7625 468.825C94.0144 469.282 94.0975 469.324 96.5497 470.238C98.3784 470.945 100.166 472.69 99.6253 473.23C99.5006 473.355 98.5447 472.898 97.5056 472.191C95.5522 470.861 93.1 470.072 93.1 470.778C93.1 471.028 93.6819 471.9 94.3469 472.773C95.76 474.56 95.76 475.184 94.3884 475.392C92.3103 475.724 92.9337 477.428 95.6769 478.841C96.6328 479.34 97.3394 480.047 97.5056 480.712C97.8797 482.125 97.5472 482.291 96.0509 481.543C95.3859 481.169 94.6794 480.878 94.5131 480.878C94.0559 480.878 94.804 485.949 95.5937 488.276C96.3419 490.354 96.3419 490.479 95.6769 490.23C94.3884 489.731 94.1806 489.814 94.0144 490.728C93.8065 492.183 95.0119 494.261 97.0069 495.84C98.7109 497.17 99.75 498.625 99.75 499.581C99.75 500.371 98.6278 499.955 97.4225 498.75C95.8847 497.17 95.3859 497.17 96.2172 498.708C96.9653 500.205 98.9187 501.784 101.454 502.865C103.407 503.737 113.008 506.397 113.258 506.148C113.341 506.065 113.216 505.192 112.967 504.195C112.551 502.574 112.593 502.283 113.258 501.825C114.214 501.119 114.588 501.41 113.881 502.283C113.466 502.781 113.59 503.155 114.671 504.361C115.377 505.192 115.959 506.023 115.959 506.231C115.959 507.062 137.281 506.148 138.736 505.234C138.943 505.109 139.359 504.153 139.608 503.114C140.066 501.327 140.564 500.786 141.063 501.618C141.188 501.825 141.687 501.909 142.144 501.784C143.432 501.451 143.183 502.781 141.853 503.488C140.357 504.319 140.855 504.278 144.804 503.363C146.591 502.906 148.337 502.283 148.711 501.95C149.292 501.368 149.251 501.202 148.627 500.205C147.588 498.667 148.295 498.002 150.165 498.667C152.659 499.581 153.199 499.332 154.779 496.755C156.524 493.845 158.602 488.816 159.226 485.865C159.475 484.66 159.6 482.125 159.517 480.296C159.309 476.431 158.312 473.812 155.984 470.986L154.446 469.116L151.121 469.365C149.251 469.49 145.801 470.196 143.391 470.903C140.98 471.61 137.655 472.316 136.034 472.441L133 472.69V474.02C133 474.727 132.751 475.683 132.418 476.098C131.878 476.846 131.836 476.846 131.379 476.015C131.13 475.516 131.047 474.851 131.13 474.519C131.337 474.062 129.675 473.895 120.864 473.688C107.772 473.355 106.067 473.064 100.747 470.446C96.3834 468.326 95.8015 468.16 94.7625 468.825Z" fill="black"/>
<path d="M117.497 469.532C117.331 469.656 117.206 469.947 117.206 470.155C117.206 470.612 123.316 470.571 123.607 470.113C123.981 469.532 118.079 468.908 117.497 469.532Z" fill="black"/>
<path d="M190.148 500.246C189.068 501.909 186.325 502.865 180.631 503.53C174.978 504.195 173.316 504.776 167.164 508.226C165.169 509.348 161.262 511.26 158.478 512.424C155.028 513.92 152.867 515.126 151.62 516.289C149.916 517.91 149.874 517.993 150.747 518.326C152.659 519.032 160.514 519.947 164.837 519.947C178.345 519.947 190.398 515.333 192.725 509.224C193.764 506.439 193.764 501.244 192.684 500.038C191.645 498.875 191.021 498.958 190.148 500.246Z" fill="black"/>
<path d="M100.415 506.19C100.29 506.397 100.54 506.647 100.997 506.771C101.496 506.896 102.244 507.894 102.909 509.307C103.948 511.593 105.195 512.881 106.317 512.881C107.605 512.881 105.195 507.145 103.491 506.231C102.535 505.732 100.706 505.691 100.415 506.19Z" fill="black"/>
<path d="M145.718 518.284C139.816 521.734 129.675 522.565 109.018 521.36C104.197 521.069 103.823 521.318 105.777 523.604C108.187 526.472 114.047 528.717 116.832 527.885C117.705 527.594 118.619 527.054 118.869 526.638C119.367 525.641 121.529 525.142 121.155 526.098C121.03 526.472 121.238 527.387 121.653 528.176C122.402 529.548 122.402 529.548 121.404 530.296L120.407 531.044L121.778 531.543C122.526 531.792 124.064 532 125.145 532H127.14L127.264 528.758L127.389 525.558L128.844 525.35C129.966 525.184 130.298 524.934 130.298 524.311C130.298 523.729 130.631 523.438 131.462 523.355C132.792 523.189 133.291 524.02 132.626 525.308C132.002 526.431 132.792 526.888 133.79 526.015C134.912 525.017 139.899 523.272 141.645 523.313H143.183L141.022 524.436C138.736 525.558 138.237 526.181 139.608 526.181C140.066 526.181 140.689 526.472 141.063 526.805C141.853 527.636 141.936 527.594 142.019 526.555C142.144 525.308 143.266 524.186 145.677 522.981C148.378 521.609 149.209 520.861 149.209 519.739C149.209 519.199 148.877 518.409 148.503 517.952L147.755 517.079L145.718 518.284Z" fill="black"/>
<path d="M106.317 527.47C105.901 527.761 105.943 527.844 106.525 527.844C106.94 527.844 108.312 528.384 109.642 529.049C113.216 530.878 114.962 531.252 116.541 530.545C117.788 530.005 117.788 530.005 116.791 529.963C116.209 529.922 114.463 529.423 112.842 528.841C109.143 527.47 107.023 527.054 106.317 527.47Z" fill="black"/>
</g>
<defs>
<clipPath id="clip0_57_322">
<rect width="266" height="532" fill="white"/>
</clipPath>
</defs>
</svg>
